<?xml version="1.0" encoding="utf-8"?>
<!-- Generator: Adobe Illustrator 27.5.0, SVG Export Plug-In . SVG Version: 6.00 Build 0)  -->
<svg version="1.1" xmlns="http://www.w3.org/2000/svg" xmlns:xlink="http://www.w3.org/1999/xlink" x="0px" y="0px"
	 viewBox="0 0 500 500" style="enable-background:new 0 0 500 500;" xml:space="preserve">
<g id="BACKGROUND">
	<rect style="fill:#F9F4F2;" width="500" height="500"/>
	<g>
		<rect style="fill:#638CC5;" width="500" height="500"/>
	</g>
</g>
<g id="OBJECTS">
	<g>
		<defs>
			<rect id="SVGID_1_" width="500" height="500"/>
		</defs>
		<clipPath id="SVGID_00000181071346681364293210000016518520385583842188_">
			<use xlink:href="#SVGID_1_"  style="overflow:visible;"/>
		</clipPath>
		<g style="clip-path:url(#SVGID_00000181071346681364293210000016518520385583842188_);">
			<g>
				<rect x="95.787" y="2.181" style="fill:#CFDFE1;" width="693.858" height="485.701"/>
				<rect x="-39.388" y="389.304" style="fill:#9CBEC5;" width="829.034" height="125.795"/>
				<rect x="-75.735" y="370.746" style="fill:#3A8790;" width="865.38" height="18.559"/>
				<g>
					<polygon style="fill:#F4F3E9;" points="328.877,81.314 144.491,279.144 190.024,373.97 474.252,373.97 					"/>
					<polygon style="fill:#CDCECC;" points="190.024,373.97 197.388,389.304 481.869,389.304 474.252,373.97 					"/>
				</g>
				<polygon style="fill:#DDD7D3;" points="700.686,442.018 481.869,389.304 197.388,389.304 409.305,442.018 				"/>
			</g>
			<g>
				<rect x="144.491" y="81.314" style="fill:#FAFAF4;" width="184.386" height="205.263"/>
				<g>
					<defs>
						
							<rect id="SVGID_00000170969198348319406480000016832911986706567586_" x="144.491" y="81.314" width="184.386" height="205.263"/>
					</defs>
					<clipPath id="SVGID_00000007400330021489648290000005574196167641287300_">
						<use xlink:href="#SVGID_00000170969198348319406480000016832911986706567586_"  style="overflow:visible;"/>
					</clipPath>
				</g>
				<polygon style="fill:#D5D9DC;" points="144.491,286.578 144.491,279.144 319.584,279.144 319.584,81.314 328.877,81.314 
					328.877,286.578 				"/>
				<g>
					<g>
						<g>
							<rect x="203.096" y="81.314" style="fill:#C9CDD0;" width="4.956" height="200.888"/>
						</g>
						<g>
							<rect x="264.552" y="81.314" style="fill:#C9CDD0;" width="4.956" height="200.888"/>
						</g>
						<g>
							<rect x="144.451" y="142.935" style="fill:#C9CDD0;" width="181.102" height="4.956"/>
						</g>
						<g>
							<rect x="144.451" y="228.055" style="fill:#C9CDD0;" width="181.102" height="4.956"/>
						</g>
					</g>
				</g>
				<rect x="135.717" y="74.045" style="fill:#B5CBD6;" width="205.184" height="7.269"/>
			</g>
			<g>
				<g>
					<rect x="406.096" y="101.036" style="fill:#86CBC7;" width="101.289" height="280.172"/>
					<rect x="417.646" y="101.036" style="fill:#A1D8D3;" width="11.721" height="280.162"/>
					<rect x="442.716" y="101.036" style="fill:#A1D8D3;" width="11.721" height="280.162"/>
					<rect x="467.786" y="101.036" style="fill:#A1D8D3;" width="11.721" height="280.162"/>
					<rect x="492.856" y="101.036" style="fill:#A1D8D3;" width="11.721" height="280.162"/>
				</g>
				<g>
					<path style="fill:#FFFFFD;" d="M510.492,407.334h-7.636V103.614c0-15.239-12.398-27.637-27.637-27.637h-41.296
						c-15.239,0-27.637,12.398-27.637,27.637v302.541h-7.636V103.614c0-19.449,15.823-35.273,35.273-35.273h41.296
						c19.449,0,35.273,15.823,35.273,35.273V407.334z"/>
				</g>
				<rect x="396.344" y="404.408" style="fill:#FFFFFD;" width="12.537" height="5.609"/>
				<rect x="500.181" y="404.408" style="fill:#FFFFFD;" width="12.537" height="5.609"/>
			</g>
			<g id="XMLID_366_">
				<path id="XMLID_341_" style="fill:#A1D8CB;" d="M165.045,400.316c-7.449,7.477-19.636,7.462-29.823,4.703
					c-10.187-2.759-19.875-7.742-30.395-8.584c-20.266-1.622-39.496,12.36-59.71,10.187c-14.313-1.538-27.007-11.047-41.388-11.697
					c-18.5-0.836-35.969,13.159-54.168,9.734c-8.594-1.617-16-6.961-24.287-9.756c-8.366-2.821-17.441-1.063-26.27-1.063V-5.416
					H156.06L165.045,400.316z"/>
				<g id="XMLID_349_">
					<g>
						<path id="XMLID_81_" style="fill:#96CBC1;" d="M-70.885,199.684c0,110.721,3.428,200.478,3.428,200.478
							s3.428-89.757,3.428-200.478S-67.457-0.795-67.457-0.795S-70.885,88.963-70.885,199.684z"/>
						<path id="XMLID_79_" style="fill:#96CBC1;" d="M78.683,199.684c0,110.721,3.428,200.478,3.428,200.478
							s3.428-89.757,3.428-200.478S82.111-0.795,82.111-0.795S78.683,88.963,78.683,199.684z"/>
						<path id="XMLID_77_" style="fill:#96CBC1;" d="M-9.278,196.364c0,108.888,3.428,197.158,3.428,197.158
							s3.428-88.271,3.428-197.158S-5.849-0.795-5.849-0.795S-9.278,87.476-9.278,196.364z"/>
						<path id="XMLID_76_" style="fill:#96CBC1;" d="M1.791,148.421c0,82.409,3.428,149.215,3.428,149.215
							s3.428-66.806,3.428-149.215S5.219-0.795,5.219-0.795S1.791,66.011,1.791,148.421z"/>
					</g>
				</g>
				<g id="XMLID_369_">
					<g>
						<path id="XMLID_54_" style="fill:#96CBC1;" d="M97.659,199.684c0,110.721,1.55,200.478,1.55,200.478s1.55-89.757,1.55-200.478
							S99.21-0.795,99.21-0.795S97.659,88.963,97.659,199.684z"/>
						<path id="XMLID_45_" style="fill:#96CBC1;" d="M115.258,196.364c0,108.888,1.55,197.158,1.55,197.158
							s1.55-88.271,1.55-197.158s-1.55-197.158-1.55-197.158S115.258,87.476,115.258,196.364z"/>
						<path id="XMLID_41_" style="fill:#96CBC1;" d="M120.263,148.421c0,82.409,1.55,149.215,1.55,149.215s1.55-66.806,1.55-149.215
							s-1.55-149.215-1.55-149.215S120.263,66.011,120.263,148.421z"/>
					</g>
				</g>
			</g>
			<g>
				<rect x="204.16" style="fill:#64C6D5;" width="3.863" height="26.319"/>
				<rect x="376.31" style="fill:#64C6D5;" width="3.863" height="26.319"/>
				<polygon style="fill:#4197AA;" points="400.43,26.319 294.312,26.319 188.193,26.319 178.97,43.878 294.312,43.878 
					409.654,43.878 				"/>
				<rect x="195.02" y="37.51" style="fill:#00EACE;" width="198.583" height="6.368"/>
			</g>
		</g>
		<g style="clip-path:url(#SVGID_00000181071346681364293210000016518520385583842188_);">
			<g>
				<polygon style="fill:#C97464;" points="87.226,439.25 49.384,439.25 37,390.318 98.75,390.318 				"/>
				<rect x="32.872" y="383.957" style="fill:#AD6157;" width="69.146" height="6.361"/>
				<polygon style="fill:#AD6157;" points="87.226,439.984 49.384,439.984 37,433.379 98.75,433.379 				"/>
			</g>
			<g>
				<path style="fill:#0F515A;" d="M64.943,319.31c-2.745,3.229-5.291,6.649-7.173,10.461c-1.778,3.6-2.819,7.462-3.247,11.447
					c-1.124,10.464,2.52,20.329,4.851,30.357c0.167,0.717,0.32,1.437,0.466,2.159c-0.813-1.999-1.633-3.996-2.464-5.988
					c-2.174-5.21-4.412-10.393-6.712-15.548c-2.304-5.165-4.813-10.247-6.983-15.47c-2.077-5.001-3.82-10.141-5.968-15.112
					c-1.983-4.59-4.596-9.723-3.682-14.876c0.196-1.107-1.325-1.549-1.692-0.466c-1.628,4.803-2.451,9.829-2.29,14.904
					c0.15,4.7,1.182,9.335,2.691,13.775c1.568,4.61,3.674,9.026,5.899,13.35c2.327,4.521,4.691,9.064,7.482,13.32
					c1.527,2.329,3.245,4.459,5.103,6.486c-1.14-0.693-2.318-1.324-3.519-1.902c-1.761-0.847-3.632-1.678-5.545-2.112
					c-5.956-1.352-13.588,1.214-16.758,6.612c-1.314,2.239-1.543,4.873-0.961,7.37c0.152,0.654,1.012,0.836,1.467,0.387
					c5.451-5.378,13.022-6.719,20.401-5.868c2.642,0.305,5.371,1.477,7.761,2.581c1.339,0.619,2.642,1.329,3.846,2.182
					c0.422,0.299,0.881,0.654,1.269,1.064c-0.089,0.548,0.288,0.936,0.712,1.046c0.027,0.063,0.055,0.124,0.081,0.187
					c0.206,0.614,0.853,0.723,1.298,0.5c0.159-0.068,0.291-0.178,0.373-0.319c0.07-0.062,0.125-0.136,0.169-0.216
					c0.317-0.169,0.524-0.509,0.378-0.958c-0.085-0.261-0.181-0.515-0.283-0.764c0.204-0.193,0.331-0.474,0.283-0.815
					c-0.148-1.044-0.327-2.082-0.528-3.115c1.142-8.275,1.323-16.593,0.882-24.967c-0.428-8.127-1.215-16.921,1.686-24.706
					c0.518-1.391,1.226-2.71,2.083-3.92C66.897,319.56,65.586,318.553,64.943,319.31z"/>
				<path style="fill:#0F515A;" d="M136.557,334.05c-2.533-0.037-4.962-0.887-7.506-0.876c-2.665,0.012-5.327,0.329-7.956,0.744
					c-5.131,0.81-9.991,2.283-14.671,4.546c-7.961,3.85-15.158,9.53-21.321,15.926c1.525-2.898,2.895-5.878,4.181-8.889
					c0.991-2.321,1.931-4.664,2.852-7.014c1.01-2.575,2.265-5.031,3.526-7.49c1.25-2.437,2.503-4.884,3.482-7.445
					c0.974-2.549,1.659-5.198,2.591-7.763c1.283-3.53,9.045-16.47,11.925-18.85c0.79-0.653-0.221-1.85-1.063-1.378
					c-7.597,4.256-13.816,10.424-18.623,17.647c-4.82,7.243-8.152,15.41-10.702,23.695c-0.21,0.682-0.41,1.367-0.605,2.053
					c-0.024-1.996-0.204-3.957-0.67-5.903c-0.486-2.03-1.174-4.006-1.456-6.081c-0.131-0.966-1.417-0.694-1.692,0
					c-3,7.549-2.523,15.669-3.068,23.619c-0.454,6.628-2.286,13.033-3.355,19.561c-0.08,0.171-0.102,0.339-0.079,0.492
					c-0.104,0.661-0.199,1.323-0.284,1.986c-0.02,0.049-0.038,0.098-0.058,0.146c-0.089,0.213-0.088,0.401-0.028,0.557
					c-0.034,0.296-0.067,0.592-0.097,0.889c-0.089,0.197-0.098,0.388-0.052,0.559c-0.01,0.111-0.021,0.223-0.03,0.334
					c-0.093,1.128,1.662,1.119,1.755,0c0.009-0.116,0.021-0.232,0.031-0.348c0.004-0.007,0.008-0.014,0.012-0.021
					c-0.019,0.356-0.035,0.713-0.043,1.071c-0.027,1.132,1.728,1.13,1.755,0c0.032-1.317,0.137-2.623,0.3-3.922
					c0.705-0.868,1.449-1.706,2.176-2.544c1.597-1.84,3.195-3.664,4.922-5.385c3.449-3.435,7.266-6.48,11.297-9.203
					c4.05-2.736,8.331-5.121,12.712-7.282c4.938-2.435,9.956-4.914,15.178-6.687c2.451-0.832,4.776-2.02,7.16-3.019
					c2.345-0.983,4.917-2.04,7.503-1.973C137.69,335.821,137.686,334.079,136.557,334.05z"/>
				<path style="fill:#2C6A43;" d="M116.283,383.324c-3.997-5.068-10.7-7.587-16.816-8.906c-6.445-1.39-13.677-1.784-19.969,0.497
					c-3.422,1.241-6.472,3.464-8.15,6.757c-0.072,0.141-0.103,0.28-0.103,0.411c-0.305,0.076-0.61,0.151-0.914,0.229
					c1.342-4.05,2.447-8.175,3.719-12.247c1.397-4.474,3.071-8.824,5.107-13.047c4.197-8.705,9.894-16.645,13.277-25.745
					c0.334-0.898-0.862-1.368-1.467-0.854c-6.253,5.319-11.982,11.341-16.143,18.461c-3.868,6.618-6.057,13.983-7.071,21.551
					c-0.434,3.238-0.64,6.504-0.709,9.77c-0.733-0.168-1.492,0.809-0.825,1.481c0.35,0.352,0.757,0.679,0.827,1.193
					c0.135,0.995,1.7,0.731,1.722-0.216c0.218,0.239,0.587,0.346,0.918,0.272c-0.117,0.567,0.334,1.271,1.072,1.083
					c0.163-0.042,0.328-0.081,0.491-0.122c0.017,0.062,0.043,0.12,0.074,0.176h1.583c0.173-0.279,0.389-0.527,0.641-0.748
					c3.051-0.742,6.117-1.429,9.189-2.07c0.4-0.084,0.801-0.166,1.201-0.248c1.761-0.043,3.528,0.021,5.269,0.145
					c2.86,0.204,5.842,0.573,8.532,1.619c3.724,1.449,7.237,3.955,9.978,6.839c3.47,3.651,5.635,8.394,6.148,13.402
					c0.547,5.337-0.733,10.719-3.027,15.523c-0.253,0.53,0.038,1.026,0.444,1.234c-0.173,0.538-0.349,1.075-0.532,1.609
					c-0.326,0.948,1.135,1.544,1.604,0.676c3.302-6.109,6.139-12.631,7.439-19.483C121.053,395.918,120.609,388.809,116.283,383.324
					z"/>
				<path style="fill:#0F515A;" d="M76.205,330.557c1.12-4.607,1.811-9.36,1.551-14.109c-0.275-5.016-1.728-9.861-4.148-14.255
					c-0.472-0.858-1.955-0.268-1.604,0.676c1.54,4.14,2.093,8.481,1.267,12.841c-0.745,3.931-2.471,7.585-4.318,11.103
					c-1.954,3.72-4.077,7.35-5.78,11.197c-2.055,4.644-3.197,9.531-3.215,14.621c-0.033,9.022,3.409,17.582,6.079,26.054
					c0.2,0.635,0.872,0.734,1.319,0.487c0.935,0.031,1.715-0.777,2.215-1.506c0.271-0.395,0.075-0.972-0.315-1.2
					c-0.003-0.002-0.007-0.004-0.011-0.006C64.163,360.851,72.564,345.529,76.205,330.557z"/>
				<path style="fill:#2C6A43;" d="M59.504,376.966c-1.352-2.662-3.295-5.045-5.976-6.269c-0.35-3.208-1.261-6.266-2.742-9.142
					c-1.453-2.823-3.435-5.346-5.501-7.742c-4.098-4.756-8.642-9.161-11.304-14.927c-0.089-0.206-0.18-0.411-0.275-0.615
					c-0.484-1.036-1.954-0.133-1.515,0.886c0.088,0.203,0.178,0.405,0.27,0.605c2.327,5.405,2.445,11.505,4.424,17.033
					c1.839,5.137,6.447,8.63,8.615,13.564c-1.602,0.432-3.161,1.074-4.628,1.761c-3.514,1.645-6.855,3.688-9.937,6.043
					c-3.171,2.424-6.098,5.234-8.263,8.608c-1.682,2.621-2.761,5.664-2.71,8.801c0.014,0.835,1.226,1.248,1.635,0.443
					c1.865-3.669,4.856-6.72,7.921-9.408c3.068-2.691,6.51-5.153,10.269-6.783c2.664-1.156,5.735-1.759,8.576-2.271
					c1.565-0.282,3.156-0.479,4.749-0.447c0.809,0.016,2.137,0.12,2.507,0.745c0.149,0.252,0.361,0.379,0.583,0.413
					c0.113,0.097,0.235,0.185,0.344,0.291c0.342,0.334,0.9,0.341,1.241,0c0.166-0.166,0.251-0.389,0.253-0.613
					C58.596,378.804,59.999,377.94,59.504,376.966z"/>
				<path style="fill:#4C8063;" d="M124.474,359.728c-3.806-5.305-9.667-8.054-16.128-8.256c-4.046-0.126-8.145,0.685-12.006,1.834
					c-3.701,1.101-7.252,2.734-10.459,4.885c-6.157,4.129-10.686,10.132-14.02,16.679c-1.419,2.786-2.629,5.678-3.718,8.609
					c-2.377-17.455-10.451-34.447-22.156-47.561c-3.256-3.648-6.875-6.965-10.823-9.849c-0.863-0.631-1.65,0.667-1.063,1.378
					c6.162,7.468,11.189,15.845,15.365,24.564c4.037,8.428,7.241,17.285,9.439,26.372c-0.282-0.275-0.598-0.526-0.96-0.741
					c-2.017-1.196-4.622-0.824-6.755-0.192c-2.759,0.818-5.341,2.274-7.689,3.915c-2.232,1.56-4.369,3.372-6.051,5.524
					c-1.456,1.863-2.245,4.06-2.911,6.313c-0.979,3.31-1.448,6.759-1.812,10.184c-0.751,7.074-0.825,14.325-3.065,21.145
					c-0.27,0.823,0.887,1.509,1.467,0.854c0.892-1.007,1.412-2.314,1.924-3.539c0.784-1.875,1.442-3.803,2.096-5.726
					c1.726-5.071,3.348-10.176,5.231-15.192c1.784-4.752,3.746-9.596,6.662-13.783c1.025-1.472,2.266-2.914,3.761-3.826
					c1.259-0.768,2.536-0.977,3.911-0.547c0.784,0.245,1.542,0.729,2.229,1.297H70.4c2.857-3.653,6.355-6.832,9.991-9.673
					c4.73-3.696,9.981-6.866,15.537-9.153c5.047-2.078,10.558-3.51,16.053-3.046c5.033,0.425,9.535,2.915,12.456,7.05
					c2.195,3.107,3.434,6.777,4.216,10.469c0.205,0.967,1.784,0.754,1.724-0.233C129.96,372.628,128.551,365.411,124.474,359.728z"
					/>
			</g>
		</g>
		<g style="clip-path:url(#SVGID_00000181071346681364293210000016518520385583842188_);">
			<g>
				<g>
					<path style="fill:#966359;" d="M356.187,167.799c2.408,0.283,4.256,0.883,5.459,1.353c20.452,7.998,17.289,42.3,29.794,80.616
						c0.767,2.351,2.709,8.735,0.424,14.926c-1.999,5.417-7.147,9.702-10.689,8.165c-3.548-1.54-4.552-8.519-5.239-12.692
						c-1.715-10.412-5.036-25.063-12.102-44.165C361.285,199.933,358.736,183.866,356.187,167.799z"/>
				</g>
				<path style="fill:#533028;" d="M338.8,130.142c4.906,0,7.728,2.048,9.207,3.469c3.273,3.84,5.881,9.654,7.667,14.285
					c1.591,4.126,3.217,7.551,1.166,11.592c-0.185,0.21-2.003,2.575-2.756,3.005c-0.449-0.065-0.846-0.277-1.241-0.494
					c-0.578-0.472-1.167-0.946-1.834-1.263c-0.71-0.338-1.492-0.479-2.229-0.754c-0.86-0.321-1.598-0.494-2.496-0.607
					c-0.474-0.06-0.913-0.181-1.344-0.324c-1.404-1.515-2.061-3.563-2.685-5.526c-0.843-2.651-0.764-5.188-0.523-7.928
					c0.12-1.37,0.229-2.753,0.095-4.127c-0.131-1.35-0.525-2.654-0.98-3.926c-0.367-1.024-0.768-2.036-1.125-3.058
					c0.081-0.085,0.134-0.201,0.133-0.353c-0.007-1.344-2.011,0.169-2.767-0.971c-0.08-0.121-1.678-2.691-1.79-2.723
					C335.339,130.389,338.712,130.142,338.8,130.142z"/>
				<path style="fill-rule:evenodd;clip-rule:evenodd;fill:#B6CAAF;" d="M399.803,334.373c-1.761,0-3.186,1.426-3.186,3.185
					c0,1.761,1.426,3.186,3.186,3.186c1.759,0,3.185-1.425,3.185-3.186C402.988,335.799,401.562,334.373,399.803,334.373z"/>
				<g>
					<path style="fill:#AD6157;" d="M354.388,231.752c-8.998,0.85-17.996,1.699-26.994,2.549c-2.588,2.79-5.551,5.395-7.86,8.443
						l65.105,39.681l65.494-12.627C418.218,257.116,386.303,244.434,354.388,231.752z"/>
				</g>
				<g>
					<g>
						<path style="fill:#4B2B23;" d="M359.912,425.007c0,0-4.663,2.968-5.442,6.603c-0.779,3.635,1.208,21.415,2.61,25.001
							c1.402,3.586,6.729,4.832,8.254,4.734c1.526-0.098,3.569-3.729,3.569-3.729L359.912,425.007z"/>
					</g>
					<g>
						<polygon style="fill:#7C4E48;" points="395.552,383.454 375.148,426.013 360.74,426.791 362.732,420.511 374.456,374.363 
													"/>
					</g>
					<g>
						<path style="fill:#7C4E48;" d="M368.823,457.8c-1.836,3.884-8.01,2.146-9.786-0.871c-0.202-0.331-0.361-0.736-0.51-1.194
							c-0.17-0.489-0.319-1.084-0.442-1.723c-0.464-2.402-0.693-5.589-0.994-8.857c-0.066-0.841-0.147-1.691-0.266-2.543
							c-0.199-1.976-0.485-3.903-0.883-5.6c-1.594-6.615,2.995-11.507,2.995-11.507s9.69-5.042,10.235-4.729
							c0.545,0.313,6.653,3.823,6.653,3.823s-2.349,7.461-3.961,17.547c-0.455,2.775-0.834,5.007-1.157,6.801
							c-0.16,0.927-0.313,1.741-0.444,2.449c-0.402,2.101-0.665,3.38-0.852,4.253c-0.089,0.36-0.144,0.662-0.189,0.91
							C369.126,457.034,369.011,457.438,368.823,457.8z"/>
					</g>
					<g>
						<path style="fill:#4B2B23;" d="M368.823,457.8c-0.961-1.433-1.973-2.777-3.065-4.05c-0.312,0.134-0.61,0.277-0.922,0.412
							c-2.166,0.874-4.14,1.583-6.309,1.573c-0.17-0.489-0.319-1.084-0.442-1.723c2.268,0.145,4.325-0.674,6.484-1.571
							c-2.306-2.537-4.836-4.89-7.478-7.286c-0.066-0.841-0.147-1.691-0.266-2.543c3.351,3.039,6.544,5.908,9.391,9.109
							c1.603-0.746,3.137-1.61,4.49-2.773c-0.16,0.927-0.313,1.741-0.444,2.449c-0.926,0.625-1.893,1.148-2.895,1.631
							c0.705,0.855,1.387,1.716,2.043,2.621c-0.089,0.36-0.144,0.662-0.189,0.91C369.126,457.034,369.011,457.438,368.823,457.8z"/>
					</g>
				</g>
				<g>
					<g>
						<path style="fill:#4B2B23;" d="M345.223,444.946c0,0-2.569,4.894-1.436,8.435c1.133,3.541,11.702,17.976,14.703,20.389
							c3.001,2.413,8.241,0.844,9.515,0c1.275-0.844,1.24-5.011,1.24-5.011L345.223,444.946z"/>
					</g>
					<g>
						<polygon style="fill:#966359;" points="372.353,397.69 358.744,442.883 344.627,445.87 345.628,439.357 350.109,391.955 
													"/>
					</g>
					<g>
						<path style="fill:#966359;" d="M369.268,468.959c0.34,4.283-5.88,5.846-8.922,4.113c-0.34-0.187-0.68-0.459-1.037-0.782
							c-0.391-0.34-0.816-0.782-1.241-1.275c-1.598-1.852-3.382-4.504-5.268-7.189c-0.476-0.697-0.969-1.394-1.496-2.073
							c-1.156-1.615-2.362-3.144-3.552-4.419c-4.674-4.945-3.127-11.472-3.127-11.472s5.897-9.194,6.526-9.194
							c0.629,0,9.177,0.952,9.177,0.952s0.17,6.696,3.79,16.247c0.986,2.634,1.767,4.759,2.379,6.475
							c0.323,0.884,0.595,1.665,0.833,2.346c0.697,2.022,1.105,3.263,1.377,4.113c0.102,0.357,0.204,0.646,0.289,0.884
							C369.149,468.144,369.251,468.552,369.268,468.959z"/>
					</g>
					<g>
						<path style="fill:#4B2B23;" d="M369.268,468.959c-1.547-0.765-3.093-1.428-4.674-1.989c-0.204,0.272-0.391,0.544-0.595,0.816
							c-1.444,1.836-2.804,3.433-4.691,4.504c-0.391-0.34-0.816-0.782-1.241-1.275c2.039-1.002,3.416-2.736,4.844-4.588
							c-3.263-1.054-6.628-1.836-10.112-2.6c-0.476-0.697-0.969-1.394-1.496-2.073c4.419,0.969,8.616,1.869,12.678,3.229
							c1.02-1.444,1.92-2.957,2.515-4.64c0.323,0.884,0.595,1.665,0.833,2.346c-0.493,1.002-1.071,1.937-1.699,2.855
							c1.036,0.391,2.056,0.799,3.076,1.258c0.102,0.357,0.204,0.646,0.289,0.884C369.149,468.144,369.251,468.552,369.268,468.959z
							"/>
					</g>
				</g>
				<g>
					<path style="fill:#AD6157;" d="M425.359,260.615c1.275-0.425,32.837,5.734,33.626,22.836
						c0.789,17.102-65.978,120.387-65.978,120.387l-22.816-8.963l14.459-128.737L425.359,260.615z"/>
				</g>
				<g>
					<path style="fill:#C97464;" d="M317.422,238.859c0,0-10.01,34.046,8.039,44.232c18.049,10.186,29.857,10.356,29.857,10.356
						s-10.825,59.222-13.441,72.846c-2.616,13.624-6.891,42.131-6.891,42.131l42.169,2.951c0,0,15.907-60.451,26.396-96.94
						c7.615-26.492,14.916-44.867,5.39-57.081c-5.567-7.138-9.441-2.835-42.162-16.218c-14.316-5.855-23.23-10.628-35.289-8.259
						C325.259,234.102,320.484,236.781,317.422,238.859z"/>
				</g>
				<g>
					<path style="fill:#966359;" d="M371.702,200.844c-0.201,2.547-0.562,5.095-1.153,7.692c-1.494,6.529-4.884,20.549-6.228,27.108
						h-44.999c-0.461-3.289-1.314-6.499-2.106-9.788c-1.294-5.365-2.597-10.661-4.393-15.886c-1.023-2.999-2.106-5.967-3.159-8.956
						c-1.454-9.116,0.01-19.626,0.692-20.91c0.752-1.414,1.394-6.077,7.662-9.427c2.257-1.203,4.463-2.497,7.301-4.092
						c0.301-0.171,0.602-0.341,0.903-0.511c0.612-0.351,1.203-0.692,1.765-1.023c0.301-0.18,0.592-0.351,0.882-0.532
						c2.628-1.554,4.513-2.758,4.513-2.758l14.291,4.463c0,0,1.444,0.251,3.57,0.642c0.311,0.06,0.642,0.12,0.983,0.191
						c0.893,0.16,1.865,0.341,2.878,0.532c0.361,0.07,0.722,0.14,1.083,0.211c5.145,1.003,7.893,2.227,8.966,2.878
						c1.805,1.103,1.524,7.351,1.665,9.076C367.229,185.109,372.033,196.662,371.702,200.844z"/>
				</g>
				<g>
					<path style="fill:#E8E8E9;" d="M372.191,205.594c-0.17,1.745-0.612,4.242-1.173,7.05c-1.043,5.175-2.527,11.423-3.65,16.026
						c-0.893,3.691-1.544,6.328-1.544,6.529c0,0.531-33.035,2.999-46.173,3.961c-0.321-4.062-1.916-3.62-2.878-7.642
						c-0.17-0.692-0.341-1.424-0.521-2.176c-0.983-4.082-2.126-8.966-2.868-14.221c-0.18-1.264-0.341-2.547-0.471-3.841
						c-0.16-1.685-1.113-3.189-1.675-4.784c1.033,0.822,2.397,1.223,4.282,0.872c0.622-0.12,1.234-0.431,1.835-0.903
						c2.006-1.524,3.901-4.583,5.415-6.789c1.374-1.986,2.928-5.125,4.282-7.682c1.244-2.337,2.317-4.182,2.918-4.182
						c0.712,0,5.927,3.691,10.63,7.01c3.771,2.658,7.211,5.085,7.762,5.195c0.511,0.1,2.257-2.176,4.252-4.934
						c2.888-3.981,6.308-8.946,7.261-9.106c0.371-0.06,1.173,0.642,2.216,1.795c3.47,3.861,9.507,12.837,10.119,15.665
						C372.302,203.869,372.292,204.611,372.191,205.594z"/>
				</g>
				<g>
					<g>
						<path style="fill:#E8E8E9;" d="M330.553,188.548l-0.993,0.07c-0.01-0.09-0.542-8.494-1.424-12.416
							c-0.572-2.557-1.926-6.88-2.818-9.618c0.301-0.171,0.602-0.341,0.903-0.511c0.883,2.738,2.307,7.251,2.898,9.908
							C330.012,179.984,330.533,188.207,330.553,188.548z"/>
					</g>
				</g>
				<g>
					<g>
						<path style="fill:#E8E8E9;" d="M360.279,185.399l-0.983,0.201c-0.02-0.1-1.875-9.638-2.838-12.997
							c-0.592-2.066-1.073-3.891-1.354-5.014c0.361,0.07,0.722,0.14,1.083,0.211c0.291,1.113,0.722,2.728,1.234,4.523
							C358.403,175.732,360.199,185.008,360.279,185.399z"/>
					</g>
				</g>
				<path style="fill:#966359;" d="M341.6,232.957c0,0-12.853,1.286-23.113,1.82c-3.331,0.173-6.259,0.393-8.831,0.627
					c5.798-14.47,11.596-28.94,17.395-43.409c-3.342-6.916-6.685-13.831-10.027-20.747c0,0-1.632,0.996-3.609,2.502
					c0,0-3.09,2.43-5.678,5.564c-7.296,8.836-9.586,26.146-9.586,26.147c-1.885,14.247-8.574,50.189-3.468,50.101
					c5.106-0.089,48.414-14.383,48.414-14.383L341.6,232.957z"/>
				<g>
					<path style="fill:#A1BDD8;" d="M355.548,297.798h-45.569c-2.232,0-4.041-1.478-4.041-3.302v-3.669
						c0-1.824,1.809-3.302,4.041-3.302h45.569c2.232,0,4.041,1.478,4.041,3.302v3.669
						C359.588,296.32,357.779,297.798,355.548,297.798z"/>
				</g>
				<g>
					<rect x="319.534" y="292.662" style="fill:#A1BDD8;" width="6.28" height="132.926"/>
				</g>
				<g>
					<path style="fill:#25221F;" d="M346.36,430.104h-54.443V427.8c0-2.386,1.935-4.321,4.321-4.321h45.801
						c2.386,0,4.321,1.935,4.321,4.321V430.104z"/>
				</g>
				<g>
					<polygon style="fill:#966359;" points="330.855,168.684 338.339,170.142 346.187,166.003 345.068,160.205 344.032,154.807 
						343.989,154.598 331.684,149.834 					"/>
					<path style="fill:#34302F;" d="M334.549,154.911c0,0,1.575,3.275,5.142,4.419c2.19,0.704,4.108,0.865,5.377,0.876l-1.036-5.398
						c-0.947,0.126-1.943,0.233-2.843,0.265C338.338,155.177,334.549,154.911,334.549,154.911z"/>
					<path style="fill:#966359;" d="M328.886,147.123c0.924,6.567,7.658,10.692,12.606,9.903c5.745-0.916,7.828-6.081,6.904-12.648
						c-0.418-2.973-0.885-5.829-2.658-7.705c-2.143-2.268-5.822-3.227-8.77-2.813C331.581,134.618,327.962,140.556,328.886,147.123z
						"/>
					<path style="fill:#966359;" d="M329.118,145.53c0.252,1.794,1.614,3.086,3.041,2.886c1.427-0.201,2.379-1.818,2.127-3.613
						c-0.252-1.795-1.614-3.086-3.041-2.886C329.818,142.118,328.866,143.735,329.118,145.53z"/>
					<g>
						<path style="fill:#533028;" d="M343.826,142.547c0.105-0.066,0.23-0.096,0.35-0.068c0.214,0.051,0.348,0.264,0.425,0.471
							c0.089,0.236,0.136,0.488,0.14,0.74c0.002,0.158-0.014,0.321-0.086,0.462c-0.141,0.279-0.502,0.388-0.756,0.192
							c-0.11-0.085-0.187-0.207-0.245-0.334c-0.117-0.254-0.168-0.539-0.147-0.818c0.014-0.185,0.062-0.374,0.178-0.518
							C343.724,142.624,343.773,142.581,343.826,142.547z"/>
						<path style="fill:#533028;" d="M337.993,143.227c0.105-0.066,0.23-0.097,0.349-0.068c0.214,0.051,0.348,0.264,0.425,0.471
							c0.089,0.236,0.136,0.488,0.14,0.74c0.002,0.158-0.014,0.321-0.086,0.462c-0.141,0.279-0.502,0.388-0.756,0.192
							c-0.11-0.085-0.187-0.207-0.245-0.334c-0.117-0.254-0.168-0.539-0.147-0.818c0.014-0.185,0.062-0.374,0.178-0.518
							C337.891,143.304,337.939,143.261,337.993,143.227z"/>
						<path style="fill:#533028;" d="M346.005,140.462c-0.059-0.114-0.144-0.222-0.232-0.312c-0.686-0.698-1.715-1.243-2.715-1.224
							c-0.294,0.006-0.74,0.094-0.87,0.4c-0.079,0.185,0.004,0.406,0.147,0.548c0.143,0.141,0.334,0.22,0.52,0.295
							c0.591,0.238,1.182,0.476,1.773,0.714c0.358,0.144,1.102,0.568,1.4,0.081C346.123,140.809,346.091,140.629,346.005,140.462z"
							/>
						<path style="fill:#533028;" d="M335.029,141.854c0.006-0.025,0.012-0.049,0.02-0.073c0.19-0.645,0.631-1.191,1.14-1.631
							c0.366-0.316,0.781-0.589,1.248-0.714c0.27-0.072,0.587-0.081,0.796,0.102c0.509,0.447-0.158,0.977-0.484,1.233
							c-0.557,0.439-1.115,0.878-1.672,1.317c-0.161,0.127-0.329,0.257-0.53,0.298c-0.2,0.041-0.441-0.039-0.515-0.23
							C334.995,142.061,335.005,141.955,335.029,141.854z"/>
					</g>
					<path style="fill:#34302F;" d="M342.096,146.321c0.242-0.116,0.787-0.302,0.778-0.653c-0.004-0.146-0.255-0.43-0.325-0.549
						c-0.253-0.427-0.506-0.854-0.759-1.281c-0.181-0.306,0.273-0.624,0.456-0.317c0.253,0.427,0.506,0.854,0.759,1.28
						c0.165,0.278,0.444,0.601,0.47,0.933c0.045,0.594-0.768,0.905-1.194,1.109C341.959,146.998,341.777,146.474,342.096,146.321z"
						/>
					<path style="fill:#34302F;" d="M339.561,147.638c0.718,0.631,1.381,1.009,2.357,0.895c0.875-0.102,1.689-0.412,2.299-1.065
						c0.246-0.263,0.627,0.146,0.383,0.408c-0.748,0.8-1.816,1.181-2.9,1.236c-1.055,0.053-1.781-0.419-2.546-1.091
						C338.882,147.783,339.293,147.402,339.561,147.638z"/>
				</g>
				<path style="fill:#6FA7D2;" d="M334.302,152.807c0.75,1.813,3.732,3.138,7.258,3.138c3.193,0,5.051-0.721,6.529-2.504
					c1.525-1.838,1.121-6.526,1.121-6.526s-3.151-2.332-5.644-2.091c-3.339,0.325-5.485,3.122-8.756,2.332
					C333.778,146.908,333.956,151.971,334.302,152.807z"/>
				<path style="fill:#6FA7D2;" d="M334.81,147.156c0.727,0.473,0.558,1.874-0.244,1.385c-2.678-1.626-3.921-5.214-3.921-5.214
					l-0.29-1.042C330.355,142.286,332.018,145.344,334.81,147.156z"/>
				<path style="fill:#6FA7D2;" d="M334.519,151.863c1.326,0.789,2.662,3.02,0,1.333c-2.662-1.687-4.647-5.517-5.024-5.915
					c-0.377-0.398-0.417-1.229-0.417-1.229S331.278,149.933,334.519,151.863z"/>
				<path style="fill:none;stroke:#2C8FC5;stroke-width:0.4605;stroke-linecap:round;stroke-miterlimit:10;" d="M344.92,149.902
					c-2.062,2.304-5.085,2.051-5.085,2.051"/>
				<path style="fill:#533028;" d="M337.311,160.692c0.151,0.281-0.053,0.616-0.372,0.609c-1.103-0.023-2.29,0.087-2.85,0.026
					c-0.512-0.055-1.011-0.16-1.501-0.294c-0.371-0.101-0.697-0.327-0.919-0.64c-0.134-0.19-0.265-0.377-0.397-0.552
					c-0.516-0.683-1.02-1.375-1.515-2.073c0.162,0.73,0.379,1.441,0.644,2.137c0.066,0.174-0.101,0.345-0.275,0.279
					c-0.628-0.24-1.257-0.479-1.899-0.676c-1.532-0.47-2.958-0.871-4.3-1.532c-0.229-0.113-0.426-0.282-0.58-0.484
					c-0.315-0.413-0.593-0.829-0.804-1.144c-1.769-2.622-1.246-6.121-0.602-9.011c0.633-2.841,1.502-5.625,2.572-8.332
					c0.502-1.269,2.763-5.066,4.444-6.157c2.027-1.316,4.775-2.419,7.233-2.483c0.561-0.015,1.178,0.083,1.71,0.33
					c0.003,0.083,0.028,0.17,0.087,0.259c0.514,0.775,0.708,1.557,0.772,2.417c-0.124,0.183-0.268,0.357-0.42,0.52
					C333.164,141.985,332.796,152.277,337.311,160.692z"/>
				<path style="fill:#533028;" d="M347.004,138.739c-0.027-0.006-0.059-0.012-0.092-0.019c-0.227-1.133-0.9-2.226-1.605-3.23
					c0.013-0.38-0.059-0.784-0.249-1.213c-0.346-0.781-0.421-1.251-0.571-1.649c-3.238-2.152-5.239-2.155-6.5-1.673
					c-1.925,0.736-2.903,2.897-6.014,3.631c-0.625,0.148-1.156,0.195-1.507,0.212c-0.22,0.677-0.407,1.368-0.61,2.045
					c-0.233,0.777-0.696,1.981-0.329,2.791c0.27,0.595,1.029,0.54,1.579,0.55c0.893,0.015,1.291,0.506,1.915,0.648
					c1.25-0.2,2.48-0.468,3.61-0.87c1.024-0.364,1.965-0.658,3.04-0.777c0.366-0.04,0.731-0.106,1.094-0.18
					c0.243-0.3,0.41-0.701,0.533-1.018c-0.012,0.12-0.157,0.667-0.098,0.928c0.635-0.137,1.269-0.278,1.905-0.345
					c0.626-0.434,1.231-0.944,1.649-1.536c0.058,0.268,0.115,0.536,0.162,0.807c0.036,0.204,0.039,0.41,0.118,0.577
					c0.692,0.166,1.392,0.296,2.083,0.459C347.116,138.815,347.082,138.757,347.004,138.739z"/>
				<path style="fill:none;stroke:#000000;stroke-miterlimit:10;" d="M326.221,166.074c1.54,3.687,3.116,8.681,3.644,14.719
					c0.223,2.552,0.226,4.908,0.105,7.02"/>
				<g>
					<path style="fill:#966359;" d="M337.489,234.373c0.211-0.678,0.834-1.146,1.544-1.163c6.71-1.279,11.668-4.783,13.079-3.605
						c1.48,1.236,7.889,7.909,7.889,7.909l3.696,5.435c0,0-1.482,0.739-2.468-0.003c0,0,0.985,2.223-1.237,1.973
						c-2.221-0.25-2.221-0.25-2.221-0.25s1.974,0.743-0.495,1.234c-2.469,0.491-5.428-2.475-6.415-2.476
						c-0.987-0.001-2.962-0.497-2.962-0.497s5.18,2.969,5.179,3.956c-0.001,0.987-0.742,0.986-2.222,0.244s-5.673-3.71-7.154-3.958
						c-1.102-0.185-5.489,0.857-8.676-0.127C333.619,242.609,334.529,237.235,337.489,234.373z"/>
					<g>
						<path d="M355.416,240.701c-0.616-0.52-1.075-1.697-1.956-1.645c-2.018,0.105-3.887-0.782-5.808-1.111
							c-0.148,0.016-0.309,0.187-0.195,0.339c1.439,1.369,3.99,1.278,5.868,1.299c1.019,1.352,2.556,2.412,3.712,3.682
							c0.245,0.241,0.611-0.126,0.377-0.376C356.739,242.167,356.07,241.442,355.416,240.701z"/>
						<path d="M360.343,241.527c-0.558-0.831-1.198-1.605-1.816-2.392c-0.492-0.431-1.811-2.902-2.417-2.48
							c-0.53-0.187-6.485-4.4-5.606-2.301c1.748,1.23,3.82,2.081,5.747,3.026C356.606,237.646,360.55,243.219,360.343,241.527z"/>
					</g>
				</g>
			</g>
			<line style="fill:none;stroke:#000000;stroke-miterlimit:10;" x1="348.363" y1="200.018" x2="359.296" y2="185.6"/>
			<path style="fill:none;stroke:#000000;stroke-miterlimit:10;" d="M372.258,243.727c6.709,2.145,12.362,3.971,16.597,5.344
				c15.247,4.944,17.763,5.854,20.084,8.284c1.786,1.869,7.353,8.714,3.146,26.292"/>
			<line style="fill:none;stroke:#000000;stroke-miterlimit:10;" x1="309.979" y1="287.526" x2="355.548" y2="287.526"/>
			<line style="fill:none;stroke:#000000;stroke-miterlimit:10;" x1="334.985" y1="408.425" x2="377.154" y2="411.376"/>
		</g>
		<g style="clip-path:url(#SVGID_00000181071346681364293210000016518520385583842188_);">
			<g>
				<path style="fill:#4BB9BB;" d="M218.513,209.376c0.278-0.897,1.103-1.515,2.043-1.539c8.874-1.691,15.433-6.327,17.299-4.768
					c1.957,1.635,10.435,10.461,10.435,10.461l4.889,7.189c0,0-1.96,0.977-3.265-0.004c0,0,1.302,2.94-1.636,2.61
					c-2.938-0.33-2.938-0.33-2.938-0.33s2.611,0.983-0.655,1.632c-3.266,0.649-7.179-3.274-8.485-3.276s-3.917-0.658-3.917-0.658
					s6.852,3.926,6.85,5.232c-0.002,1.306-0.981,1.305-2.939,0.323c-1.958-0.982-7.503-4.907-9.462-5.236
					c-1.458-0.245-7.26,1.133-11.475-0.168C213.394,220.27,214.599,213.162,218.513,209.376z"/>
			</g>
			<g>
				<g>
					<path style="fill:#FFFFFF;" d="M191.607,438.497l-11.389,3.623l-0.692,8.757l39.352-1.03
						C218.877,449.847,216.278,445.862,191.607,438.497z"/>
					<polygon style="fill:#292136;" points="218.877,449.847 179.525,450.877 179.294,453.796 218.581,451.733 					"/>
					<g>
						<g>
							<path style="fill:#292136;" d="M194.605,438.993c-1.205,1.335-1.966,2.966-2.891,4.491c-0.346,0.571,0.548,1.092,0.894,0.522
								c0.876-1.444,1.587-3.017,2.729-4.281c0.187-0.207,0.205-0.527,0-0.732C195.147,438.803,194.793,438.785,194.605,438.993
								L194.605,438.993z"/>
						</g>
					</g>
					<g>
						<g>
							<path style="fill:#292136;" d="M197.114,439.568c-1.205,1.335-1.966,2.966-2.891,4.491c-0.346,0.571,0.548,1.092,0.894,0.522
								c0.876-1.444,1.588-3.017,2.729-4.281c0.187-0.207,0.205-0.527,0-0.732C197.656,439.378,197.302,439.36,197.114,439.568
								L197.114,439.568z"/>
						</g>
					</g>
					<g>
						<g>
							<path style="fill:#292136;" d="M199.875,440.32c-1.205,1.335-1.965,2.966-2.891,4.491c-0.347,0.571,0.548,1.092,0.894,0.523
								c0.876-1.444,1.588-3.017,2.729-4.281c0.187-0.207,0.205-0.527,0-0.732C200.417,440.13,200.063,440.112,199.875,440.32
								L199.875,440.32z"/>
						</g>
					</g>
				</g>
				<g>
					<polygon style="fill:#ECA491;" points="163.195,161.5 171.204,163.06 179.602,158.631 178.404,152.426 177.295,146.65 
						177.249,146.426 164.083,141.328 					"/>
					<path style="fill:#34302F;" d="M167.147,146.761c0,0,1.686,3.505,5.503,4.729c2.343,0.753,4.396,0.926,5.754,0.937
						l-1.109-5.776c-1.013,0.135-2.08,0.249-3.042,0.284C171.202,147.046,167.147,146.761,167.147,146.761z"/>
					<path style="fill:#ECA491;" d="M161.088,138.427c0.989,7.027,8.195,11.441,13.489,10.597c6.148-0.981,8.376-6.507,7.388-13.534
						c-0.448-3.182-0.947-6.237-2.844-8.245c-2.293-2.427-6.23-3.454-9.385-3.01C163.972,125.045,160.1,131.4,161.088,138.427z"/>
					<path style="fill:#C97464;" d="M181.195,129.607c-4.318-0.389-10.646-3.522-10.646-3.522s-5.164,8.15-5.488,9.693
						c-0.324,1.543-1.172,9.96-1.172,9.96s-3.154-4.164-4.063-7.42c-0.909-3.255-1.469-7.552,0.441-11.293
						c1.909-3.742,9.417-7.071,14.474-5.261C180.924,123.979,185.512,129.996,181.195,129.607z"/>
					<path style="fill:#ECA491;" d="M161.336,136.722c0.27,1.92,1.727,3.303,3.254,3.088c1.527-0.215,2.546-1.946,2.276-3.866
						c-0.27-1.92-1.727-3.303-3.254-3.088C162.085,133.071,161.066,134.802,161.336,136.722z"/>
					<g>
						<path style="fill:#34302F;" d="M177.075,133.53c0.112-0.07,0.246-0.103,0.374-0.073c0.229,0.054,0.372,0.283,0.455,0.503
							c0.095,0.253,0.146,0.522,0.149,0.792c0.002,0.169-0.015,0.343-0.092,0.495c-0.151,0.298-0.537,0.416-0.809,0.205
							c-0.118-0.091-0.2-0.222-0.262-0.357c-0.125-0.272-0.18-0.577-0.157-0.875c0.015-0.198,0.067-0.4,0.191-0.555
							C176.966,133.612,177.018,133.566,177.075,133.53z"/>
						<path style="fill:#34302F;" d="M170.833,134.258c0.112-0.071,0.246-0.103,0.374-0.073c0.229,0.054,0.372,0.283,0.455,0.504
							c0.095,0.253,0.146,0.522,0.149,0.792c0.002,0.169-0.015,0.343-0.092,0.495c-0.151,0.298-0.537,0.416-0.809,0.205
							c-0.118-0.091-0.2-0.222-0.262-0.357c-0.125-0.272-0.18-0.577-0.157-0.875c0.015-0.198,0.067-0.4,0.191-0.555
							C170.724,134.34,170.775,134.294,170.833,134.258z"/>
						<path style="fill:#C97464;" d="M179.509,131.365c-0.108-0.086-0.238-0.154-0.363-0.203c-0.975-0.384-2.218-0.468-3.187-0.014
							c-0.285,0.133-0.683,0.414-0.676,0.77c0.004,0.215,0.181,0.395,0.382,0.471c0.201,0.076,0.422,0.069,0.637,0.062
							c0.681-0.025,1.362-0.049,2.044-0.074c0.413-0.015,1.325,0.075,1.404-0.53C179.775,131.652,179.666,131.49,179.509,131.365z"
							/>
						<path style="fill:#C97464;" d="M168.317,132.682c0.018-0.02,0.037-0.039,0.057-0.058c0.517-0.501,1.215-0.778,1.92-0.919
							c0.507-0.102,1.038-0.138,1.539-0.008c0.289,0.075,0.589,0.233,0.688,0.514c0.239,0.684-0.661,0.827-1.1,0.894
							c-0.75,0.116-1.5,0.231-2.251,0.347c-0.216,0.033-0.442,0.066-0.65-0.002c-0.208-0.068-0.391-0.269-0.359-0.485
							C168.176,132.857,168.241,132.764,168.317,132.682z"/>
					</g>
					<path style="fill:#34302F;" d="M175.224,137.569c0.259-0.124,0.842-0.323,0.832-0.699c-0.004-0.157-0.273-0.46-0.348-0.587
						c-0.271-0.457-0.542-0.914-0.813-1.37c-0.194-0.327,0.293-0.668,0.488-0.339c0.271,0.457,0.542,0.913,0.813,1.37
						c0.177,0.298,0.476,0.643,0.503,0.998c0.049,0.635-0.822,0.969-1.277,1.186C175.077,138.293,174.883,137.732,175.224,137.569z"
						/>
					<path style="fill:#34302F;" d="M172.511,138.978c0.769,0.675,1.477,1.079,2.522,0.958c0.936-0.109,1.807-0.441,2.46-1.14
						c0.263-0.282,0.671,0.156,0.41,0.436c-0.8,0.856-1.943,1.264-3.104,1.322c-1.129,0.057-1.906-0.449-2.724-1.167
						C171.785,139.133,172.224,138.726,172.511,138.978z"/>
				</g>
				<g>
					<path style="fill:#DCDADB;" d="M180.694,157.988c6.434,4.499,10.093,12.095,13.54,19.296
						c17.781,37.159,37.627,73.299,59.402,108.174c-3.815,3.579-8.43,7.301-13.945,10.754
						c-18.087,11.324-36.242,13.735-47.187,14.176c-14.455-92.794-21.951-130.484-25.177-135.545
						c-0.272-0.427-2.243-3.896-2.88-8.67c-0.403-3.024,0.153-6.307,2.146-8.474C170.071,153.917,176.398,154.984,180.694,157.988z"
						/>
				</g>
				<g>
					<path style="fill:#FFFFFF;" d="M140.639,438.497l-11.389,3.623l-0.692,8.757l39.352-1.03
						C167.91,449.847,165.311,445.862,140.639,438.497z"/>
					<polygon style="fill:#292136;" points="167.91,449.847 128.558,450.877 128.327,453.796 167.614,451.733 					"/>
					<g>
						<g>
							<path style="fill:#292136;" d="M143.638,438.993c-1.205,1.335-1.966,2.966-2.891,4.491c-0.346,0.571,0.548,1.092,0.894,0.522
								c0.876-1.444,1.587-3.017,2.729-4.281c0.187-0.207,0.205-0.527,0-0.732C144.179,438.803,143.826,438.785,143.638,438.993
								L143.638,438.993z"/>
						</g>
					</g>
					<g>
						<g>
							<path style="fill:#292136;" d="M146.147,439.568c-1.205,1.335-1.966,2.966-2.891,4.491c-0.346,0.571,0.548,1.092,0.894,0.522
								c0.876-1.444,1.588-3.017,2.729-4.281c0.187-0.207,0.205-0.527,0-0.732C146.689,439.378,146.335,439.36,146.147,439.568
								L146.147,439.568z"/>
						</g>
					</g>
					<g>
						<g>
							<path style="fill:#292136;" d="M148.908,440.32c-1.205,1.335-1.965,2.966-2.891,4.491c-0.347,0.571,0.548,1.092,0.894,0.523
								c0.876-1.444,1.588-3.017,2.729-4.281c0.187-0.207,0.205-0.527,0-0.732C149.449,440.13,149.096,440.112,148.908,440.32
								L148.908,440.32z"/>
						</g>
					</g>
				</g>
				<path style="fill:#4BB9BB;" d="M160.268,444.842c7.024-49.591,14.049-99.181,21.073-148.772
					c-0.921,49.591-1.842,99.181-2.763,148.772h35.166c2.121-30.745,8.042-142.029-11.529-210.709c0,0-13.812,6.876-38.069,1.817
					c0,0-21.87,24.232-25.183,55.034c-2.108,19.603-10.817,132.884-12.424,153.858H160.268z"/>
				<g>
					<g>
						<path style="fill:#4BB9BB;" d="M280.677,162.995c-5.212,4.312-10.424,8.624-15.636,12.936
							c-1.977-3.083-3.647-6.363-4.975-9.775c6.429-3.269,11.085-9.806,12.073-16.951c0.225-1.628,0.293-3.35,1.144-4.757
							c0.96-1.587,2.736-2.473,4.466-3.142c7.228-2.796,15.353-3.219,22.833-1.19c0.218,0.059,0.463,0.144,0.549,0.353
							c0.149,0.364-0.296,0.678-0.665,0.814c-2.846,1.054-5.886,1.579-8.921,1.541c-1.47-0.019-3.147-0.092-4.167,0.967
							c-0.546,0.567-0.784,1.356-0.975,2.12c-0.544,2.174-0.857,4.405-0.934,6.644c-0.067,1.954,0.034,3.981-0.72,5.785
							C283.946,160.262,282.282,161.667,280.677,162.995z"/>
					</g>
					<g>
						<path style="fill:#4BB9BB;" d="M298.057,147.641c0.537,0.342,1.148,0.887,0.945,1.491c-0.233,0.693-1.222,0.639-1.927,0.446
							c-4.63-1.266-9.26-2.531-13.89-3.797c0.906-0.308,1.44-1.215,1.95-2.026c0.51-0.81,1.198-1.663,2.152-1.733
							c0.574-0.042,1.123,0.215,1.638,0.471C292.057,144.045,295.107,145.764,298.057,147.641z"/>
					</g>
					<g>
						<path style="fill:#4BB9BB;" d="M293.808,154.449c0.599-0.375,1.378-0.725,1.457-1.427c0.078-0.694-0.634-1.239-1.319-1.372
							c-1.276-0.249-2.56,0.383-3.61,1.15c-1.05,0.767-2.004,1.701-3.202,2.206c-1.822,0.769-3.903,0.433-5.859,0.722
							c-2.476,0.365-4.777,1.796-6.199,3.855c-1.422,2.059-1.945,4.717-1.41,7.162c4.395-4.176,12.341-2.863,16.288-7.465
							C291.305,157.705,292.049,155.55,293.808,154.449z"/>
					</g>
				</g>
				<g>
					<path style="fill:#DCDADB;" d="M264.671,156.625c-2.855,2.423-27.228,22.454-56.193,14.727
						c-11.138-2.971-19.029-9-23.698-13.364c-4.144,10.043-8.889,20.512-14.335,31.286c-2.557,5.059-5.148,9.945-7.753,14.658
						c6.604,0.821,15.982,1.813,27.277,2.416c15.708,0.838,27.25,1.453,37.076-0.075c9.06-1.409,27.878-6.385,48.144-29.108
						C271.682,170.319,268.176,163.472,264.671,156.625z"/>
				</g>
				<g>
					<path style="fill:#3DA5A5;" d="M204.455,241.154c-19.248,3.422-40.6,5.509-43.756-2.084
						c-2.187-5.263,5.873-11.55,10.937-22.387c5.62-12.027,8.137-30.917-4.28-61.399c1.237-0.409,3.119-0.884,5.424-0.88
						c0,0,4.914,0.007,9.958,3.093c10.335,6.323,15.465,28.044,15.465,28.044C201.132,197.94,204.409,216.728,204.455,241.154z"/>
				</g>
				<g>
					<path style="fill:#DCDADB;" d="M182.446,168.161c-0.802-4.929-3.567-11.194-8.37-12.978
						c-4.948-1.839-10.943,0.167-15.508,2.359c-4.408,2.116-7.439,3.462-9.114,8.754c-2.488,7.859-11.121,107.015-20.441,141.856
						c22.525,0.746,45.05,1.491,67.576,2.237c-1.389-16.469-3.29-39.092-4.679-55.562
						C189.465,225.835,187.09,196.687,182.446,168.161z"/>
				</g>
				<g>
					<path style="fill:#E8E8E9;" d="M175.231,198.722c1.322-21.077,2.498-39.848-5.755-43.701
						c-7.402-3.456-21.577,5.465-26.895,17.245c-2.082,4.613-2.477,8.935-2.477,11.835c-0.575,6.199-1.905,22.589-0.387,38.02
						c11.079-2.862,22.355-5.138,33.826-7.001C174.235,210.296,174.851,204.79,175.231,198.722z"/>
					<path style="fill:#E8E8E9;" d="M223.819,204.298c-19.157,1.591-38.384,1.703-57.485,0.347
						c-8.155,6.717-17.098,12.278-26.301,17.505c8.563,2.366,19.36,4.47,31.903,4.912c22.544,0.794,40.85-4.132,52.602-8.405
						C224.298,213.87,224.058,209.084,223.819,204.298z"/>
				</g>
				<g>
					<rect x="163.703" y="265.318" style="fill:#E8E8E9;" width="25.446" height="5.822"/>
				</g>
				<g>
					<path style="fill:#FFFFFF;" d="M266.2,181.226c-0.186,0-0.368-0.091-0.476-0.26l-9.039-14.108
						c-0.168-0.262-0.092-0.611,0.171-0.779c0.262-0.169,0.611-0.093,0.779,0.171l9.039,14.108c0.168,0.262,0.092,0.611-0.171,0.78
						C266.409,181.197,266.304,181.226,266.2,181.226z"/>
				</g>
				<path style="fill:#6FA7D2;" d="M166.884,144.509c0.802,1.941,3.994,3.358,7.766,3.358c3.417,0,5.405-0.771,6.987-2.679
					c1.632-1.967,1.199-6.983,1.199-6.983s-3.372-2.496-6.04-2.238c-3.572,0.348-5.869,3.341-9.369,2.496
					C166.323,138.197,166.514,143.615,166.884,144.509z"/>
				<path style="fill:#6FA7D2;" d="M167.427,138.463c0.778,0.506,0.597,2.005-0.261,1.482c-2.866-1.74-4.196-5.579-4.196-5.579
					l-0.31-1.115C162.66,133.251,164.44,136.523,167.427,138.463z"/>
				<path style="fill:#6FA7D2;" d="M167.115,143.5c1.419,0.845,2.849,3.231,0,1.426c-2.849-1.805-4.972-5.903-5.376-6.329
					c-0.404-0.426-0.446-1.315-0.446-1.315S163.648,141.434,167.115,143.5z"/>
				<path style="fill:none;stroke:#2C8FC5;stroke-width:0.4927;stroke-linecap:round;stroke-miterlimit:10;" d="M178.246,141.401
					c-2.206,2.465-5.441,2.195-5.441,2.195"/>
				<g id="XMLID_2_">
					<path id="XMLID_90_" style="fill:#EFF1F1;" d="M283.254,137l10.948,14.281c0,0-0.331,0.832-1.533,1.754
						c-1.202,0.921-2.073,1.011-2.073,1.011l-10.948-14.281L283.254,137z"/>
					<g id="XMLID_78_">
						<path id="XMLID_80_" style="fill:#50FFFF;" d="M289.19,144.784l5.012,6.497c0,0-0.331,0.832-1.533,1.754
							c-1.202,0.921-2.073,1.011-2.073,1.011l-5.012-6.497L289.19,144.784z"/>
					</g>
					<path id="XMLID_73_" style="fill:#EFF1F1;" d="M292.442,153.361l0.618-0.474c0.012,0.001,0.019,0.002,0.031,0.004l1.353,1.764
						c-0.002,0.012-0.002,0.019-0.004,0.031l-0.619,0.475c-0.012-0.002-0.018-0.002-0.03-0.004l-1.353-1.765
						C292.439,153.379,292.44,153.373,292.442,153.361z"/>
					
						<linearGradient id="XMLID_00000116946559556400853240000016747939433309703331_" gradientUnits="userSpaceOnUse" x1="-10753.6533" y1="2426.2056" x2="-10753.6533" y2="2425.3826" gradientTransform="matrix(-0.6085 -0.7936 0.7936 -0.6085 -8175.124 -6903.5596)">
						<stop  offset="0" style="stop-color:#000000"/>
						<stop  offset="0.0485" style="stop-color:#BBBEC0"/>
						<stop  offset="0.2388" style="stop-color:#FFFFFF"/>
						<stop  offset="0.6754" style="stop-color:#D0D3D3"/>
						<stop  offset="0.7985" style="stop-color:#FFFFFF"/>
						<stop  offset="0.9627" style="stop-color:#BBBEC0"/>
						<stop  offset="1" style="stop-color:#000000"/>
					</linearGradient>
					<path id="XMLID_72_" style="opacity:0.4;fill:url(#XMLID_00000116946559556400853240000016747939433309703331_);" d="
						M292.442,153.361l0.618-0.474c0.012,0.001,0.019,0.002,0.031,0.004l1.353,1.764c-0.002,0.012-0.002,0.019-0.004,0.031
						l-0.619,0.475c-0.012-0.002-0.018-0.002-0.03-0.004l-1.353-1.765C292.439,153.379,292.44,153.373,292.442,153.361z"/>
					
						<linearGradient id="XMLID_00000044886288985155439530000012431867529477291936_" gradientUnits="userSpaceOnUse" x1="-10754.7871" y1="2425.7939" x2="-10752.5205" y2="2425.7939" gradientTransform="matrix(-0.6085 -0.7936 0.7936 -0.6085 -8175.124 -6903.5596)">
						<stop  offset="0" style="stop-color:#000000"/>
						<stop  offset="0.0299" style="stop-color:#FFFFFF"/>
						<stop  offset="0.8843" style="stop-color:#FFFFFF"/>
						<stop  offset="1" style="stop-color:#000000"/>
					</linearGradient>
					<path id="XMLID_71_" style="opacity:0.4;fill:url(#XMLID_00000044886288985155439530000012431867529477291936_);" d="
						M292.442,153.361l0.618-0.474c0.012,0.001,0.019,0.002,0.031,0.004l1.353,1.764c-0.002,0.012-0.002,0.019-0.004,0.031
						l-0.619,0.475c-0.012-0.002-0.018-0.002-0.03-0.004l-1.353-1.765C292.439,153.379,292.44,153.373,292.442,153.361z"/>
					<polygon id="XMLID_70_" style="fill:#D4D3D3;" points="276.042,128.901 282.734,137.284 280.138,139.273 273.883,130.555 					
						"/>
					<path id="XMLID_67_" style="fill:#D4D3D3;" d="M292.669,153.035c-0.142,0.109-0.279,0.206-0.412,0.293l0.125,0.163
						c0.036,0.047,0.104,0.056,0.151,0.02l0.649-0.498c0.047-0.036,0.056-0.103,0.02-0.151l-0.126-0.164
						C292.953,152.808,292.818,152.921,292.669,153.035z"/>
					<path id="XMLID_65_" style="fill:#EFF1F1;" d="M284.437,135.978c0.085,0.111,0.063,0.269-0.047,0.354l-5.529,4.238
						c-0.11,0.085-0.269,0.064-0.354-0.046c-0.085-0.111-0.064-0.269,0.047-0.354l5.529-4.238
						C284.193,135.846,284.352,135.867,284.437,135.978z"/>
					<path id="XMLID_63_" style="fill:#EFF1F1;" d="M276.784,128.303c0.063,0.082,0.059,0.191-0.007,0.242l-3.354,2.571
						c-0.067,0.052-0.173,0.026-0.236-0.056c-0.063-0.082-0.06-0.191,0.007-0.242l3.354-2.571
						C276.615,128.196,276.72,128.221,276.784,128.303z"/>
					
						<linearGradient id="XMLID_00000038380168115785041170000012440462525846123904_" gradientUnits="userSpaceOnUse" x1="-10749.1465" y1="2427.0425" x2="-10748.9053" y2="2427.0425" gradientTransform="matrix(-0.6085 -0.7936 0.7936 -0.6085 -8175.124 -6903.5596)">
						<stop  offset="0.2687" style="stop-color:#FFFFFF"/>
						<stop  offset="0.4664" style="stop-color:#000000"/>
						<stop  offset="0.5336" style="stop-color:#000000"/>
						<stop  offset="0.7276" style="stop-color:#FFFFFF"/>
					</linearGradient>
					<polygon id="XMLID_61_" style="opacity:0.6;fill:url(#XMLID_00000038380168115785041170000012440462525846123904_);" points="
						292.355,148.872 292.502,149.063 290.876,150.31 290.729,150.119 					"/>
					
						<linearGradient id="XMLID_00000145746103405966303850000016841551733697769663_" gradientUnits="userSpaceOnUse" x1="-10746.9209" y1="2427.0427" x2="-10746.6787" y2="2427.0427" gradientTransform="matrix(-0.6085 -0.7936 0.7936 -0.6085 -8175.124 -6903.5596)">
						<stop  offset="0.2687" style="stop-color:#FFFFFF"/>
						<stop  offset="0.4664" style="stop-color:#000000"/>
						<stop  offset="0.5336" style="stop-color:#000000"/>
						<stop  offset="0.7276" style="stop-color:#FFFFFF"/>
					</linearGradient>
					<polygon id="XMLID_60_" style="opacity:0.6;fill:url(#XMLID_00000145746103405966303850000016841551733697769663_);" points="
						291.001,147.105 291.147,147.297 289.521,148.543 289.375,148.351 					"/>
					
						<linearGradient id="XMLID_00000127757188748547932210000005354833885026433175_" gradientUnits="userSpaceOnUse" x1="-10751.3496" y1="2427.0422" x2="-10751.1084" y2="2427.0422" gradientTransform="matrix(-0.6085 -0.7936 0.7936 -0.6085 -8175.124 -6903.5596)">
						<stop  offset="0.2687" style="stop-color:#FFFFFF"/>
						<stop  offset="0.4664" style="stop-color:#000000"/>
						<stop  offset="0.5336" style="stop-color:#000000"/>
						<stop  offset="0.7276" style="stop-color:#FFFFFF"/>
					</linearGradient>
					<polygon id="XMLID_59_" style="opacity:0.6;fill:url(#XMLID_00000127757188748547932210000005354833885026433175_);" points="
						293.696,150.621 293.842,150.812 292.217,152.058 292.07,151.867 					"/>
					
						<linearGradient id="XMLID_00000106110082401130577520000003093250155879495081_" gradientUnits="userSpaceOnUse" x1="-10750.9092" y1="2427.5156" x2="-10750.668" y2="2427.5156" gradientTransform="matrix(-0.6085 -0.7936 0.7936 -0.6085 -8175.124 -6903.5596)">
						<stop  offset="0.2687" style="stop-color:#FFFFFF"/>
						<stop  offset="0.4664" style="stop-color:#000000"/>
						<stop  offset="0.5336" style="stop-color:#000000"/>
						<stop  offset="0.7276" style="stop-color:#FFFFFF"/>
					</linearGradient>
					<polygon id="XMLID_58_" style="opacity:0.6;fill:url(#XMLID_00000106110082401130577520000003093250155879495081_);" points="
						293.427,150.271 293.574,150.462 292.7,151.133 292.553,150.941 					"/>
					
						<linearGradient id="XMLID_00000015352352152586961980000008559869916911308176_" gradientUnits="userSpaceOnUse" x1="-10750.4688" y1="2427.5159" x2="-10750.2275" y2="2427.5159" gradientTransform="matrix(-0.6085 -0.7936 0.7936 -0.6085 -8175.124 -6903.5596)">
						<stop  offset="0.2687" style="stop-color:#FFFFFF"/>
						<stop  offset="0.4664" style="stop-color:#000000"/>
						<stop  offset="0.5336" style="stop-color:#000000"/>
						<stop  offset="0.7276" style="stop-color:#FFFFFF"/>
					</linearGradient>
					<polygon id="XMLID_53_" style="opacity:0.6;fill:url(#XMLID_00000015352352152586961980000008559869916911308176_);" points="
						293.159,149.921 293.306,150.113 292.432,150.783 292.285,150.592 					"/>
					
						<linearGradient id="XMLID_00000052805621427987365060000009729386824406592394_" gradientUnits="userSpaceOnUse" x1="-10750.0283" y1="2427.5159" x2="-10749.7871" y2="2427.5159" gradientTransform="matrix(-0.6085 -0.7936 0.7936 -0.6085 -8175.124 -6903.5596)">
						<stop  offset="0.2687" style="stop-color:#FFFFFF"/>
						<stop  offset="0.4664" style="stop-color:#000000"/>
						<stop  offset="0.5336" style="stop-color:#000000"/>
						<stop  offset="0.7276" style="stop-color:#FFFFFF"/>
					</linearGradient>
					<polygon id="XMLID_52_" style="opacity:0.6;fill:url(#XMLID_00000052805621427987365060000009729386824406592394_);" points="
						292.891,149.572 293.038,149.763 292.164,150.433 292.017,150.242 					"/>
					
						<linearGradient id="XMLID_00000079453075583620265860000004334988273714184615_" gradientUnits="userSpaceOnUse" x1="-10749.5869" y1="2427.5159" x2="-10749.3457" y2="2427.5159" gradientTransform="matrix(-0.6085 -0.7936 0.7936 -0.6085 -8175.124 -6903.5596)">
						<stop  offset="0.2687" style="stop-color:#FFFFFF"/>
						<stop  offset="0.4664" style="stop-color:#000000"/>
						<stop  offset="0.5336" style="stop-color:#000000"/>
						<stop  offset="0.7276" style="stop-color:#FFFFFF"/>
					</linearGradient>
					<polygon id="XMLID_51_" style="opacity:0.6;fill:url(#XMLID_00000079453075583620265860000004334988273714184615_);" points="
						292.623,149.222 292.77,149.413 291.896,150.083 291.749,149.892 					"/>
					
						<linearGradient id="XMLID_00000096747447117598396210000006212280390129190533_" gradientUnits="userSpaceOnUse" x1="-10748.7021" y1="2427.5159" x2="-10748.46" y2="2427.5159" gradientTransform="matrix(-0.6085 -0.7936 0.7936 -0.6085 -8175.124 -6903.5596)">
						<stop  offset="0.2687" style="stop-color:#FFFFFF"/>
						<stop  offset="0.4664" style="stop-color:#000000"/>
						<stop  offset="0.5336" style="stop-color:#000000"/>
						<stop  offset="0.7276" style="stop-color:#FFFFFF"/>
					</linearGradient>
					<polygon id="XMLID_50_" style="opacity:0.6;fill:url(#XMLID_00000096747447117598396210000006212280390129190533_);" points="
						292.084,148.519 292.231,148.71 291.357,149.38 291.21,149.189 					"/>
					
						<linearGradient id="XMLID_00000155864392302667633800000004453732673985534909_" gradientUnits="userSpaceOnUse" x1="-10748.2559" y1="2427.5161" x2="-10748.0146" y2="2427.5161" gradientTransform="matrix(-0.6085 -0.7936 0.7936 -0.6085 -8175.124 -6903.5596)">
						<stop  offset="0.2687" style="stop-color:#FFFFFF"/>
						<stop  offset="0.4664" style="stop-color:#000000"/>
						<stop  offset="0.5336" style="stop-color:#000000"/>
						<stop  offset="0.7276" style="stop-color:#FFFFFF"/>
					</linearGradient>
					<polygon id="XMLID_49_" style="opacity:0.6;fill:url(#XMLID_00000155864392302667633800000004453732673985534909_);" points="
						291.813,148.165 291.96,148.356 291.086,149.027 290.939,148.836 					"/>
					
						<linearGradient id="XMLID_00000103982267966385583670000009452258691753382537_" gradientUnits="userSpaceOnUse" x1="-10747.8105" y1="2427.5161" x2="-10747.5693" y2="2427.5161" gradientTransform="matrix(-0.6085 -0.7936 0.7936 -0.6085 -8175.124 -6903.5596)">
						<stop  offset="0.2687" style="stop-color:#FFFFFF"/>
						<stop  offset="0.4664" style="stop-color:#000000"/>
						<stop  offset="0.5336" style="stop-color:#000000"/>
						<stop  offset="0.7276" style="stop-color:#FFFFFF"/>
					</linearGradient>
					<polygon id="XMLID_48_" style="opacity:0.6;fill:url(#XMLID_00000103982267966385583670000009452258691753382537_);" points="
						291.543,147.812 291.689,148.003 290.815,148.674 290.668,148.482 					"/>
					
						<linearGradient id="XMLID_00000131329026801620665000000006605579942259785622_" gradientUnits="userSpaceOnUse" x1="-10747.3652" y1="2427.5161" x2="-10747.124" y2="2427.5161" gradientTransform="matrix(-0.6085 -0.7936 0.7936 -0.6085 -8175.124 -6903.5596)">
						<stop  offset="0.2687" style="stop-color:#FFFFFF"/>
						<stop  offset="0.4664" style="stop-color:#000000"/>
						<stop  offset="0.5336" style="stop-color:#000000"/>
						<stop  offset="0.7276" style="stop-color:#FFFFFF"/>
					</linearGradient>
					<polygon id="XMLID_47_" style="opacity:0.6;fill:url(#XMLID_00000131329026801620665000000006605579942259785622_);" points="
						291.271,147.459 291.418,147.65 290.544,148.32 290.397,148.129 					"/>
					
						<linearGradient id="XMLID_00000083774727468879364630000016592571203780964736_" gradientUnits="userSpaceOnUse" x1="-10746.4746" y1="2427.5161" x2="-10746.2334" y2="2427.5161" gradientTransform="matrix(-0.6085 -0.7936 0.7936 -0.6085 -8175.124 -6903.5596)">
						<stop  offset="0.2687" style="stop-color:#FFFFFF"/>
						<stop  offset="0.4664" style="stop-color:#000000"/>
						<stop  offset="0.5336" style="stop-color:#000000"/>
						<stop  offset="0.7276" style="stop-color:#FFFFFF"/>
					</linearGradient>
					<polygon id="XMLID_46_" style="opacity:0.6;fill:url(#XMLID_00000083774727468879364630000016592571203780964736_);" points="
						290.73,146.752 290.876,146.943 290.002,147.613 289.855,147.422 					"/>
					
						<linearGradient id="XMLID_00000182525724437702125340000001470041604624703896_" gradientUnits="userSpaceOnUse" x1="-10746.0303" y1="2427.5164" x2="-10745.7881" y2="2427.5164" gradientTransform="matrix(-0.6085 -0.7936 0.7936 -0.6085 -8175.124 -6903.5596)">
						<stop  offset="0.2687" style="stop-color:#FFFFFF"/>
						<stop  offset="0.4664" style="stop-color:#000000"/>
						<stop  offset="0.5336" style="stop-color:#000000"/>
						<stop  offset="0.7276" style="stop-color:#FFFFFF"/>
					</linearGradient>
					<polygon id="XMLID_44_" style="opacity:0.6;fill:url(#XMLID_00000182525724437702125340000001470041604624703896_);" points="
						290.459,146.398 290.605,146.59 289.731,147.26 289.585,147.068 					"/>
					
						<linearGradient id="XMLID_00000055682015891734544420000002510227933852647309_" gradientUnits="userSpaceOnUse" x1="-10745.585" y1="2427.5161" x2="-10745.3438" y2="2427.5161" gradientTransform="matrix(-0.6085 -0.7936 0.7936 -0.6085 -8175.124 -6903.5596)">
						<stop  offset="0.2687" style="stop-color:#FFFFFF"/>
						<stop  offset="0.4664" style="stop-color:#000000"/>
						<stop  offset="0.5336" style="stop-color:#000000"/>
						<stop  offset="0.7276" style="stop-color:#FFFFFF"/>
					</linearGradient>
					<polygon id="XMLID_43_" style="opacity:0.6;fill:url(#XMLID_00000055682015891734544420000002510227933852647309_);" points="
						290.188,146.045 290.335,146.236 289.46,146.907 289.313,146.715 					"/>
					
						<linearGradient id="XMLID_00000061460298333734642510000017586811099842637207_" gradientUnits="userSpaceOnUse" x1="-10745.1387" y1="2427.5164" x2="-10744.8984" y2="2427.5164" gradientTransform="matrix(-0.6085 -0.7936 0.7936 -0.6085 -8175.124 -6903.5596)">
						<stop  offset="0.2687" style="stop-color:#FFFFFF"/>
						<stop  offset="0.4664" style="stop-color:#000000"/>
						<stop  offset="0.5336" style="stop-color:#000000"/>
						<stop  offset="0.7276" style="stop-color:#FFFFFF"/>
					</linearGradient>
					<polygon id="XMLID_42_" style="opacity:0.6;fill:url(#XMLID_00000061460298333734642510000017586811099842637207_);" points="
						289.917,145.692 290.064,145.883 289.189,146.553 289.043,146.362 					"/>
					
						<linearGradient id="XMLID_00000108282713390673294430000015828410329161478583_" gradientUnits="userSpaceOnUse" x1="-10744.249" y1="2427.5166" x2="-10744.0068" y2="2427.5166" gradientTransform="matrix(-0.6085 -0.7936 0.7936 -0.6085 -8175.124 -6903.5596)">
						<stop  offset="0.2687" style="stop-color:#FFFFFF"/>
						<stop  offset="0.4664" style="stop-color:#000000"/>
						<stop  offset="0.5336" style="stop-color:#000000"/>
						<stop  offset="0.7276" style="stop-color:#FFFFFF"/>
					</linearGradient>
					<polygon id="XMLID_38_" style="opacity:0.6;fill:url(#XMLID_00000108282713390673294430000015828410329161478583_);" points="
						289.375,144.985 289.522,145.176 288.648,145.846 288.501,145.655 					"/>
					
						<linearGradient id="XMLID_00000002345362112716729410000018313455605861487749_" gradientUnits="userSpaceOnUse" x1="-10743.8037" y1="2427.5166" x2="-10743.5625" y2="2427.5166" gradientTransform="matrix(-0.6085 -0.7936 0.7936 -0.6085 -8175.124 -6903.5596)">
						<stop  offset="0.2687" style="stop-color:#FFFFFF"/>
						<stop  offset="0.4664" style="stop-color:#000000"/>
						<stop  offset="0.5336" style="stop-color:#000000"/>
						<stop  offset="0.7276" style="stop-color:#FFFFFF"/>
					</linearGradient>
					<polygon id="XMLID_37_" style="opacity:0.6;fill:url(#XMLID_00000002345362112716729410000018313455605861487749_);" points="
						289.105,144.631 289.251,144.823 288.377,145.493 288.23,145.302 					"/>
					
						<linearGradient id="XMLID_00000126308331108164988970000009415914890416836752_" gradientUnits="userSpaceOnUse" x1="-10743.3584" y1="2427.5166" x2="-10743.1172" y2="2427.5166" gradientTransform="matrix(-0.6085 -0.7936 0.7936 -0.6085 -8175.124 -6903.5596)">
						<stop  offset="0.2687" style="stop-color:#FFFFFF"/>
						<stop  offset="0.4664" style="stop-color:#000000"/>
						<stop  offset="0.5336" style="stop-color:#000000"/>
						<stop  offset="0.7276" style="stop-color:#FFFFFF"/>
					</linearGradient>
					<polygon id="XMLID_36_" style="opacity:0.6;fill:url(#XMLID_00000126308331108164988970000009415914890416836752_);" points="
						288.834,144.278 288.98,144.47 288.106,145.14 287.959,144.949 					"/>
					
						<linearGradient id="XMLID_00000147914382796406263290000011109439671764421044_" gradientUnits="userSpaceOnUse" x1="-10742.9131" y1="2427.5166" x2="-10742.6719" y2="2427.5166" gradientTransform="matrix(-0.6085 -0.7936 0.7936 -0.6085 -8175.124 -6903.5596)">
						<stop  offset="0.2687" style="stop-color:#FFFFFF"/>
						<stop  offset="0.4664" style="stop-color:#000000"/>
						<stop  offset="0.5336" style="stop-color:#000000"/>
						<stop  offset="0.7276" style="stop-color:#FFFFFF"/>
					</linearGradient>
					<polygon id="XMLID_35_" style="opacity:0.6;fill:url(#XMLID_00000147914382796406263290000011109439671764421044_);" points="
						288.563,143.925 288.709,144.116 287.835,144.787 287.688,144.595 					"/>
					
						<linearGradient id="XMLID_00000069358004809103136260000005045583546725081742_" gradientUnits="userSpaceOnUse" x1="-10742.0225" y1="2427.5166" x2="-10741.7813" y2="2427.5166" gradientTransform="matrix(-0.6085 -0.7936 0.7936 -0.6085 -8175.124 -6903.5596)">
						<stop  offset="0.2687" style="stop-color:#FFFFFF"/>
						<stop  offset="0.4664" style="stop-color:#000000"/>
						<stop  offset="0.5336" style="stop-color:#000000"/>
						<stop  offset="0.7276" style="stop-color:#FFFFFF"/>
					</linearGradient>
					<polygon id="XMLID_34_" style="opacity:0.6;fill:url(#XMLID_00000069358004809103136260000005045583546725081742_);" points="
						288.021,143.218 288.167,143.409 287.293,144.08 287.147,143.888 					"/>
					
						<linearGradient id="XMLID_00000154425598054877400890000011904230912845538956_" gradientUnits="userSpaceOnUse" x1="-10741.5771" y1="2427.5166" x2="-10741.3359" y2="2427.5166" gradientTransform="matrix(-0.6085 -0.7936 0.7936 -0.6085 -8175.124 -6903.5596)">
						<stop  offset="0.2687" style="stop-color:#FFFFFF"/>
						<stop  offset="0.4664" style="stop-color:#000000"/>
						<stop  offset="0.5336" style="stop-color:#000000"/>
						<stop  offset="0.7276" style="stop-color:#FFFFFF"/>
					</linearGradient>
					<polygon id="XMLID_33_" style="opacity:0.6;fill:url(#XMLID_00000154425598054877400890000011904230912845538956_);" points="
						287.75,142.865 287.897,143.056 287.022,143.726 286.875,143.535 					"/>
					
						<linearGradient id="XMLID_00000007403688809992004430000008388955161457966222_" gradientUnits="userSpaceOnUse" x1="-10741.1318" y1="2427.5166" x2="-10740.8906" y2="2427.5166" gradientTransform="matrix(-0.6085 -0.7936 0.7936 -0.6085 -8175.124 -6903.5596)">
						<stop  offset="0.2687" style="stop-color:#FFFFFF"/>
						<stop  offset="0.4664" style="stop-color:#000000"/>
						<stop  offset="0.5336" style="stop-color:#000000"/>
						<stop  offset="0.7276" style="stop-color:#FFFFFF"/>
					</linearGradient>
					<polygon id="XMLID_32_" style="opacity:0.6;fill:url(#XMLID_00000007403688809992004430000008388955161457966222_);" points="
						287.479,142.511 287.625,142.703 286.751,143.373 286.605,143.182 					"/>
					
						<linearGradient id="XMLID_00000111880631609510356200000017874694595267651730_" gradientUnits="userSpaceOnUse" x1="-10740.6865" y1="2427.5168" x2="-10740.4453" y2="2427.5168" gradientTransform="matrix(-0.6085 -0.7936 0.7936 -0.6085 -8175.124 -6903.5596)">
						<stop  offset="0.2687" style="stop-color:#FFFFFF"/>
						<stop  offset="0.4664" style="stop-color:#000000"/>
						<stop  offset="0.5336" style="stop-color:#000000"/>
						<stop  offset="0.7276" style="stop-color:#FFFFFF"/>
					</linearGradient>
					<polygon id="XMLID_31_" style="opacity:0.6;fill:url(#XMLID_00000111880631609510356200000017874694595267651730_);" points="
						287.208,142.158 287.355,142.349 286.48,143.02 286.333,142.828 					"/>
					
						<linearGradient id="XMLID_00000111186222087393200260000000471143036964577422_" gradientUnits="userSpaceOnUse" x1="-10744.6943" y1="2427.043" x2="-10744.4531" y2="2427.043" gradientTransform="matrix(-0.6085 -0.7936 0.7936 -0.6085 -8175.124 -6903.5596)">
						<stop  offset="0.2687" style="stop-color:#FFFFFF"/>
						<stop  offset="0.4664" style="stop-color:#000000"/>
						<stop  offset="0.5336" style="stop-color:#000000"/>
						<stop  offset="0.7276" style="stop-color:#FFFFFF"/>
					</linearGradient>
					<polygon id="XMLID_30_" style="opacity:0.6;fill:url(#XMLID_00000111186222087393200260000000471143036964577422_);" points="
						289.646,145.338 289.793,145.53 288.167,146.776 288.021,146.584 					"/>
					
						<linearGradient id="XMLID_00000174597172905568925710000004220928942468721817_" gradientUnits="userSpaceOnUse" x1="-10742.4678" y1="2427.0432" x2="-10742.2266" y2="2427.0432" gradientTransform="matrix(-0.6085 -0.7936 0.7936 -0.6085 -8175.124 -6903.5596)">
						<stop  offset="0.2687" style="stop-color:#FFFFFF"/>
						<stop  offset="0.4664" style="stop-color:#000000"/>
						<stop  offset="0.5336" style="stop-color:#000000"/>
						<stop  offset="0.7276" style="stop-color:#FFFFFF"/>
					</linearGradient>
					<polygon id="XMLID_29_" style="opacity:0.6;fill:url(#XMLID_00000174597172905568925710000004220928942468721817_);" points="
						288.292,143.572 288.438,143.763 286.813,145.009 286.666,144.818 					"/>
					
						<linearGradient id="XMLID_00000002369885088081751080000014033944720734950029_" gradientUnits="userSpaceOnUse" x1="-10740.2412" y1="2427.0435" x2="-10740" y2="2427.0435" gradientTransform="matrix(-0.6085 -0.7936 0.7936 -0.6085 -8175.124 -6903.5596)">
						<stop  offset="0.2687" style="stop-color:#FFFFFF"/>
						<stop  offset="0.4664" style="stop-color:#000000"/>
						<stop  offset="0.5336" style="stop-color:#000000"/>
						<stop  offset="0.7276" style="stop-color:#FFFFFF"/>
					</linearGradient>
					<polygon id="XMLID_28_" style="opacity:0.6;fill:url(#XMLID_00000002369885088081751080000014033944720734950029_);" points="
						286.937,141.805 287.084,141.996 285.458,143.242 285.311,143.051 					"/>
					<polygon id="XMLID_27_" style="fill:#D4D3D3;" points="294.803,156.053 295.045,155.868 302.867,166.072 302.032,165.483 					
						"/>
					<path id="XMLID_26_" style="fill:#FFFFFF;" d="M294.667,156.097l0.455-0.349c0.007-0.005,0.017-0.004,0.022,0.003l0.169,0.22
						c0.005,0.007,0.004,0.017-0.003,0.022l-0.455,0.349c-0.007,0.005-0.016,0.004-0.022-0.003l-0.169-0.22
						C294.659,156.112,294.66,156.102,294.667,156.097z"/>
					<polygon id="XMLID_24_" style="fill:#00AFB9;" points="293.718,155.238 294.539,154.609 294.548,154.61 295.369,155.681 
						295.368,155.69 294.546,156.319 294.538,156.318 293.717,155.247 					"/>
					<path id="XMLID_22_" style="fill:#00AEC4;" d="M293.41,154.996l0.975-0.747c0.011-0.008,0.026-0.006,0.034,0.004l0.799,1.042
						c0.008,0.011,0.006,0.026-0.004,0.034l-0.975,0.747c-0.01,0.008-0.026,0.006-0.034-0.004l-0.799-1.042
						C293.398,155.02,293.4,155.004,293.41,154.996z"/>
					<path id="XMLID_18_" style="fill:#00AFB9;" d="M292.354,153.764l1.116-0.855c0.011-0.008,0.026-0.006,0.034,0.004l1.607,2.096
						c0.008,0.011,0.006,0.026-0.005,0.034l-1.116,0.855c-0.011,0.008-0.026,0.007-0.034-0.004l-1.607-2.096
						C292.341,153.788,292.343,153.772,292.354,153.764z"/>
					<path id="XMLID_14_" style="fill:#00AFB9;" d="M292.099,153.785l1.457-1.117c0.009-0.007,0.022-0.005,0.028,0.004l0.164,0.214
						c0.007,0.009,0.005,0.022-0.003,0.029l-1.457,1.117c-0.009,0.006-0.021,0.005-0.028-0.004l-0.164-0.214
						C292.089,153.805,292.09,153.792,292.099,153.785z"/>
				</g>
			</g>
			<path style="fill:none;stroke:#000000;stroke-miterlimit:10;" d="M182.446,168.161c1.612,12.595,3.223,25.189,4.835,37.784"/>
			<path style="fill:none;stroke:#000000;stroke-miterlimit:10;" d="M224.538,219.657c-15.811,5.075-38.859,9.861-65.819,6.298
				c-6.862-0.907-13.208-2.253-19.001-3.834"/>
			<path style="fill:none;stroke:#000000;stroke-miterlimit:10;" d="M223.819,204.298"/>
			<line style="fill:none;stroke:#000000;stroke-miterlimit:10;" x1="136.189" y1="308.389" x2="196.59" y2="310.388"/>
			<path style="fill:none;stroke:#000000;stroke-miterlimit:10;" d="M213.94,306.65c0,0,28.198-7.563,39.695-21.191"/>
			<line style="fill:none;stroke:#000000;stroke-miterlimit:10;" x1="163.703" y1="271.14" x2="189.149" y2="271.14"/>
			<line style="fill:none;stroke:#000000;stroke-miterlimit:10;" x1="264.671" y1="156.625" x2="275.188" y2="177.166"/>
		</g>
	</g>
</g>
</svg>
