<?xml version="1.0" encoding="utf-8"?>
<!-- Generator: Adobe Illustrator 27.5.0, SVG Export Plug-In . SVG Version: 6.00 Build 0)  -->
<svg version="1.1" xmlns="http://www.w3.org/2000/svg" xmlns:xlink="http://www.w3.org/1999/xlink" x="0px" y="0px"
	 viewBox="0 0 1200 1200" style="enable-background:new 0 0 1200 1200;" xml:space="preserve">
<g id="Background">
	<rect x="0" y="0" style="fill:#F5F5F5;stroke:#F2F2F2;stroke-miterlimit:10;" width="1200" height="1200"/>
</g>
<g id="Graphic_Elements">
	<g>
		<path style="fill:none;stroke:#3B7E9E;stroke-width:4;stroke-miterlimit:10;" d="M1116.291,342.059
			c3.183,34.041,10.222,67.629,20.364,100.28c24.713,79.563,27.922,165.833,8.416,246.867
			c-24.371,101.247-84.038,193.637-166.297,257.499c-134.501,104.421-315.854,126.92-485.833,116.851
			c-106.591-6.314-215.917-25.16-305.697-82.961C97.466,922.793,31.193,818.752,43.812,712.723
			c5.24-44.032,33.596-84.707,44.945-127.572c13.034-49.229,8.101-101.228,2.355-151.827c-4.247-37.395-8.585-76.928,6.836-111.259
			c7.978-17.761,20.79-32.899,34.367-46.855c60.435-62.124,139.835-105.547,224.748-122.912
			c62.464-12.774,126.787-11.677,190.525-13.24c149.178-3.657,306.155-20.726,440.915,43.362
			c37.417,17.794,72.606,42.12,97.123,75.521C1102.174,280.486,1113.453,311.705,1116.291,342.059z"/>
		<g>
			
				<linearGradient id="SVGID_1_" gradientUnits="userSpaceOnUse" x1="802.0403" y1="1025.8085" x2="623.7618" y2="773.7593" gradientTransform="matrix(0.9973 0.0737 -0.0737 0.9973 65.2462 -169.7562)">
				<stop  offset="0" style="stop-color:#FCFCFC"/>
				<stop  offset="1" style="stop-color:#D4D4D4"/>
			</linearGradient>
			<path style="fill:url(#SVGID_1_);" d="M713.009,673.126c1.834-6.312,3.762-12.808,7.894-17.919
				c8.313-10.283,23.079-12.274,36.302-12.237c4.807,0.013,9.769,0.228,14.12,2.273c11.654,5.477,13.912,20.781,14.612,33.638
				c1.233,22.633,2.441,45.594-2.389,67.74c-2.687,12.317-7.196,24.15-11.69,35.929c-15.201,39.846-30.402,79.693-45.603,119.539
				c-3.424,8.975-7.225,18.458-14.987,24.117c-8.33,6.074-19.425,6.43-29.724,5.979c-8.087-0.354-16.339-1.103-23.734-4.395
				c-22.859-10.176-9.792-30.993-4.546-49.046c6.638-22.846,13.277-45.693,19.915-68.539
				C686.455,764.512,699.732,718.819,713.009,673.126z"/>
			<g>
				
					<linearGradient id="SVGID_00000137112201789690144850000010513225158651290791_" gradientUnits="userSpaceOnUse" x1="722.6195" y1="828.8307" x2="1007.1022" y2="828.8307">
					<stop  offset="0" style="stop-color:#FFFFFF"/>
					<stop  offset="1" style="stop-color:#F2F2F2"/>
				</linearGradient>
				<path style="fill:url(#SVGID_00000137112201789690144850000010513225158651290791_);" d="M1000.12,706.656
					c-2.786-7.833-6.601-15.466-12.436-21.388c-8.06-8.181-19.347-12.51-27.623-20.472c-11.789-11.342-16.151-28.703-27.686-40.304
					c-14.006-14.086-35.439-16.905-55.197-18.957c-20.964-2.177-46.673-2.143-57.532,15.92c-6.247,10.391-5.578,24.48-13.928,33.27
					c-9.7,10.21-24.428,4.246-34.487,11.776c-10.533,7.885-7.004,27.704-7.515,39.34c-5.11,116.367-12.668,234.007-41.096,347.255
					c93.144-15.993,181.808-48.673,256.155-106.393c2.909-2.259,5.783-4.563,8.635-6.892c1.312-41.68,6.42-83.553,12.842-124.609
					C1005.905,779.055,1012.38,741.129,1000.12,706.656z"/>
			</g>
			<g>
				<path style="fill:#DCDCDA;" d="M1040.128,889.184c7.457-72.213,2.769-145.687-14.041-216.316
					c-1.328-5.58-2.811-11.314-6.29-15.873c-9.608-12.593-28.523-10.699-44.233-12.72c-19.531-2.512-37.852-13.351-49.458-29.259
					c6.264,41.893-0.44,88.917-8.562,130.488c-13.505,69.123-46.714,135.731-42.294,206.021c1.054,16.762,4.257,33.305,7.492,49.786
					c0.206,1.049,0.413,2.099,0.619,3.148c33.673-15.607,65.689-34.677,95.414-57.754
					C1000.958,929.482,1021.48,910.17,1040.128,889.184z"/>
			</g>
			<g>
				<path style="fill:#DCDCDA;" d="M816.456,646.763c-0.022-2.489-0.079-5.111-1.35-7.252c-1.217-2.052-3.38-3.354-5.572-4.297
					c-15.488-6.664-34.173,1.829-44.389,15.243c-10.216,13.414-13.893,30.557-17.009,47.127
					c-4.735,25.175-8.812,50.469-12.836,75.767c-7.652,48.112-15.113,96.255-22.575,144.397c-7.24,46.71-14.479,93.42-21.718,140.13
					c42.426-5.568,84.161-14.346,124.31-27.096C820.419,902.681,816.456,775.112,816.456,646.763z"/>
			</g>
			<path style="fill:#E6E6E3;" d="M827.432,630.753c-0.908,13.983,2.058,27.887,4.612,41.666
				c13.531,72.992,15.847,147.703,12.573,221.866c-12.22-47.324-31.689-92.769-57.517-134.264c-1.749-2.81-3.602-5.955-3.007-9.211
				c0.369-2.019,1.637-3.74,2.87-5.381c5.374-7.154,10.747-14.307,16.121-21.461c3.892-5.181,7.941-10.775,8.312-17.244
				c0.898-15.653-19.465-26.115-19.265-41.792c0.061-4.836,2.149-9.386,4.196-13.768c5.593-11.972,20.488-48.909,37.513-45.867
				C831.797,613.597,828.024,621.649,827.432,630.753z"/>
			<path style="fill:#FFFFFF;" d="M901.825,592.323c-0.521,8.996,0.349,18.867,6.028,25.491c1.602,1.868,3.675,3.725,3.72,6.268
				c0.045,2.536-1.967,4.479-3.806,6.047c-15.033,12.824-30.067,25.648-45.1,38.472c-9.859-13.843-19.718-27.686-29.578-41.529
				c-0.49-0.688-0.998-1.422-1.095-2.284c-0.223-1.986,1.694-3.349,3.225-4.466c6.133-4.475,9.439-12.415,10.589-20.325
				c1.15-7.91,0.443-15.983,0.203-23.991c-0.15-5.02,0.329-10.953,4.297-13.551c2.277-1.491,5.116-1.423,7.781-1.309
				c11.259,0.481,22.518,0.962,33.777,1.443c6.195,0.265,10.318,0.26,10.895,7.476C903.356,577.52,902.255,584.9,901.825,592.323z"
				/>
			<path style="fill:#FFFFFF;" d="M797.905,445.52c-0.114-7.845,0.063-15.678,0.821-23.49c2.202-22.672,10-45.846,26.247-60.076
				c11.506-10.077,26.464-14.84,41.189-14.748c2.832,0.018,5.655,0.21,8.463,0.555c2.807-0.345,5.631-0.538,8.463-0.555
				c14.725-0.092,29.684,4.671,41.189,14.748c16.247,14.23,24.045,37.404,26.247,60.076c0.759,7.812,0.936,15.646,0.821,23.491
				c0.159,15.704-0.15,31.573-2.055,47.116c-0.515,18.277-0.394,37.36-8.512,53.251c-7.209,14.112-19.912,23.627-32.169,32.625
				c-9.849,7.231-20.641,14.761-32.476,14.023c-0.505-0.031-1.008-0.079-1.508-0.14c-0.5,0.061-1.003,0.108-1.508,0.14
				c-11.834,0.737-22.626-6.793-32.476-14.023c-12.258-8.998-24.961-18.514-32.169-32.625c-8.118-15.891-7.997-34.974-8.512-53.251
				C798.055,477.095,797.746,461.225,797.905,445.52z"/>
			
				<linearGradient id="SVGID_00000011018278578131782220000007468536445623675551_" gradientUnits="userSpaceOnUse" x1="896.4125" y1="311.8162" x2="897.2678" y2="575.2658">
				<stop  offset="0" style="stop-color:#5C5C5C"/>
				<stop  offset="1" style="stop-color:#3F3F3F"/>
			</linearGradient>
			<path style="fill:url(#SVGID_00000011018278578131782220000007468536445623675551_);" d="M896.67,411.646
				c11.1,3.452,22.638,8.381,28.889,18.182c9.618,15.081,3.109,34.916,5.561,52.635c2.222,16.057,12.029,31.432,8.975,47.352
				c-2.294,11.959-11.355,21.242-19.2,30.555c-7.845,9.313-15.201,20.841-13.043,32.825c1.651,9.169,9.337,16.942,18.487,18.696
				c9.15,1.754,19.166-2.624,24.091-10.532c3.798,9.181,13.637,15.498,23.566,15.129c9.928-0.369,19.272-7.398,22.378-16.836
				c4.054,9.852,16.551,15.256,26.506,11.461c9.955-3.795,15.683-16.147,12.15-26.198c-1.495,4.92,1.32,10.507,5.777,13.071
				c4.458,2.564,10.109,2.432,14.913,0.599c13.658-5.213,19.456-22.639,15.832-36.801s-14.291-25.407-25.547-34.734
				c-11.257-9.327-23.64-17.571-32.821-28.948c-16.522-20.473-20.435-47.991-24.935-73.912c-4.5-25.921-11.272-53.56-31.217-70.715
				c-18.683-16.07-45.072-19.44-69.712-19.077c-22.778,0.336-46.421,3.584-65.463,16.088
				c-21.377,14.037-34.296,38.114-41.321,62.704c-7.025,24.59-8.983,50.3-13.503,75.471c-4.52,25.171-12.023,50.656-28.262,70.412
				c-6.136,7.465-13.672,14.429-16.098,23.783c-3.071,11.842,3.991,25.274,15.279,29.991c11.288,4.717,25.426,0.624,32.927-9.04
				c6.946,7.271,17.558,10.848,27.489,9.263c9.931-1.584,18.903-8.284,23.242-17.356c1.052,6.43,9.794,9.48,15.433,6.216
				c5.639-3.264,7.782-10.765,6.341-17.12c-1.441-6.354-5.766-11.678-10.566-16.085s-10.197-8.156-14.728-12.839
				c-17.192-17.768-18.866-45.111-17.969-69.819c0.742-20.459,2.555-40.879,5.427-61.149c1.968-13.886,4.604-28.148,12.334-39.85
				c9.795-14.827,26.25-24.113,35.07-5.375C862.561,400.102,875.881,405.181,896.67,411.646z"/>
			
				<linearGradient id="SVGID_00000088855577219066716620000009756841720003156634_" gradientUnits="userSpaceOnUse" x1="3087.8921" y1="466.9474" x2="3175.7466" y2="466.9474" gradientTransform="matrix(-1 0 0 1 3954.9194 0)">
				<stop  offset="0" style="stop-color:#5C5C5C"/>
				<stop  offset="1" style="stop-color:#3F3F3F"/>
			</linearGradient>
			<path style="fill:url(#SVGID_00000088855577219066716620000009756841720003156634_);" d="M838.147,393.463
				c-8.515,4.373-17.366,8.816-23.276,15.801c-8.437,9.972-9.431,23.363-8.717,35.822c0.714,12.459,2.777,25.171-0.731,37.25
				c-4.487,15.45-17.896,29.301-16.031,45.171c0.898,7.64,5.318,14.56,9.88,21.086c4.561,6.525,9.445,13.082,11.462,20.552
				c2.017,7.47,0.552,16.223-5.983,21.252c2.129-6.371,0.183-13.316-3.163-19.26c-3.346-5.944-8.026-11.206-11.84-16.923
				c-9.009-13.505-12.995-29.955-9.061-45.26c2.387-9.287,7.568-18.011,8.505-27.501c0.992-10.052-2.862-19.907-5.103-29.799
				c-6.958-30.703,2.379-64.005,24.735-88.221c10.687-11.575,39.022-30.254,53.797-12.826
				C877.034,367.608,852.718,385.979,838.147,393.463z"/>
			<path style="fill:#E6E6E3;" d="M944.038,609.175c12.891,6.289,17.065,22.207,20.796,36.056
				c3.731,13.85,10.737,29.61,24.838,32.237c-12.473,9.574-25.949,17.842-40.135,24.624c5.995,6.586,11.519,13.602,16.514,20.975
				c1.407,2.077,2.812,4.289,3.072,6.784c0.32,3.077-1.144,6.027-2.567,8.774c-31.868,61.535-63.737,123.069-95.606,184.604
				c8.523-33.206,17.045-66.411,25.568-99.617c11.751-45.783,23.537-91.76,28.581-138.757c3.167-29.514-3.189-47.756-14.474-73.479
				C920.315,606.717,933.917,604.237,944.038,609.175z"/>
			
				<rect x="762.401" y="734.561" transform="matrix(0.9765 -0.2157 0.2157 0.9765 -167.7095 206.4249)" style="fill:#3B7E9E;" width="199.045" height="274.095"/>
			<path style="fill:#FFFFFF;stroke:#8D8F8C;stroke-miterlimit:10;" d="M976.42,988.147c0.029-0.776,0.047-1.598-0.339-2.272
				c-0.394-0.688-1.139-1.094-1.871-1.399c-5.614-2.341-12.08-0.737-17.68,1.638c-5.6,2.374-11.008,5.528-17.035,6.349
				c-3.494,0.476-7.042,0.14-10.553-0.197c-4.29-0.411-8.581-0.823-12.871-1.234c-0.952-0.091-1.939-0.179-2.843,0.135
				c-1.175,0.408-2.019,1.425-2.772,2.415c-4.832,6.353-8.533,13.557-10.926,21.169c-0.732,2.327-3.311,8.23-1.764,10.443
				c1.497,2.141,7.296,1.904,9.642,3.147c3.897,2.065,6.568,5.905,10.31,8.24c0.517,0.323,1.053,0.608,1.599,0.867
				c2.113,3.275,6.693,5.368,10.012,7.366c3.48,2.094,7.205,4.025,11.249,4.394c6.56,0.6,12.705-2.945,18.336-6.362
				c5.435-3.298,11.205-6.977,13.623-12.857c1.064-2.586,1.383-5.409,1.653-8.193c0.684-7.048,1.102-14.121,1.285-21.199
				C976.083,996.495,976.267,992.276,976.42,988.147z"/>
			
				<linearGradient id="SVGID_00000126322951839072404410000006338354482642931121_" gradientUnits="userSpaceOnUse" x1="765.0793" y1="940.4243" x2="586.801" y2="688.3754">
				<stop  offset="0" style="stop-color:#FCFCFC"/>
				<stop  offset="1" style="stop-color:#D4D4D4"/>
			</linearGradient>
			<path style="fill:url(#SVGID_00000126322951839072404410000006338354482642931121_);" d="M913.486,987.728
				c-0.792-1.955-2.619-3.267-4.383-4.423c-16.73-10.963-35.809-17.677-54.489-24.828c-36.469-13.961-72.157-29.961-106.844-47.895
				c-8.368-4.326-17.27-8.36-25.059-13.684c-4.629-3.164-8.608-8.232-13.815-10.439c-14.503-6.145-34.355,3.991-45.535,12.914
				c-6.223,4.967-11.845,11.143-14.244,18.735c-5.325,16.858,6.752,34.467,20.933,45.024c26.234,19.529,59.841,25.272,90.732,36.012
				l127.539,33.923c2.194,0.159,4.474,0.284,6.521-0.523c2.504-0.987,4.28-3.214,5.815-5.425
				c7.045-10.145,11.588-22.014,13.118-34.27C913.99,991.133,914.136,989.331,913.486,987.728z"/>
			<path style="fill:#FFFFFF;stroke:#8D8F8C;stroke-miterlimit:10;" d="M802.011,846.408c-3.427-1.362-6.785-2.895-10.069-4.572
				c0.325-4.117-1.296-11.174-2.619-13.874c-2.225-4.54-6.754-7.826-9.99-11.589c-4.267-4.961-15.825-23.381-18.522-29.344
				c-0.423-0.935-0.872-1.903-1.667-2.552c-0.913-0.745-2.159-0.955-3.336-0.899c-5.478,0.263-7.036,10.219-5.085,15.344
				c1.124,2.953,10.064,14.41,9.467,17.513c-0.092,0.478-0.265,0.926-0.472,1.363c-0.589-0.62-1.178-1.239-1.754-1.872
				c-3.209-3.525-6.378-7.371-10.777-9.205c-4.399-1.835-10.463-0.751-12.38,3.613c-0.77,1.752-0.771,3.755-1.464,5.539
				c-1.816,4.678-7.69,6.528-10.164,10.894c-3.619,6.388,1.51,14.916-1.487,21.618c-1.26,2.819-3.838,4.947-4.812,7.877
				c-0.544,1.635-0.542,3.395-0.534,5.119c0.015,3.437,0.029,6.874,0.044,10.311c0.017,4.073,0.076,8.324,1.952,11.94
				c4.271,8.236,15.363,9.408,24.641,9.525c13.291,0.167,26.582,0.334,39.873,0.501c2.775,0.035,4.982-0.861,7.224-2.497
				c2.242-1.636,3.789-4.035,5.204-6.423c3.367-5.681,6.32-11.725,7.487-18.224C803.938,860.016,805.633,851.93,802.011,846.408z"/>
			
				<linearGradient id="SVGID_00000168103982310301559720000005611752927008913810_" gradientUnits="userSpaceOnUse" x1="1079.6362" y1="872.0469" x2="860.8055" y2="745.705">
				<stop  offset="0" style="stop-color:#FCFCFC"/>
				<stop  offset="1" style="stop-color:#D4D4D4"/>
			</linearGradient>
			<path style="fill:url(#SVGID_00000168103982310301559720000005611752927008913810_);" d="M1072.348,671.428
				c-8.062-12.216-22.066-19.295-35.988-22.748c-11.853-3.263-32.285,0.515-39.032,9.435c-6.748,8.92-8.161,20.821-9.329,32.074
				c-6.331,60.972-12.663,121.945-18.994,182.917c-57.234-10.866-114.469-21.732-171.703-32.597
				c-13.988,15.556-21.906,36.771-21.645,57.994c76.069,30.507,152.514,61.132,232.238,79.128
				c9.057,2.044,18.337,3.934,27.544,2.815c9.208-1.118,18.477-5.731,23.141-14.003c3.598-6.382,4.078-14.07,4.471-21.443
				c4.416-82.869,8.831-165.738,13.247-248.607C1076.755,687.812,1077.035,678.53,1072.348,671.428z"/>
		</g>
		<g>
			<g>
				<path style="fill:#3B7E9E;" d="M588.326,250.271h-14.658v-13.875h-13.875v-14.658h13.875v-13.875h14.658v13.875h13.875v14.658
					h-13.875V250.271z M576.689,247.249h8.615v-13.875h13.875v-8.615h-13.875v-13.875h-8.615v13.875h-13.875v8.615h13.875V247.249z"
					/>
			</g>
			<polygon style="fill:#3B7E9E;" points="722.787,443.789 697.118,443.789 697.118,418.121 675.59,418.121 675.59,443.789 
				649.922,443.789 649.922,465.317 675.59,465.317 675.59,490.985 697.118,490.985 697.118,465.317 722.787,465.317 			"/>
			<polygon style="fill:#3B7E9E;" points="488.439,345.737 497.804,345.737 497.804,355.103 505.659,355.103 505.659,345.737 
				515.025,345.737 515.025,337.882 505.659,337.882 505.659,328.517 497.804,328.517 497.804,337.882 488.439,337.882 			"/>
			<g>
				<path style="fill:#3B7E9E;" d="M650.415,339.382c-15.492,0-28.096-12.604-28.096-28.096c0-15.493,12.604-28.097,28.096-28.097
					c15.492,0,28.096,12.604,28.096,28.097C678.511,326.778,665.907,339.382,650.415,339.382z M650.415,286.211
					c-13.826,0-25.074,11.249-25.074,25.076c0,13.826,11.249,25.074,25.074,25.074c13.826,0,25.075-11.249,25.075-25.074
					C675.489,297.459,664.24,286.211,650.415,286.211z"/>
			</g>
			
				<ellipse transform="matrix(0.9732 -0.2298 0.2298 0.9732 -114.7974 150.6098)" style="fill:#3B7E9E;" cx="589.366" cy="568.28" rx="8.37" ry="8.37"/>
			<path style="fill:#3B7E9E;" d="M759.219,334.425c0,2.719,2.204,4.923,4.923,4.923c2.719,0,4.923-2.204,4.923-4.923
				c0-2.719-2.204-4.923-4.923-4.923C761.423,329.502,759.219,331.706,759.219,334.425z"/>
		</g>
		<g>
			
				<linearGradient id="SVGID_00000069379099908745990350000005271739452524098200_" gradientUnits="userSpaceOnUse" x1="328.0709" y1="358.9866" x2="351.691" y2="640.8552">
				<stop  offset="0" style="stop-color:#5C5C5C"/>
				<stop  offset="1" style="stop-color:#3F3F3F"/>
			</linearGradient>
			<path style="fill:url(#SVGID_00000069379099908745990350000005271739452524098200_);" d="M265.392,429.219
				c-9.041,29.326-11.639,60.376-16.937,90.719c-5.298,30.343-13.827,61.146-32.536,84.742
				c-7.536,9.505-16.587,17.651-23.351,27.792c-6.764,10.14-11.098,23.223-7.508,35.054c2.497,8.23,8.663,15.53,8.154,24.162
				c-0.435,7.369-5.66,13.331-8.015,20.277c-3.727,10.99,0.266,23.663,7.555,32.405c7.288,8.742,17.382,14.22,27.492,18.795
				c78.913,35.709,170.911,26.736,250.783-6.476c14.502-6.03,28.994-13.005,40.525-24.131c11.531-11.126,19.826-27.099,18.87-43.624
				c-1.957-33.833-38.785-53.528-48.662-85.756c-6.759-22.053,0.214-45.799,4.189-68.605c7.713-44.251,3.722-90.741-11.399-132.776
				c-6.43-17.874-15.126-35.358-28.639-47.999c-17.96-16.801-43.098-23.368-66.928-21.14
				C326.012,337.608,281.786,376.045,265.392,429.219z"/>
			<path style="fill:#FFFFFF;stroke:#8D8F8C;stroke-miterlimit:10;" d="M595.178,719.073c0.805-4.955,1.559-10.288-0.666-14.788
				c-2.371-4.794-7.655-7.607-10.12-12.354c-2.904-5.594-1.242-12.32-0.559-18.586c1.069-9.803-0.462-19.711-2.692-29.316
				c-0.557-2.401-1.163-4.841-0.98-7.299c0.183-2.458,1.304-4.99,3.448-6.206c3.27-1.855,7.64,0.125,9.693,3.274
				c2.053,3.149,2.392,7.077,2.672,10.826c0.405,5.42,0.811,10.841,1.216,16.261c0.109,1.452,0.347,3.127,1.592,3.882
				c1.756,1.065,3.963-0.579,4.969-2.369c1.643-2.922,1.956-6.377,2.341-9.707c1.929-16.696,6.48-32.963,11.056-49.135
				c0.728-2.571,1.497-5.223,3.197-7.284c1.699-2.062,4.595-3.387,7.098-2.452c0.98,0.366,2.867,2.04,3.607,2.78
				c1.996,1.996,1.996-0.998,3.204-4.014c0.604-1.506,1.285-2.99,2.166-4.353c1.638-2.534,4.82-3.972,7.804-3.527
				c2.984,0.445,5.608,2.75,6.434,5.652c0.422,1.481-1.193,11.231,0.348,11.231c1.996,0,3.991-3.991,8.026-1.476
				c2.13,1.328,2.814,4.022,2.897,6.53c0.129,3.911,0.053,2.929,0.058,7.686c0.003,2.339-1.052,9.309-0.005,7.216
				c0.998-1.996,4.989-1.996,5.987,0c3.407,6.814-0.705,18.349-1.851,25.88c-1.146,7.531-3.606,14.796-5.207,22.243
				c-1.526,7.101-2.272,14.372-4.235,21.365c-1.963,6.993-5.318,13.871-11.005,18.388c-1.597,1.268-3.38,2.357-4.638,3.962
				c-1.607,2.051-2.173,4.704-2.695,7.256c-0.98,4.796-1.959,9.592-2.939,14.388c-0.325,1.591-0.7,3.279-1.848,4.428
				c-1.67,1.672-4.346,1.636-6.703,1.454c-9.341-0.72-19.012-1.619-28.147-3.777C589.751,735.018,594.043,726.058,595.178,719.073z"
				/>
			
				<linearGradient id="SVGID_00000128449599608978564810000011502668629420362647_" gradientUnits="userSpaceOnUse" x1="483.7957" y1="426.7077" x2="572.9354" y2="910.3137">
				<stop  offset="0" style="stop-color:#FCFCFC"/>
				<stop  offset="1" style="stop-color:#D4D4D4"/>
			</linearGradient>
			<path style="fill:url(#SVGID_00000128449599608978564810000011502668629420362647_);" d="M587.844,724.414
				c-14.245,48.977-24.31,72.562-44.737,119.3c-3.26-38.356-6.52-76.713-9.779-115.069c-1.237-14.558-2.588-29.528-9.181-42.566
				c-5.444-10.765-30.102-40.214-44.153-38.832c-12.097,1.19-4.24,47.326-4.014,58.779c0.947,47.938-1.474,95.943-7.252,143.54
				c-1.58,13.013-3.401,26.297-0.738,39.133c2.587,12.468,9.243,23.679,16.272,34.297c15.147,22.883,36.37,46.264,63.811,46.501
				c15.4,0.133,30.414-7.687,40.099-19.66c11.095-13.717,15.186-31.639,18.956-48.874c11.73-53.625,22.486-113.712,34.216-167.337
				L587.844,724.414z"/>
			<g>
				
					<linearGradient id="SVGID_00000097483416095695255930000009250217674686165923_" gradientUnits="userSpaceOnUse" x1="192.4878" y1="839.4308" x2="469.7656" y2="839.4308">
					<stop  offset="0" style="stop-color:#FFFFFF"/>
					<stop  offset="1" style="stop-color:#F2F2F2"/>
				</linearGradient>
				<path style="fill:url(#SVGID_00000097483416095695255930000009250217674686165923_);" d="M447.055,692.832
					c-12.859-31.878-48.977-85.986-89.513-74.319c-42.151,12.131-91.598,33.323-120.912,66.854
					c-24.238,27.725-35.62,64.564-40.559,101.057c-9.062,66.963,1.37,135.512,5.976,203.222
					c80.205,46.854,174.384,65.103,267.718,72.322c-2.266-86.745-4.533-173.49-6.799-260.235
					C462.003,764.851,460.857,727.048,447.055,692.832z"/>
			</g>
			<g>
				<path style="fill:#DCDCDA;" d="M490.06,823.034c0.001-42.396,2.466-84.757,5.746-127.026c1.47-18.947,0.664-42.51-16.368-50.94
					c-7.604-3.764-16.567-3.221-24.801-5.267c-11.995-2.98-13.681-16.547-20.803-4.393c-5.913,10.092-6.09,29.584-8.478,41.152
					c-5.748,27.846-11.497,55.692-17.245,83.538c-5.268,25.517-10.585,51.2-20.396,75.337c-3.066,7.543-6.583,14.975-8.314,22.931
					c-2.332,10.719-1.313,21.847-0.283,32.769c5.101,54.085,10.202,108.17,15.303,162.254c32.668,5.086,65.724,8.223,98.522,10.166
					c4.588,0.272,9.186,0.515,13.79,0.738c-0.897-9.129-1.794-18.257-2.691-27.386C497.053,965.776,490.058,894.508,490.06,823.034z
					"/>
			</g>
			
				<linearGradient id="SVGID_00000098928312675796535880000011333406268970234765_" gradientUnits="userSpaceOnUse" x1="309.517" y1="735.7137" x2="445.0645" y2="735.7137">
				<stop  offset="0" style="stop-color:#FFFFFF"/>
				<stop  offset="1" style="stop-color:#F2F2F2"/>
			</linearGradient>
			<path style="fill:url(#SVGID_00000098928312675796535880000011333406268970234765_);" d="M445.064,618.645
				c-7.967-17.023-29.576-18.581-45.998-19.286c-21.96-0.943-43.816-3.041-65.829-2.053c-5.177,0.232-10.697,0.71-14.782,3.899
				c-4.682,3.654-6.29,9.88-8.938,15.196c5.396,32.146,12.774,64.226,18.17,96.372c9.279,55.283,16.231,112.98,44.118,161.607
				C397.804,791.356,425.212,703.349,445.064,618.645z"/>
			<path style="fill:#E6E6E3;" d="M421.001,651.119c-13.271,47.031-38.975,164.823-47.694,218.005
				c22.169-23.07,49.385-123.893,71.554-146.963c1.332-1.386,2.707-2.845,3.262-4.685c1.186-3.937-1.784-7.915-5.041-10.426
				c-3.256-2.511-7.151-4.552-9.07-8.189c-1.385-2.624-1.516-5.815-0.641-8.65c1.56-5.055,6.065-8.77,10.99-10.702
				c4.925-1.932,10.293-2.347,15.568-2.742c-8.288-8.365-10.459-20.907-11.399-32.645c-0.794-9.915-0.982-20.269-4.68-29.646
				c-2.488-6.309-10.013-18.653-18.417-16.062c-10.317,3.18-1.541,14.45-0.391,20.641
				C427.037,629.797,423.899,640.848,421.001,651.119z"/>
			<g>
				<path style="fill:#DCDCDA;" d="M372.181,883.475c-4.339-26.645-10.622-52.93-16.899-79.186
					c-11.46-47.932-22.929-95.863-34.379-143.797c-4.13-17.29-5.951-33.834-27.34-30.394c-21.766,3.501-44.561,15.585-65.3,23.059
					c-10.425,3.757-21.321,7.828-28.607,16.176c-8.986,10.297-10.644,24.902-11.636,38.532c-5.759,79.1-2.747,158.754-11.214,237.61
					c-0.923,8.599-2.007,17.21-3.248,25.81c4.496,3.22,9.058,6.33,13.687,9.31c58.48,37.65,125.255,58.764,194.164,70.659
					C381.729,995.124,381.194,938.828,372.181,883.475z"/>
			</g>
			<path style="fill:#E6E6E3;" d="M330.579,646.972c2.931,13.186,7.965,25.555,12.641,38.016
				c16.045,42.762,20.712,145.042,28.586,190.893c-16.406-31.716-41.135-103.884-63.151-130.415
				c-2.016-2.429-4.049-5.225-4.287-8.618c-0.249-3.557,1.53-6.819,3.234-9.764c3.814-6.591,7.627-13.182,11.441-19.773
				c2.596-4.486,5.302-9.409,5.07-14.839c-0.329-7.734-6.278-13.141-11.247-18.177c-9.328-9.453-18.65-25.671-23.797-38.868
				c7.188-1.51,12.701-8.384,16.716-15.6c4.016-7.216,7.161-15.243,12.326-21.349c4.662-5.511,15.019-6.172,21.372-1.862
				c-3.804,7.22-9.006,9.293-10.46,18.185C327.281,625.443,328.266,636.566,330.579,646.972z"/>
			<g>
				
					<linearGradient id="SVGID_00000092424412882788345800000003886582786395191195_" gradientUnits="userSpaceOnUse" x1="137.6626" y1="490.5076" x2="226.8021" y2="974.1132">
					<stop  offset="0" style="stop-color:#FCFCFC"/>
					<stop  offset="1" style="stop-color:#D4D4D4"/>
				</linearGradient>
				<path style="fill:url(#SVGID_00000092424412882788345800000003886582786395191195_);" d="M243.259,743.664
					c-0.165-19.254-0.463-39.323-6.514-56.397c-6.052-17.074-22.296-31.335-34.373-23.902c-19.59,12.057-32.7,40.619-38.546,70.648
					c-5.846,30.029-5.475,61.809-5.058,93.039c0.598,44.816,1.197,89.631,1.796,134.447c8.612,6.813,17.522,13.199,26.682,19.096
					c19.172,12.343,39.241,22.896,59.978,31.943c-1.266-18.549-1.982-37.119-2.14-55.573
					C244.475,885.865,243.867,814.764,243.259,743.664z"/>
			</g>
			<path style="fill:#FFFFFF;" d="M452.942,445.52c0.114-7.845-0.063-15.678-0.821-23.49c-2.202-22.672-9.999-45.846-26.247-60.076
				c-11.506-10.077-26.464-14.84-41.189-14.748c-2.832,0.018-5.655,0.21-8.463,0.555c-2.807-0.345-5.631-0.538-8.463-0.555
				c-14.725-0.092-29.684,4.671-41.189,14.748c-16.247,14.23-24.045,37.404-26.247,60.076c-0.759,7.812-0.936,15.646-0.821,23.491
				c-0.159,15.704,0.15,31.573,2.055,47.116c0.515,18.277,0.394,37.36,8.512,53.251c7.209,14.112,19.912,23.627,32.169,32.625
				c9.85,7.231,20.641,14.761,32.476,14.023c0.505-0.031,1.008-0.079,1.508-0.14c0.5,0.061,1.003,0.108,1.508,0.14
				c11.834,0.737,22.626-6.793,32.475-14.023c12.258-8.998,24.961-18.514,32.17-32.625c8.118-15.891,7.997-34.974,8.512-53.251
				C452.792,477.095,453.101,461.225,452.942,445.52z"/>
			
				<linearGradient id="SVGID_00000102509057764899739530000000905043858658552982_" gradientUnits="userSpaceOnUse" x1="383.8197" y1="466.9474" x2="471.6741" y2="466.9474">
				<stop  offset="0" style="stop-color:#5C5C5C"/>
				<stop  offset="1" style="stop-color:#3F3F3F"/>
			</linearGradient>
			<path style="fill:url(#SVGID_00000102509057764899739530000000905043858658552982_);" d="M412.7,393.463
				c8.515,4.373,17.366,8.816,23.276,15.801c8.437,9.972,9.431,23.363,8.717,35.822c-0.714,12.459-2.777,25.171,0.731,37.25
				c4.487,15.45,17.896,29.301,16.031,45.171c-0.898,7.64-5.318,14.56-9.88,21.086c-4.561,6.525-9.445,13.082-11.462,20.552
				c-2.017,7.47-0.552,16.223,5.983,21.252c-2.129-6.371-0.183-13.316,3.163-19.26c3.346-5.944,8.026-11.206,11.84-16.923
				c9.009-13.505,12.995-29.955,9.061-45.26c-2.387-9.287-7.568-18.011-8.505-27.501c-0.992-10.052,2.861-19.907,5.103-29.799
				c6.958-30.703-2.379-64.005-24.735-88.221c-10.686-11.575-39.022-30.254-53.797-12.826
				C373.813,367.608,398.129,385.979,412.7,393.463z"/>
			
				<linearGradient id="SVGID_00000052104204402844677070000006415037307945558418_" gradientUnits="userSpaceOnUse" x1="328.0868" y1="443.5658" x2="291.0815" y2="759.2899">
				<stop  offset="0" style="stop-color:#5C5C5C"/>
				<stop  offset="1" style="stop-color:#3F3F3F"/>
			</linearGradient>
			<path style="fill:url(#SVGID_00000052104204402844677070000006415037307945558418_);" d="M377.141,414.672
				c-16.978,11.501-36.783,18.812-52.263,32.261c-22.683,19.708-33.388,52.237-26.841,81.564c2.109,9.449,5.884,18.895,4.571,28.487
				c-3.056,22.34-31.831,35.279-32.64,57.813c-0.763,21.264,24.414,37.997,20.86,58.975c-1.918,11.32-12,20.067-13.464,31.455
				c-1.048,8.147,2.513,16.1,5.943,23.564s6.897,15.487,5.653,23.607c-1.244,8.12-9.338,15.711-17.172,13.242
				c8.284-7.314,3.499-21.278-3.994-29.4c-7.493-8.122-17.601-15.122-19.793-25.953c-3.42-16.893,14.543-32.882,10.598-49.66
				c-2.692-11.448-14.571-18.325-19.678-28.917c-8.037-16.67,2.592-35.7,10.012-52.653c12.52-28.607,16.055-60.191,19.995-91.168
				c3.94-30.977,8.644-62.582,23.148-90.237c14.504-27.654,40.785-51.06,71.889-53.827c14.809-1.317,44.601,2.921,44.683,22.539
				C408.729,385.803,392.101,404.538,377.141,414.672z"/>
			<path style="fill:#FFFFFF;" d="M349.022,592.323c0.521,8.996-0.349,18.867-6.028,25.491c-1.602,1.868-3.675,3.725-3.72,6.268
				c-0.045,2.536,1.967,4.479,3.806,6.047c15.033,12.824,30.067,25.648,45.1,38.472c9.859-13.843,19.718-27.686,29.578-41.529
				c0.49-0.688,0.999-1.422,1.095-2.284c0.223-1.986-1.694-3.349-3.225-4.466c-6.133-4.475-9.439-12.415-10.589-20.325
				c-1.15-7.91-0.443-15.983-0.204-23.991c0.15-5.02-0.329-10.953-4.296-13.551c-2.277-1.491-5.116-1.423-7.781-1.309
				c-11.259,0.481-22.518,0.962-33.777,1.443c-6.195,0.265-10.318,0.26-10.895,7.476C347.491,577.52,348.592,584.9,349.022,592.323z
				"/>
			<g>
				<g>
					<circle style="fill:#D0CDD0;" cx="302.184" cy="808.702" r="28.262"/>
					<circle style="fill:#FCFCFC;" cx="302.184" cy="808.702" r="22.284"/>
				</g>
				<g>
					<path style="fill:#3B7E9E;" d="M302.781,814.849c-2.422,0-4.43-1.914-4.526-4.354l-7.24-184.238
						c-0.098-2.501,1.849-4.608,4.35-4.707c2.514-0.135,4.608,1.85,4.707,4.351l7.24,184.238c0.098,2.501-1.849,4.608-4.351,4.707
						C302.901,814.849,302.841,814.849,302.781,814.849z"/>
				</g>
			</g>
			<g>
				<g>
					<g>
						<path style="fill:#D0CDD0;" d="M401.137,856.362c-4.257,0-8.155-0.938-11.278-2.53c-1.239-0.632-1.732-2.147-1.101-3.387
							c0.632-1.24,2.148-1.734,3.387-1.101c9.709,4.947,22.094,0.155,29.309-7.134c7.738-7.819,14.323-18.303,18.539-29.521
							c4.75-12.636,7.642-19.008,10.438-25.171c2.762-6.088,5.618-12.382,10.31-24.862c0.49-1.302,1.944-1.96,3.243-1.47
							c1.301,0.489,1.96,1.941,1.471,3.243c-4.75,12.636-7.642,19.008-10.438,25.171c-2.762,6.088-5.618,12.382-10.31,24.862
							c-4.461,11.865-11.447,22.978-19.672,31.291C417.499,853.367,408.744,856.362,401.137,856.362z"/>
					</g>
					<g>
						<path style="fill:#808080;" d="M380.637,854.595l10.136,3.373c1.515,0.504,3.151-0.315,3.655-1.83l2.259-6.789
							c0.504-1.514-0.315-3.151-1.83-3.655l-10.136-3.373c-1.514-0.504-3.151,0.315-3.655,1.83l-2.259,6.789
							C378.303,852.455,379.123,854.091,380.637,854.595z"/>
					</g>
					<g>
						<path style="fill:#D0CDD0;" d="M425.995,861.602c-9.593,0-21.966-6.514-27.789-21.385c-4.263-10.888-6.28-23.858-5.679-36.522
							c0.631-13.315,0.5-20.226,0.373-26.91c-0.129-6.766-0.262-13.764,0.379-27.249c0.066-1.389,1.276-2.448,2.634-2.396
							c1.39,0.066,2.462,1.245,2.396,2.634c-0.632,13.319-0.501,20.231-0.374,26.916c0.129,6.765,0.262,13.761-0.378,27.243
							c-0.568,11.972,1.329,24.206,5.339,34.448c3.74,9.552,13.231,18.878,24.09,18.153c1.406-0.076,2.585,0.965,2.675,2.351
							c0.09,1.388-0.964,2.586-2.351,2.675C426.879,861.588,426.439,861.602,425.995,861.602z"/>
					</g>
					<g>
						<path style="fill:#808080;" d="M435.477,865.911l-10.643-0.915c-1.59-0.137-2.769-1.537-2.632-3.127l0.613-7.128
							c0.137-1.59,1.537-2.769,3.127-2.632l10.643,0.915c1.59,0.137,2.769,1.537,2.632,3.127l-0.613,7.128
							C438.467,864.87,437.067,866.048,435.477,865.911z"/>
					</g>
				</g>
				<g>
					<path style="fill:#3B7E9E;" d="M460.181,776.629c-0.41,0-0.826-0.056-1.24-0.173c-2.408-0.685-3.806-3.191-3.122-5.599
						l6.602-23.242c3.264-16.248-7.248-32.158-23.499-35.511c-7.896-1.632-15.956-0.087-22.694,4.346
						c-6.692,4.403-11.283,11.133-12.941,18.963l-3.138,23.956c-0.326,2.483-2.612,4.232-5.082,3.906
						c-2.483-0.326-4.232-2.601-3.906-5.082l3.16-24.127c0.015-0.11,0.032-0.219,0.055-0.328c2.119-10.269,8.11-19.099,16.87-24.861
						c8.759-5.763,19.24-7.77,29.508-5.651c10.269,2.119,19.099,8.11,24.862,16.87c5.763,8.759,7.77,19.239,5.651,29.508
						c-0.023,0.108-0.049,0.216-0.079,0.323l-6.648,23.407C463.973,775.328,462.156,776.629,460.181,776.629z"/>
				</g>
				<g>
					<path style="fill:#3B7E9E;" d="M442.888,711.895c-0.339,0-0.684-0.038-1.028-0.118c-2.438-0.566-3.957-3.001-3.391-5.439
						l16.809-72.457c0.566-2.439,3.004-3.954,5.439-3.391c2.438,0.566,3.957,3.001,3.392,5.439L447.3,708.385
						C446.814,710.479,444.949,711.895,442.888,711.895z"/>
				</g>
			</g>
		</g>
	</g>
</g>
</svg>
