<?xml version="1.0" encoding="UTF-8" standalone="no"?>
<!-- Created with Inkscape (http://www.inkscape.org/) -->
<svg
   xmlns:dc="http://purl.org/dc/elements/1.1/"
   xmlns:cc="http://creativecommons.org/ns#"
   xmlns:rdf="http://www.w3.org/1999/02/22-rdf-syntax-ns#"
   xmlns:svg="http://www.w3.org/2000/svg"
   xmlns="http://www.w3.org/2000/svg"
   xmlns:xlink="http://www.w3.org/1999/xlink"
   xmlns:sodipodi="http://sodipodi.sourceforge.net/DTD/sodipodi-0.dtd"
   xmlns:inkscape="http://www.inkscape.org/namespaces/inkscape"
   sodipodi:docname="Heart_normal.svg"
   sodipodi:docbase="C:\Documents and Settings\Administrateur\Bureau\WIKI"
   inkscape:version="0.46"
   sodipodi:version="0.32"
   id="svg2"
   height="463.26593"
   width="371.80316"
   version="1.0"
   inkscape:output_extension="org.inkscape.output.svg.inkscape">
  <defs
     id="defs3">
    <inkscape:perspective
       sodipodi:type="inkscape:persp3d"
       inkscape:vp_x="0 : 265.74802 : 1"
       inkscape:vp_y="0 : 1000 : 0"
       inkscape:vp_z="496.06299 : 265.74802 : 1"
       inkscape:persp3d-origin="248.03149 : 177.16534 : 1"
       id="perspective42" />
    <linearGradient
       id="linearGradient3950">
      <stop
         style="stop-color:#7e7ee6;stop-opacity:1;"
         offset="0"
         id="stop3952" />
      <stop
         style="stop-color:#e80000;stop-opacity:1;"
         offset="1"
         id="stop3954" />
    </linearGradient>
    <linearGradient
       inkscape:collect="always"
       xlink:href="#linearGradient3950"
       id="linearGradient3956"
       x1="112.75188"
       y1="131.87666"
       x2="117.06779"
       y2="129.11717"
       gradientUnits="userSpaceOnUse"
       gradientTransform="matrix(4.101991,0,0,4.101991,-143.7511,-143.30856)" />
    <linearGradient
       inkscape:collect="always"
       xlink:href="#linearGradient3950"
       id="linearGradient3964"
       x1="230.20773"
       y1="129.24855"
       x2="250.54608"
       y2="115.74855"
       gradientUnits="userSpaceOnUse"
       gradientTransform="matrix(4.101991,0,0,4.101991,-206.6196,-167.3292)" />
    <linearGradient
       inkscape:collect="always"
       xlink:href="#linearGradient3950"
       id="linearGradient4021"
       gradientUnits="userSpaceOnUse"
       x1="230.20773"
       y1="129.24855"
       x2="250.54608"
       y2="115.74855"
       gradientTransform="matrix(4.101991,0,0,4.101991,253.1167,-167.3292)" />
    <linearGradient
       inkscape:collect="always"
       xlink:href="#linearGradient3950"
       id="linearGradient4077"
       gradientUnits="userSpaceOnUse"
       x1="122.429"
       y1="125.49855"
       x2="124.1057"
       y2="124.49855"
       gradientTransform="matrix(4.101991,0,0,4.101991,-206.6196,378.2355)" />
    <linearGradient
       inkscape:collect="always"
       xlink:href="#linearGradient3950"
       id="linearGradient4133"
       gradientUnits="userSpaceOnUse"
       gradientTransform="matrix(4.101991,0,0,4.101991,324.18,378.2355)"
       x1="113.94372"
       y1="128.32698"
       x2="132.76776"
       y2="118.8417" />
  </defs>
  <sodipodi:namedview
     inkscape:window-y="0"
     inkscape:window-x="0"
     inkscape:window-height="746"
     inkscape:window-width="1024"
     gridtolerance="1mm"
     inkscape:grid-bbox="false"
     inkscape:grid-points="false"
     showgrid="false"
     inkscape:current-layer="layer1"
     inkscape:document-units="mm"
     inkscape:cy="216.37468"
     inkscape:cx="33.685104"
     inkscape:zoom="1.1084377"
     inkscape:pageshadow="2"
     inkscape:pageopacity="0.0"
     borderopacity="1.0"
     bordercolor="#666666"
     pagecolor="#ffffff"
     id="base"
     showguides="true"
     inkscape:guide-bbox="true">
    <inkscape:grid
       id="GridFromPre046Settings"
       type="xygrid"
       originx="0px"
       originy="0.0000000mm"
       spacingx="1.0000000mm"
       spacingy="1.0000000mm"
       color="#0000ff"
       empcolor="#0000ff"
       opacity="0.2"
       empopacity="0.4"
       empspacing="10"
       units="mm"
       visible="true"
       enabled="true" />
  </sodipodi:namedview>
  <metadata
     id="metadata4">
    <rdf:RDF>
      <cc:Work
         rdf:about="">
        <dc:format>image/svg+xml</dc:format>
        <dc:type
           rdf:resource="http://purl.org/dc/dcmitype/StillImage" />
      </cc:Work>
    </rdf:RDF>
  </metadata>
  <g
     id="layer1"
     inkscape:groupmode="layer"
     inkscape:label="Layer 1"
     transform="translate(-62.868499,-24.020636)">
    <path
       style="fill:url(#linearGradient3956);fill-opacity:1;fill-rule:evenodd;stroke:#000000;stroke-width:3.60937858000000000;stroke-linecap:butt;stroke-linejoin:miter;stroke-miterlimit:4;stroke-dasharray:none;stroke-opacity:1"
       d="M 135.35901,372.65427 L 182.40139,418.1458 L 240.8166,441.92547 L 335.93526,458.98479 L 403.65556,445.54411 L 411.4098,381.95936 L 390.21488,288.90857 L 370.57083,239.7984 L 351.96067,207.2306 L 227.89287,250.13738 L 135.35901,372.65427 z"
       id="path4829" />
    <path
       style="fill:#b2b2fe;fill-opacity:1;fill-rule:evenodd;stroke:#000000;stroke-width:3.60937858;stroke-linecap:butt;stroke-linejoin:miter;stroke-miterlimit:4;stroke-dasharray:none;stroke-opacity:1"
       d="M 119.85054,259.44245 L 113.64715,325.61195 L 143.63021,381.44242 L 160.17256,393.84919 L 166.8929,386.87039 L 179.04121,372.13735 L 202.56238,366.45092 L 216.29383,368.55098 L 212.51365,362.96152 L 202.30392,335.69243 L 225.5666,313.20515 L 304.65979,268.48906 L 328.18102,273.91703 L 340.32931,290.97634 L 341.62167,281.15433 L 347.82503,261.51026 L 371.60474,251.42975 L 356.35472,212.91704 L 326.11321,186.03571 L 278.81237,187.58656 L 223.75729,184.48484 L 170.77,193.27299 L 130.70646,200.51027 L 127.08782,226.35773 L 119.85054,259.44245 z"
       id="path4831"
       sodipodi:nodetypes="ccccccccccccccccccccccccc" />
    <path
       style="fill:#9a9afe;fill-opacity:1;fill-rule:evenodd;stroke:#000000;stroke-width:3.60937858;stroke-linecap:butt;stroke-linejoin:miter;stroke-miterlimit:4;stroke-dasharray:none;stroke-opacity:1"
       d="M 128.14604,376.91313 C 123.39405,420.41217 122.78912,437.82828 121.56635,466.1044 C 130.16081,488.33346 157.87648,493.27607 172.74169,471.22197 C 174.082,449.89892 175.78785,441.36968 177.85924,421.50874 L 128.14604,376.91313 z"
       id="path1335"
       sodipodi:nodetypes="ccccc" />
    <path
       style="fill:#ce6666;fill-opacity:1;fill-rule:evenodd;stroke:#000000;stroke-width:3.60937858;stroke-linecap:butt;stroke-linejoin:miter;stroke-miterlimit:4;stroke-dasharray:none;stroke-opacity:1"
       d="M 296.319,37.130071 C 296.32573,37.315674 296.18147,37.438271 296.20764,37.631265 C 296.3606,38.760896 296.83548,39.95807 297.59985,41.251013 C 298.36422,42.543957 299.43341,43.902211 300.71839,45.20489 C 302.00338,46.507566 303.51434,47.777182 305.22915,48.936011 C 306.94395,50.094843 308.66452,51.01405 310.3525,51.720435 C 312.04046,52.426813 313.71264,52.941363 315.19736,53.16833 C 316.6821,53.395302 317.9904,53.336356 319.09556,53.056953 C 319.59752,52.930057 319.86784,52.568397 320.26504,52.333006 C 320.87635,51.616572 321.27625,51.068829 321.82428,50.439601 C 322.02384,49.819473 322.31533,49.238024 322.21414,48.490505 C 322.06114,47.360875 321.58629,46.108016 320.82192,44.81507 C 320.05755,43.522126 318.98833,42.21956 317.70334,40.916881 C 316.41836,39.614205 314.90739,38.344589 313.19259,37.185759 C 311.47778,36.026932 309.70154,35.05203 308.01358,34.345652 C 306.3256,33.639269 304.7091,33.180412 303.22437,32.953441 C 301.73963,32.726469 300.43133,32.72973 299.32617,33.009129 C 299.00811,33.089541 298.87942,33.386532 298.60221,33.510322 C 298.11757,34.185223 297.41977,34.648461 297.04297,35.515105 C 296.8715,35.909483 296.50613,36.696434 296.319,37.130071 z"
       id="path1319" />
    <path
       style="fill:#fe7e7e;fill-opacity:1;fill-rule:evenodd;stroke:#000000;stroke-width:3.60937858;stroke-linecap:butt;stroke-linejoin:miter;stroke-miterlimit:4;stroke-dasharray:none;stroke-opacity:1"
       d="M 248.20422,34.679779 C 248.52317,40.442897 249.97598,52.688257 249.31798,57.623405 C 248.58693,63.106478 248.40401,79.937295 242.18988,78.840682 C 235.97572,77.744076 230.47671,66.941847 228.10073,62.189851 C 225.72472,57.437854 219.5061,46.304284 217.13008,40.638438 C 217.12699,40.881083 217.27847,41.053457 217.24149,41.306701 C 217.08085,42.405268 216.59427,43.605437 215.84927,44.81507 C 215.10427,46.024706 214.08299,47.257805 212.8421,48.434817 C 211.60116,49.611831 210.14672,50.775414 208.49837,51.776123 C 206.85008,52.776828 205.1589,53.557126 203.54212,54.115032 C 201.92534,54.672944 200.3926,54.958849 198.97567,55.061735 C 197.55875,55.164626 196.29332,55.036271 195.24456,54.671919 C 194.92368,54.560443 194.79673,54.270991 194.52061,54.115032 C 196.95584,57.041795 199.31417,60.106278 200.86908,63.080869 C 205.07277,71.122708 210.55307,81.542477 205.43555,92.874163 C 200.318,104.20584 192.30588,115.91358 189.56434,123.22435 C 186.82282,130.53512 180.61564,150.47059 181.71227,170.39243 C 182.80888,190.31425 182.97328,202.17371 193.57391,222.46108 C 203.11806,240.72661 228.51695,270.21667 248.48265,288.84167 C 250.92571,284.61317 253.99166,279.14656 256.61317,275.47643 C 257.52701,274.19707 258.73054,272.93313 260.12151,271.74531 C 261.51254,270.55753 263.11996,269.42821 264.79935,268.45969 C 266.47878,267.49121 268.2551,266.68665 270.03407,266.06511 C 271.81306,265.44354 273.57901,265.04257 275.26877,264.89564 C 277.37064,264.7129 279.9238,264.59009 282.73104,264.89564 C 285.53824,265.20119 288.60122,265.9309 291.69684,267.29025 C 293.24468,267.96992 294.83294,268.80279 296.37472,269.85191 C 297.91644,270.90104 299.40186,272.14943 300.88547,273.63873 C 301.57008,274.32602 302.22608,275.24128 302.89023,276.03333 C 301.62366,274.09058 300.36307,272.15465 298.82499,270.18605 C 291.02416,260.20181 239.09984,207.30514 236.17554,199.62884 C 233.25118,191.95253 229.56432,180.45476 229.38154,172.23014 C 229.19878,164.00552 229.7806,146.24392 240.35219,134.02789 C 248.57679,124.52391 257.5328,123.22435 261.73651,123.22435 C 265.9402,123.22435 274.17084,123.21021 281.11609,131.80036 C 288.06128,140.3905 288.96812,172.56862 288.96812,176.40677 C 288.96812,180.24492 303.03458,185.94521 311.07644,185.76243 C 319.11829,185.57967 330.8544,185.1954 331.40267,176.23971 C 331.95103,167.28403 329.90336,147.37861 326.61349,134.58478 C 323.32365,121.79095 319.68883,106.51671 313.6381,97.440613 C 309.25163,90.860918 305.96024,87.379489 305.22915,82.6275 C 304.49809,77.8755 309.08313,66.409245 312.19019,62.02279 C 314.04272,59.407471 317.12126,56.017204 320.26504,52.333006 C 319.86784,52.568397 319.59752,52.930057 319.09556,53.056953 C 317.9904,53.336356 316.6821,53.395302 315.19736,53.16833 C 313.71264,52.941363 312.04046,52.426813 310.3525,51.720435 C 308.66452,51.01405 306.94395,50.094843 305.22915,48.936011 C 303.51434,47.777182 302.00338,46.507566 300.71839,45.20489 C 299.43341,43.902211 298.36422,42.543957 297.59985,41.251013 C 296.83548,39.95807 296.3606,38.760896 296.20764,37.631265 C 296.18147,37.438271 296.32573,37.315674 296.319,37.130071 C 294.51138,41.318615 292.1721,46.870355 289.1909,52.667137 C 285.90106,59.064056 278.77282,75.330866 274.93467,74.051483 C 271.09651,72.772098 271.41205,62.738036 272.8742,55.061735 C 274.27047,47.73135 276.31053,41.081325 277.60769,36.183369 C 277.54001,36.2717 277.57035,36.375067 277.49632,36.461812 C 276.71276,37.380086 275.55579,38.217394 274.15501,38.9121 C 272.75422,39.606803 271.10603,40.19414 269.25443,40.582753 C 267.40285,40.971363 265.37609,41.139636 263.24009,41.139636 C 261.10411,41.139636 259.02166,40.971363 257.17006,40.582753 C 255.31845,40.19414 253.67024,39.606803 252.26948,38.9121 C 250.8687,38.217394 249.71173,37.380086 248.92816,36.461812 C 248.45345,35.905475 248.40335,35.293856 248.20422,34.679779 z"
       id="path1328" />
    <path
       id="path3106"
       style="fill:#fece9a;fill-opacity:1;fill-rule:evenodd;stroke:#000000;stroke-width:3.60937858;stroke-linecap:butt;stroke-linejoin:miter;stroke-miterlimit:4;stroke-dasharray:none;stroke-opacity:1"
       d="M 133.57423,169.31594 L 85.756442,166.98967 C 72.488082,177.24249 75.245144,199.64362 86.273393,207.82865 L 129.47094,208.73332 L 128.25684,205.80661 L 133.57423,169.31594 z M 129.18016,216.87526 L 72.832723,215.06593 C 61.201367,225.92185 62.493748,247.37525 73.608137,254.61257 L 120.39203,256.1634 L 129.18016,216.87526 z M 405.13416,165.65892 C 393.83158,165.60577 378.24007,165.64528 364.14748,166.49423 C 342.6941,167.7866 310.0987,172.42139 273.65382,173.45529 L 274.2107,185.09416 L 302.03661,182.05017 L 340.66695,197.01349 L 363.45079,225.30218 L 371.1085,253.59092 C 371.1085,253.59092 385.05077,248.68191 399.00841,247.13106 C 405.69912,246.38761 414.05689,246.1566 421.00533,246.07295 C 419.36454,246.07295 417.80553,245.50818 416.38322,244.51371 C 414.96089,243.51922 413.67241,242.11485 412.59637,240.33706 C 411.52039,238.55926 410.63665,236.44988 410.03472,234.09997 C 409.4328,231.75003 409.08803,229.12582 409.08803,226.41496 C 409.08803,223.70409 409.4328,221.13558 410.03472,218.78564 C 410.63665,216.43573 411.52039,214.32633 412.59637,212.54855 C 413.67241,210.77076 414.96089,209.31071 416.38322,208.31622 C 417.32625,207.65685 418.39749,207.55168 419.44609,207.31382 C 408.26476,207.435 397.94554,207.48716 388.92883,207.81503 C 374.71273,208.33198 359.74813,212.49285 359.74809,212.49285 C 359.74809,212.49285 367.47943,206.52577 376.00912,204.97493 C 381.56547,203.96468 394.89402,203.70548 405.3569,203.58271 C 403.82944,203.50308 402.34788,203.07981 401.01322,202.19049 C 399.55997,201.22219 398.27013,199.80056 397.17072,198.06956 C 396.07125,196.33855 395.16837,194.28758 394.55337,191.99952 C 393.93834,189.71146 393.60667,187.2325 393.60667,184.59297 C 393.60667,181.95343 393.93834,179.41882 394.55337,177.13072 C 395.16837,174.84264 396.07125,172.79169 397.17072,171.06068 C 398.27013,169.32968 399.55997,167.90807 401.01322,166.93975 C 402.27589,166.09843 403.69649,165.77942 405.13416,165.65892 z"
       sodipodi:nodetypes="ccccccccccccsccccccscssssssscscscsssssssc" />
    <path
       sodipodi:nodetypes="czzzzzszzsszzzszzzzzzcczzzzzzzzcc"
       id="path1372"
       d="M 277.3434,182.43158 C 296.99149,173.98284 316.5949,176.61397 328.85174,181.67438 C 340.97631,186.68019 356.40221,201.92669 362.75567,213.76272 C 368.59197,224.63531 375.12994,241.17183 379.12504,246.85829 C 383.12013,252.54472 399.49954,269.62761 403.93859,278.9916 C 408.52482,288.66606 424.5956,327.19023 427.32007,351.25517 C 430.04793,375.3504 436.19033,438.74293 413.24366,460.29631 C 399.05377,473.62458 367.64836,477.92232 332.60591,477.54067 C 298.08045,477.15907 235.33585,458.79589 203.8793,441.74806 C 172.22277,424.59185 135.09074,397.29043 122.57309,373.51078 C 112.48114,354.33923 106.5715,338.48506 104.88357,319.48961 C 102.29883,290.14352 120.84032,243.91248 123.4594,231.28393 C 126.07846,218.65537 128.40475,200.2295 128.40475,200.2295 C 128.40475,200.2295 134.50275,219.6893 131.32452,244.94639 C 128.14626,270.2035 123.15006,278.19893 122.94245,300.36252 C 122.68397,328.21343 135.03205,368.78951 170.27761,395.45511 C 205.02805,421.74612 256.67598,434.37464 284.78178,440.68892 C 312.88768,447.00319 340.81002,451.05313 345.23447,443.29889 C 349.65891,435.54466 331.63357,419.3938 322.00214,408.60061 C 312.37072,397.8074 306.05644,389.1408 299.74216,376.51224 C 293.42788,363.88373 288.13821,340.56408 282.0917,332.31236 C 276.2944,324.40059 266.43014,313.36953 266.43014,313.36953 L 264.47319,298.75269 C 264.47319,298.75269 288.92292,327.55876 294.72025,332.31236 C 300.64632,337.17148 311.07839,341.20144 326.29164,359.55315 C 341.37831,377.75212 346.55724,389.14083 353.53604,403.83716 C 360.56311,418.63518 370.49158,430.37515 376.80585,429.85823 C 383.12013,429.34129 392.24734,404.83157 390.72677,376.51224 C 389.20555,348.18028 372.10243,326.46844 367.75213,304.75656 C 363.39164,282.9935 365.68436,262.59685 366.97675,252.29457 C 368.30103,241.73773 348.70759,204.4852 328.46402,193.39827 C 308.56149,182.49812 280.21799,192.24444 271.83971,197.65942 L 277.3434,182.43158 z"
       style="fill:#fe81ce;fill-opacity:1;fill-rule:evenodd;stroke:#000000;stroke-width:3.60937858;stroke-linecap:butt;stroke-linejoin:miter;stroke-miterlimit:4;stroke-dasharray:none;stroke-opacity:1" />
    <path
       style="fill:#ce6666;fill-opacity:1;fill-rule:evenodd;stroke:#000000;stroke-width:3.60937858;stroke-linecap:butt;stroke-linejoin:miter;stroke-miterlimit:4;stroke-dasharray:none;stroke-opacity:1"
       d="M 304.8288,276.93797 C 304.16465,276.14596 301.57008,274.32602 300.88547,273.63873 C 299.40186,272.14943 297.91644,270.90104 296.37472,269.85191 C 294.83294,268.80279 293.24468,267.96992 291.69684,267.29025 C 288.60122,265.9309 285.53824,265.20119 282.73104,264.89564 C 279.9238,264.59009 277.37064,264.7129 275.26877,264.89564 C 273.57901,265.04257 271.81306,265.44354 270.03407,266.06511 C 268.2551,266.68665 266.47878,267.49121 264.79935,268.45969 C 263.11996,269.42821 261.51254,270.55753 260.12151,271.74531 C 258.73054,272.93313 257.52701,274.19707 256.61317,275.47643 C 253.99166,279.14656 250.92571,284.61317 248.48265,288.84167 C 250.69268,290.90328 253.12525,293.44151 255.16528,295.19016 C 275.63542,312.73597 274.28114,312.70512 281.11609,317.13138 C 288.43981,321.87417 297.1609,315.60116 301.58424,309.61234 C 306.02238,303.60342 313.87545,296.62363 313.05927,291.76228 C 311.44084,282.12281 306.60642,278.54525 304.8288,276.93797 z"
       id="path1333"
       sodipodi:nodetypes="cssssssssscsszsc" />
    <path
       style="fill:#e6b2fe;fill-opacity:1;fill-rule:evenodd;stroke:#000000;stroke-width:3.60937858;stroke-linecap:butt;stroke-linejoin:miter;stroke-miterlimit:4;stroke-dasharray:none;stroke-opacity:1"
       d="M 349.04645,118.79645 C 338.87252,118.90547 329.4567,119.27681 324.04235,119.96591 C 323.59186,120.02324 323.15369,120.17849 322.70585,120.24435 C 310.24476,122.0767 298.69435,126.98701 283.72392,127.98504 C 281.95612,128.10289 279.07404,128.05093 277.09704,128.09641 C 268.39724,128.29661 258.42231,128.2145 246.0786,128.76468 C 244.17449,130.16725 242.23615,131.86707 240.34267,134.05507 C 239.0212,135.58208 237.86157,137.17344 236.83431,138.84428 C 235.80701,140.51512 234.93041,142.21184 234.16124,143.96761 C 232.62296,147.47916 231.54197,151.10634 230.81997,154.6041 C 230.09795,158.10185 229.73315,161.50403 229.53912,164.51663 C 229.34509,167.52924 229.32635,170.20116 229.37206,172.25732 C 229.40737,173.84686 229.66263,175.59782 229.92894,177.38065 C 230.55387,179.07958 230.9603,181.01194 231.09842,183.22793 C 232.06849,198.79527 222.36995,225.77738 219.40384,246.87977 C 219.08807,249.1264 218.67677,253.69077 218.29008,256.84802 C 216.53619,271.16824 214.54237,291.42304 215.56134,305.464 C 215.56192,304.76674 215.55757,304.04433 215.61701,303.34782 C 216.08984,297.8099 217.2836,292.34886 218.67988,287.5323 C 219.38059,285.11518 220.14356,283.0166 220.9631,281.12816 C 221.78266,279.23969 222.63531,277.55556 223.52478,276.11618 C 225.30378,273.23742 227.16129,271.2164 228.92658,269.65633 C 228.93319,269.65094 228.9753,269.60592 228.98224,269.60067 C 229.01116,269.5815 229.06719,269.55776 229.09361,269.54496 C 229.13201,269.53085 229.22228,269.50311 229.26069,269.48924 C 229.27044,269.4792 229.30659,269.44377 229.31638,269.43359 C 229.3355,269.42539 229.40893,269.38794 229.42775,269.37787 C 231.07827,268.01565 232.75259,266.9767 234.55106,266.42642 C 236.524,265.82278 238.61114,265.64676 241.06663,265.64676 C 242.29439,265.64676 243.75329,265.7646 245.35463,266.25934 C 246.95597,266.75404 248.74855,267.61406 250.53366,269.04377 C 252.31874,270.47344 254.1007,272.476 255.87973,275.28085 C 255.98331,275.44416 256.10855,275.73971 256.21387,275.94916 C 256.21885,275.95395 256.2636,275.99968 256.26955,276.00481 C 256.26261,276.01536 256.27644,276.05064 256.26955,276.06052 C 257.91797,278.77139 259.53337,282.01805 261.00308,286.30717 C 262.58623,290.92741 264.14209,295.61508 265.2911,300.22928 C 265.54431,301.24605 265.72768,302.23331 265.90364,303.23645 C 264.70484,294.83833 262.71705,284.27291 262.11685,270.38029 C 261.67871,260.23874 261.87167,248.58484 264.12162,233.45887 C 264.17281,233.11468 264.2366,232.85321 264.28868,232.51217 C 268.34044,205.99195 275.10828,188.85046 281.83054,176.54532 C 283.7288,173.07053 285.97136,170.23158 288.40176,167.74656 C 294.63394,161.3743 302.27936,157.75715 309.84179,154.88255 C 315.41188,152.76524 322.20159,151.33108 329.33272,150.2604 C 353.66825,146.60664 382.85312,148.05976 388.52951,148.86819 C 388.00245,148.68642 386.52137,148.19663 385.63371,147.64305 C 384.45877,146.91027 383.40406,145.89012 382.51517,144.58019 C 381.6263,143.27024 380.89623,141.68957 380.39903,139.95804 C 379.90178,138.22651 379.61937,136.33101 379.61937,134.33352 C 379.61941,132.33601 379.90178,130.44051 380.39903,128.70898 C 380.89627,126.97746 381.62626,125.3968 382.51517,124.08685 C 383.40412,122.7769 384.45877,121.70108 385.63371,120.9683 C 386.80872,120.23552 388.12079,119.85453 389.47621,119.85453 C 390.06,119.85453 390.60688,120.04694 391.14686,120.24435 C 390.92917,120.07372 390.74601,119.85848 390.47861,119.74315 C 385.30916,119.2262 372.27385,118.82876 358.73622,118.79645 C 356.19789,118.79039 353.63198,118.77752 351.10692,118.79645 C 350.42303,118.80158 349.72471,118.78918 349.04645,118.79645 z M 88.870218,123.30721 C 79.691432,125.73654 74.00585,152.05856 89.649856,157.4442 C 105.67528,159.51199 154.8066,164.24671 170.28667,165.18491 C 173.43969,165.37598 177.67221,165.36838 181.81416,165.40764 C 181.82504,162.13313 181.78185,158.82204 182.09261,155.66219 C 182.56316,150.87749 183.33006,146.26818 184.20877,142.07421 C 184.87782,138.8809 185.64678,136.20307 186.38061,133.55388 C 172.49772,133.17164 157.3641,131.79083 143.11072,130.0455 C 117.78025,126.94381 102.79213,125.11654 89.092973,123.30721 C 89.074349,123.30659 89.000199,123.30764 88.981596,123.30721 C 88.945489,123.316 88.906218,123.29769 88.870218,123.30721 z"
       id="path8381" />
    <path
       style="fill:#9a9afe;fill-opacity:1;fill-rule:evenodd;stroke:#000000;stroke-width:3.60937858;stroke-linecap:butt;stroke-linejoin:miter;stroke-miterlimit:4;stroke-dasharray:none;stroke-opacity:1"
       d="M 149.63575,47.822242 C 140.36837,47.40761 130.87813,50.899389 124.63165,57.512026 C 128.0349,121.82911 129.92622,139.39588 128.41847,200.35278 C 128.9935,201.98203 132.50076,200.39995 134.26574,197.95819 C 136.03072,195.51641 138.35483,193.24338 141.11543,191.27558 C 143.87601,189.30777 147.09158,187.69016 150.63815,186.48637 C 154.1847,185.28257 157.7195,184.65649 161.10755,184.53727 C 164.49563,184.41806 167.7436,184.78818 170.63027,185.65106 C 173.51694,186.51392 176.05014,187.86247 178.09252,189.60493 C 179.11372,190.47616 183.2088,191.86057 183.61721,192.92315 C 183.37946,190.13085 175.89454,120.51275 173.35901,61.688658 C 167.95258,52.59897 158.90314,48.236881 149.63575,47.822242 z"
       id="path2214"
       sodipodi:nodetypes="cccssssssccc" />
    <path
       style="fill:#ce6666;fill-opacity:1;fill-rule:evenodd;stroke:#000000;stroke-width:3.60937858;stroke-linecap:butt;stroke-linejoin:miter;stroke-miterlimit:4;stroke-dasharray:none;stroke-opacity:1"
       d="M 216.01633,37.854019 C 215.53344,37.367609 215.07707,36.827291 214.34568,36.573184 C 213.29692,36.208834 212.03146,36.080479 210.61455,36.183369 C 209.19761,36.286258 207.60919,36.627853 205.99239,37.185759 C 204.37563,37.743668 202.74016,38.523964 201.09184,39.524674 C 199.44351,40.525383 197.93336,41.633274 196.69245,42.810286 C 195.45154,43.987304 194.48598,45.220399 193.74097,46.430035 C 192.99595,47.639672 192.50937,48.839836 192.34876,49.938402 C 192.23972,50.684214 192.48835,51.304157 192.68288,51.943184 C 193.29293,52.642464 193.91029,53.381519 194.52061,54.115032 C 194.79673,54.270991 194.92368,54.560443 195.24456,54.671919 C 196.29332,55.036271 197.55875,55.164626 198.97567,55.061735 C 200.3926,54.958849 201.92534,54.672944 203.54212,54.115032 C 205.1589,53.557126 206.85008,52.776828 208.49837,51.776123 C 210.14672,50.775414 211.60116,49.611831 212.8421,48.434817 C 214.08299,47.257805 215.10427,46.024706 215.84927,44.81507 C 216.59427,43.605437 217.08085,42.405268 217.24149,41.306701 C 217.27847,41.053457 217.12699,40.881083 217.13008,40.638438 C 216.76553,39.76908 216.37235,38.782472 216.01633,37.854019 z"
       id="path1326" />
    <path
       style="fill:#ce6666;fill-opacity:1;fill-rule:evenodd;stroke:#000000;stroke-width:3.60937858;stroke-linecap:butt;stroke-linejoin:miter;stroke-miterlimit:4;stroke-dasharray:none;stroke-opacity:1"
       d="M 278.6658,33.510322 C 278.6658,32.450996 278.27992,31.421428 277.49632,30.503149 C 276.71272,29.584873 275.55579,28.747567 274.15501,28.052862 C 272.75422,27.358156 271.10603,26.82651 269.25443,26.437896 C 267.40285,26.049284 265.37609,25.825325 263.24009,25.825325 C 261.10411,25.825325 259.02166,26.049284 257.17006,26.437896 C 255.31845,26.82651 253.67024,27.358156 252.26948,28.052862 C 250.8687,28.747567 249.71173,29.584873 248.92816,30.503149 C 248.36308,31.165394 248.26246,31.93341 248.09285,32.674998 C 248.09872,33.06595 248.17529,34.156775 248.20422,34.679779 C 248.40335,35.293856 248.45345,35.905475 248.92816,36.461812 C 249.71173,37.380086 250.8687,38.217394 252.26948,38.9121 C 253.67024,39.606803 255.31845,40.19414 257.17006,40.582753 C 259.02166,40.971363 261.10411,41.139636 263.24009,41.139636 C 265.37609,41.139636 267.40285,40.971363 269.25443,40.582753 C 271.10603,40.19414 272.75422,39.606803 274.15501,38.9121 C 275.55579,38.217394 276.71276,37.380086 277.49632,36.461812 C 277.57035,36.375067 278.63175,33.587186 278.6658,33.510322 z"
       id="path3951"
       sodipodi:nodetypes="csssssssccsssssssc" />
    <path
       style="fill:#b27ee6;fill-opacity:1;fill-rule:evenodd;stroke:#000000;stroke-width:3.60937858;stroke-linecap:butt;stroke-linejoin:miter;stroke-miterlimit:4;stroke-dasharray:none;stroke-opacity:1"
       d="M 265.30058,300.20208 C 264.15155,295.58792 262.59571,290.90021 261.01256,286.27997 C 259.42939,281.65977 257.66823,278.05856 255.88921,275.25369 C 254.11018,272.44884 252.32822,270.44628 250.54312,269.01657 C 248.75807,267.58692 246.96545,266.7269 245.36411,266.23216 C 243.76277,265.73746 242.30387,265.6196 241.07609,265.6196 C 238.6206,265.6196 236.53344,265.79562 234.56058,266.39922 C 232.58769,267.00286 230.73731,268.03727 228.936,269.62917 C 227.17075,271.18924 225.31321,273.21026 223.53426,276.08902 C 222.64478,277.52842 221.79214,279.21254 220.97256,281.10097 C 220.15308,282.98944 219.39007,285.08802 218.68936,287.50515 C 217.29312,292.32171 216.09928,297.78274 215.62649,303.32068 C 215.54084,304.32422 215.60732,305.32232 215.57082,306.32783 C 215.93474,310.69031 216.59317,314.42362 217.85402,316.63019 C 224.05744,327.48611 231.30466,328.51576 241.63298,328.04627 C 250.16266,327.65855 257.4039,327.22444 261.24858,324.62337 C 263.4799,323.11384 266.32504,318.51876 266.97123,312.50925 C 267.2482,309.93316 265.61794,301.47661 265.30058,300.20208 z"
       id="path3057"
       sodipodi:nodetypes="cssssssssssscsssss" />
    <path
       style="fill:#b27ee6;fill-opacity:1;fill-rule:evenodd;stroke:#000000;stroke-width:3.60937858;stroke-linecap:butt;stroke-linejoin:miter;stroke-miterlimit:4;stroke-dasharray:none;stroke-opacity:1"
       d="M 391.49048,120.38424 C 390.81928,120.17045 390.20012,119.82735 389.48571,119.82735 C 388.13025,119.82735 386.81814,120.20835 385.64323,120.94112 C 384.46825,121.67389 383.41354,122.74972 382.52465,124.05967 C 381.63574,125.36962 380.90575,126.95028 380.40851,128.68181 C 379.91126,130.41333 379.62889,132.30884 379.62889,134.30635 C 379.62889,136.30382 379.91126,138.19934 380.40851,139.93087 C 380.90575,141.66238 381.63574,143.24306 382.52465,144.55299 C 383.41354,145.86296 384.46825,146.88309 385.64323,147.61588 C 386.80256,148.33893 388.09423,148.77473 389.43002,148.78532 C 389.51028,148.78621 389.57338,148.73127 389.65279,148.72964 C 390.94246,148.69537 392.14976,148.31608 393.27252,147.61588 C 394.38399,146.9227 395.36597,145.93347 396.22402,144.72007 C 396.44872,144.37408 396.63882,143.98401 396.83657,143.60631 C 397.27725,142.84602 397.62288,141.98438 397.95034,141.10033 C 398.37482,139.76965 398.75749,138.39624 398.89704,136.9237 C 399.49876,130.5749 397.23943,123.57077 391.49048,120.38424 z"
       id="path3062" />
    <path
       sodipodi:type="arc"
       style="fill:#7e7ece;fill-opacity:1;fill-rule:nonzero;stroke:#000000;stroke-width:2.02543235;stroke-linecap:square;stroke-linejoin:miter;stroke-miterlimit:4;stroke-dasharray:none;stroke-dashoffset:0;stroke-opacity:1"
       id="path2210"
       sodipodi:cx="102.69191"
       sodipodi:cy="180.20618"
       sodipodi:rx="14.332961"
       sodipodi:ry="10.529643"
       d="M 117.02487,180.20618 A 14.332961,10.529643 0 1 1 88.358949,180.20618 A 14.332961,10.529643 0 1 1 117.02487,180.20618 z"
       transform="matrix(1.366833,-1.143413,1.143413,1.366833,-183.1139,171.2117)" />
    <path
       sodipodi:type="arc"
       style="fill:#e69a66;fill-opacity:1;fill-rule:nonzero;stroke:#000000;stroke-width:2.02543163;stroke-linecap:square;stroke-linejoin:miter;stroke-miterlimit:4;stroke-dasharray:none;stroke-dashoffset:0;stroke-opacity:1"
       id="path2212"
       sodipodi:cx="194.79553"
       sodipodi:cy="133.21158"
       sodipodi:rx="13.916938"
       sodipodi:ry="7.7995863"
       d="M 208.71247,133.21158 A 13.916938,7.7995863 0 1 1 180.87859,133.21158 A 13.916938,7.7995863 0 1 1 208.71247,133.21158 z"
       transform="matrix(1.455665,1.027942,-1.027942,1.455665,179.5149,-178.0504)" />
    <path
       style="fill:#e69a66;fill-opacity:1;fill-rule:evenodd;stroke:#000000;stroke-width:3.60937858;stroke-linecap:butt;stroke-linejoin:miter;stroke-miterlimit:4;stroke-dasharray:none;stroke-opacity:1"
       d="M 419.44609,207.31382 C 418.39749,207.55168 417.32625,207.65685 416.38322,208.31622 C 414.96089,209.31071 413.67241,210.77076 412.59637,212.54855 C 411.52039,214.32633 410.63665,216.43573 410.03472,218.78564 C 409.4328,221.13558 409.08803,223.70409 409.08803,226.41496 C 409.08803,229.12582 409.4328,231.75003 410.03472,234.09997 C 410.63665,236.44988 411.52039,238.55926 412.59637,240.33706 C 413.67241,242.11485 414.96089,243.51922 416.38322,244.51371 C 417.80553,245.50818 419.36454,246.07295 421.00533,246.07295 C 421.02289,246.07276 421.04348,246.07317 421.06104,246.07295 C 422.68238,246.06122 424.22057,245.4974 425.62751,244.51371 C 427.04982,243.51922 428.33826,242.11485 429.4143,240.33706 C 430.49032,238.55926 431.37406,236.44988 431.97594,234.09997 C 432.57787,231.75003 432.86698,229.12582 432.86698,226.41496 C 432.86698,223.70409 432.57787,221.13558 431.97594,218.78564 C 431.37406,216.43573 430.49032,214.32633 429.4143,212.54855 C 428.33826,210.77076 427.04982,209.31071 425.62751,208.31622 C 424.63288,207.62083 423.50837,207.48281 422.39754,207.25815 C 421.43613,207.26792 420.52749,207.30211 419.44609,207.31382 z"
       id="path4871" />
    <path
       style="fill:#e69a66;fill-opacity:1;fill-rule:evenodd;stroke:#000000;stroke-width:3.60937858;stroke-linecap:butt;stroke-linejoin:miter;stroke-miterlimit:4;stroke-dasharray:none;stroke-opacity:1"
       d="M 405.13416,165.65892 C 403.69649,165.77942 402.27589,166.09843 401.01322,166.93975 C 399.55997,167.90807 398.27013,169.32968 397.17072,171.06068 C 396.07125,172.79169 395.16837,174.84264 394.55337,177.13072 C 393.93834,179.41882 393.60667,181.95343 393.60667,184.59297 C 393.60667,187.2325 393.93834,189.71146 394.55337,191.99952 C 395.16837,194.28758 396.07125,196.33855 397.17072,198.06956 C 398.27013,199.80056 399.55997,201.22219 401.01322,202.19049 C 402.34788,203.07981 403.82944,203.50308 405.3569,203.58271 C 405.73687,203.57826 405.82761,203.58657 406.19223,203.58271 C 407.70025,203.4938 409.16113,203.06946 410.48025,202.19049 C 411.93346,201.22219 413.22332,199.80056 414.32273,198.06956 C 415.42216,196.33855 416.32508,194.28762 416.9401,191.99952 C 417.55511,189.71144 417.88681,187.2325 417.88681,184.59297 C 417.88681,181.95343 417.55511,179.4188 416.9401,177.13072 C 416.32508,174.84265 415.42216,172.79169 414.32273,171.06068 C 413.22332,169.32968 411.93346,167.90807 410.48025,166.93975 C 409.23307,166.10874 407.83335,165.78752 406.41497,165.65892 C 405.8764,165.65563 405.71439,165.66164 405.13416,165.65892 z"
       id="path3986" />
    <path
       style="fill:#ffffff;fill-opacity:1;fill-rule:evenodd;stroke:#000000;stroke-width:3.60937858;stroke-linecap:butt;stroke-linejoin:miter;stroke-miterlimit:4;stroke-dasharray:none;stroke-opacity:1"
       d="M 342.16313,297.15379 C 343.06784,271.04784 350.1759,266.50235 353.27757,263.65914 C 354.8284,262.23755 357.86549,260.94518 360.51483,260.00819 C 363.16424,259.07122 365.88175,258.31412 366.97671,255.9049 C 368.08601,253.4642 367.97848,250.99583 366.33056,249.0553 C 364.73795,247.18004 357.70033,248.01127 353.37449,250.63847 C 349.24794,253.14463 343.57985,258.24142 341.00003,264.30532 C 336.90405,273.93294 339.70766,293.01814 342.16313,297.15379 z"
       id="path4878"
       sodipodi:nodetypes="csszzssc" />
    <path
       style="fill:#ffffff;fill-opacity:1;fill-rule:evenodd;stroke:#000000;stroke-width:3.60937858;stroke-linecap:butt;stroke-linejoin:miter;stroke-miterlimit:4;stroke-dasharray:none;stroke-opacity:1"
       d="M 342.24173,297.87023 C 329.18847,275.24394 320.6069,274.2442 316.53353,273.18967 C 314.49686,272.66243 311.2085,272.94694 308.42935,273.36326 C 305.65016,273.77957 302.89528,274.38671 300.79751,272.77343 C 298.67236,271.13907 297.60859,268.90907 298.15279,266.42207 C 298.67871,264.01867 305.283,261.44907 310.33587,261.73821 C 315.15593,262.01407 322.33227,264.14304 327.67766,267.99698 C 335.09152,273.3423 339.17873,286.21208 342.24173,297.87023 z"
       id="path5753"
       sodipodi:nodetypes="csszzssc" />
    <path
       style="fill:#ffffff;fill-opacity:1;fill-rule:evenodd;stroke:#000000;stroke-width:3.60937858;stroke-linecap:butt;stroke-linejoin:miter;stroke-miterlimit:4;stroke-dasharray:none;stroke-opacity:1"
       d="M 218.80589,371.49375 C 211.17763,357.49837 207.51365,347.70413 208.22645,339.54653 C 208.71365,333.9712 211.45859,330.05212 213.15816,327.86353 C 215.18176,325.25774 219.76971,323.84286 220.60343,322.0114 C 221.26902,320.54931 220.34649,317.00802 218.30661,315.54321 C 216.33531,314.12761 209.21968,316.31073 205.76338,319.93947 C 202.46628,323.40097 197.76361,329.95355 198.03482,336.66213 C 199.01212,360.83755 215.2021,369.14059 218.80589,371.49375 z"
       id="path5755"
       sodipodi:nodetypes="csszzssc" />
    <path
       style="fill:#ffffff;fill-opacity:1;fill-rule:evenodd;stroke:#000000;stroke-width:3.60937858;stroke-linecap:butt;stroke-linejoin:miter;stroke-miterlimit:4;stroke-dasharray:none;stroke-opacity:1"
       d="M 218.45883,371.50651 C 194.76511,368.42164 186.46294,371.16912 179.62814,377.36075 C 177.94055,378.88951 176.54533,382.05034 175.65024,384.77639 C 174.75513,387.50255 174.20443,389.63427 171.47361,390.94261 C 168.70711,392.26804 165.8169,392.38261 163.42734,390.91368 C 161.11812,389.49406 161.5602,382.4016 164.30294,377.85187 C 166.91928,373.51181 172.13543,366.842 178.94373,363.63814 C 191.7529,357.61036 207.88834,363.4846 218.45883,371.50651 z"
       id="path5757"
       sodipodi:nodetypes="csszzssc" />
    <path
       style="fill:#ffffff;fill-opacity:1;fill-rule:evenodd;stroke:#000000;stroke-width:3.60937858;stroke-linecap:butt;stroke-linejoin:round;stroke-miterlimit:4;stroke-dasharray:none;stroke-opacity:1"
       d="M 226.36656,285.37102 C 240.58267,308.246 234.1208,318.3265 231.27758,320.52355 C 228.43439,322.72058 224.02379,323.74611 220.68015,320.91123 C 216.95373,317.75188 214.23395,306.91816 216.15684,303.07647 C 217.65541,300.08255 218.74157,304.23964 221.71405,304.23964 C 225.84963,304.23964 227.78818,300.10406 228.04667,296.4854 C 228.30513,292.86678 226.23736,285.1125 226.36656,285.37102 z"
       id="path1327"
       sodipodi:nodetypes="csssssc" />
    <path
       style="fill:#ffffff;fill-opacity:1;fill-rule:evenodd;stroke:#000000;stroke-width:3.60937858;stroke-linecap:butt;stroke-linejoin:round;stroke-miterlimit:4;stroke-dasharray:none;stroke-opacity:1"
       d="M 256.39432,288.45115 C 242.17822,311.32616 248.6401,321.40667 251.48329,323.6037 C 254.32655,325.80074 258.7371,326.82627 262.08075,323.99142 C 265.80717,320.83203 268.52699,309.9983 266.6041,306.15667 C 265.10552,303.16275 264.01936,307.31981 261.04689,307.31981 C 256.9113,307.31981 254.97275,303.18419 254.71427,299.56559 C 254.45577,295.94693 256.52358,288.19269 256.39432,288.45115 z"
       id="path3077"
       sodipodi:nodetypes="csssssc" />
    <path
       style="fill:#ffffff;fill-opacity:1;fill-rule:evenodd;stroke:#000000;stroke-width:3.60937858;stroke-linecap:butt;stroke-linejoin:round;stroke-miterlimit:4;stroke-dasharray:none;stroke-opacity:1"
       d="M 268.52654,288.18232 C 294.14779,296.48371 295.71626,308.35434 294.96199,311.86746 C 294.20766,315.38056 291.50008,319.01013 287.11639,319.00213 C 282.23092,318.9932 273.16225,312.47201 272.15221,308.29643 C 271.36508,305.04224 274.87736,307.51704 277.14815,305.59895 C 280.30747,302.93028 279.11973,298.51999 276.98206,295.58883 C 274.84447,292.65762 268.26101,288.06823 268.52654,288.18232 z"
       id="path3079"
       sodipodi:nodetypes="csssssc" />
    <path
       style="fill:#ffffff;fill-opacity:1;fill-rule:evenodd;stroke:#000000;stroke-width:3.60937858;stroke-linecap:butt;stroke-linejoin:round;stroke-miterlimit:4;stroke-dasharray:none;stroke-opacity:1"
       d="M 285.336,270.34587 C 289.61479,296.93641 301.10508,300.30473 304.69227,300.09745 C 308.27942,299.89018 312.28097,297.77052 312.9445,293.43737 C 313.68404,288.60823 308.62899,278.64765 304.65736,277.00989 C 301.56218,275.73355 303.46976,279.58347 301.22646,281.53364 C 298.10533,284.24686 293.92905,282.39761 291.3599,279.83615 C 288.79074,277.27478 285.26397,270.06604 285.336,270.34587 z"
       id="path3081"
       sodipodi:nodetypes="csssssc" />
    <path
       sodipodi:type="arc"
       style="fill:#7e7ece;fill-opacity:1;fill-rule:nonzero;stroke:#000000;stroke-width:2.02543235;stroke-linecap:square;stroke-linejoin:round;stroke-miterlimit:4;stroke-dasharray:none;stroke-dashoffset:0;stroke-opacity:1"
       id="path12788"
       sodipodi:cx="399.45413"
       sodipodi:cy="127.84491"
       sodipodi:rx="15.664867"
       sodipodi:ry="9.4279299"
       d="M 415.119,127.84491 A 15.664867,9.4279299 0 1 1 383.78926,127.84491 A 15.664867,9.4279299 0 1 1 415.119,127.84491 z"
       transform="matrix(1.74084,-0.380919,0.380919,1.74084,-588.0477,126.4936)" />
  </g>
</svg>
