<svg xmlns="http://www.w3.org/2000/svg" xmlns:xlink="http://www.w3.org/1999/xlink" width="1920" zoomAndPan="magnify" viewBox="0 0 1440 809.999993" height="1080" preserveAspectRatio="xMidYMid meet" version="1.0"><defs><clipPath id="39129a1da4"><path d="M 140 529 L 524 529 L 524 805.449219 L 140 805.449219 Z M 140 529 " clip-rule="nonzero"/></clipPath></defs><rect x="-144" width="1728" fill="#ffffff" y="-80.999999" height="971.999992" fill-opacity="1"/><rect x="-144" width="1728" fill="#efefef" y="-80.999999" height="971.999992" fill-opacity="1"/><path fill="#f5877a" d="M 650.171875 57.492188 C 652.375 36.742188 661.21875 25.824219 671.609375 17.511719 C 686.257812 5.78125 703.175781 3.21875 716.921875 3.21875 C 744.5625 3.21875 780.429688 22.046875 780.429688 76.453125 C 780.429688 130.367188 708.375 189.949219 653.722656 241.566406 C 652.753906 242.476562 651.5 242.96875 650.171875 242.96875 C 648.847656 242.96875 647.59375 242.476562 646.625 241.566406 C 591.972656 189.949219 519.925781 130.367188 519.925781 76.453125 C 519.925781 22.046875 555.785156 3.21875 583.425781 3.21875 C 597.171875 3.21875 614.078125 5.78125 628.738281 17.511719 C 639.128906 25.824219 647.972656 36.742188 650.171875 57.492188 " fill-opacity="1" fill-rule="nonzero"/><path fill="#424242" d="M 583.425781 6.449219 C 561.039062 6.449219 523.15625 21.191406 523.15625 76.453125 C 523.15625 122.609375 579.347656 174.695312 628.933594 220.65625 C 635.714844 226.933594 642.398438 233.140625 648.847656 239.21875 C 649.550781 239.890625 650.785156 239.890625 651.511719 239.21875 C 657.949219 233.140625 664.632812 226.933594 671.414062 220.65625 C 721 174.695312 777.191406 122.609375 777.191406 76.453125 C 777.191406 21.191406 739.308594 6.449219 716.921875 6.449219 C 699.214844 6.449219 685.042969 10.890625 673.625 20.03125 C 664.851562 27.054688 655.585938 37.035156 653.382812 57.832031 C 653.214844 59.476562 651.832031 60.71875 650.171875 60.71875 C 648.527344 60.71875 647.132812 59.476562 646.964844 57.832031 C 644.761719 37.035156 635.496094 27.054688 626.722656 20.03125 C 615.300781 10.890625 601.132812 6.449219 583.425781 6.449219 Z M 650.171875 246.195312 C 648.019531 246.195312 645.976562 245.386719 644.410156 243.917969 C 637.980469 237.847656 631.316406 231.660156 624.546875 225.390625 C 573.992188 178.539062 516.695312 125.433594 516.695312 76.453125 C 516.695312 23.640625 550.210938 -0.0078125 583.425781 -0.0078125 C 602.660156 -0.0078125 618.144531 4.894531 630.761719 14.996094 C 637.71875 20.570312 645.636719 28.457031 650.171875 41.976562 C 654.710938 28.457031 662.628906 20.570312 669.585938 14.996094 C 682.203125 4.894531 697.679688 -0.0078125 716.921875 -0.0078125 C 750.136719 -0.0078125 783.660156 23.640625 783.660156 76.453125 C 783.660156 125.433594 726.355469 178.539062 675.800781 225.390625 C 669.03125 231.660156 662.367188 237.847656 655.933594 243.917969 C 654.371094 245.386719 652.320312 246.195312 650.171875 246.195312 " fill-opacity="1" fill-rule="nonzero"/><path fill="#424242" d="M 426.976562 190.523438 C 426.910156 190.523438 426.84375 190.523438 426.777344 190.511719 C 424.753906 190.425781 423.089844 189.054688 422.636719 187.074219 L 410.851562 136.222656 L 388.566406 168.445312 C 387.746094 169.640625 386.371094 170.355469 384.914062 170.355469 L 345.15625 170.355469 C 343.375 170.355469 341.925781 168.917969 341.925781 167.128906 C 341.925781 165.347656 343.375 163.898438 345.15625 163.898438 L 383.859375 163.898438 L 408.121094 128.804688 C 409.136719 127.363281 410.898438 126.636719 412.621094 126.96875 C 414.34375 127.296875 415.71875 128.613281 416.113281 130.328125 L 427.289062 178.527344 L 432.078125 163.683594 C 432.671875 161.847656 434.367188 160.605469 436.304688 160.605469 L 474.59375 160.605469 L 487.605469 132.871094 C 488.453125 131.070312 490.34375 130.066406 492.320312 130.367188 C 494.289062 130.6875 495.785156 132.21875 496.039062 134.207031 L 500.90625 172.917969 L 502.960938 162.917969 C 503.382812 160.859375 505.210938 159.371094 507.320312 159.371094 L 519.925781 159.371094 C 521.703125 159.371094 523.15625 160.8125 523.15625 162.597656 C 523.15625 164.378906 521.703125 165.828125 519.925781 165.828125 L 508.957031 165.828125 L 504.777344 186.144531 C 504.335938 188.289062 502.394531 189.777344 500.25 189.691406 C 498.074219 189.609375 496.296875 187.96875 496.011719 185.804688 L 490.496094 141.90625 L 479.894531 164.5 C 479.171875 166.054688 477.589844 167.0625 475.875 167.0625 L 437.773438 167.0625 L 431.195312 187.441406 C 430.59375 189.308594 428.90625 190.523438 426.976562 190.523438 " fill-opacity="1" fill-rule="nonzero"/><path fill="#424242" d="M 849.851562 190.523438 C 849.777344 190.523438 849.722656 190.523438 849.65625 190.511719 C 847.632812 190.425781 845.976562 189.042969 845.511719 187.074219 L 834 137.40625 L 819.332031 168.003906 C 819.257812 168.152344 819.171875 168.3125 819.078125 168.453125 C 818.238281 169.640625 816.875 170.355469 815.425781 170.355469 L 768.042969 170.355469 C 766.253906 170.355469 764.8125 168.917969 764.8125 167.128906 C 764.8125 165.347656 766.253906 163.898438 768.042969 163.898438 L 814.136719 163.898438 L 830.75 129.246094 C 830.828125 129.09375 830.910156 128.945312 831.003906 128.804688 C 832.003906 127.363281 833.753906 126.648438 835.496094 126.96875 C 837.21875 127.296875 838.59375 128.613281 838.988281 130.328125 L 850.550781 180.195312 L 859.078125 163.363281 C 859.757812 161.707031 861.375 160.605469 863.195312 160.605469 L 897.472656 160.605469 L 910.480469 132.871094 C 911.328125 131.070312 913.269531 130.066406 915.199219 130.367188 C 917.175781 130.6875 918.671875 132.21875 918.917969 134.207031 L 924.433594 178.027344 L 931.730469 162.429688 C 932.3125 160.632812 934.019531 159.371094 935.949219 159.371094 L 948.5625 159.371094 C 950.351562 159.371094 951.792969 160.8125 951.792969 162.597656 C 951.792969 164.378906 950.351562 165.828125 948.5625 165.828125 L 937.277344 165.828125 L 927.542969 186.625 C 926.929688 188.507812 925.140625 189.757812 923.136719 189.691406 C 920.949219 189.609375 919.171875 187.96875 918.898438 185.804688 L 913.371094 141.90625 L 902.78125 164.5 C 902.046875 166.0625 900.457031 167.0625 898.761719 167.0625 L 864.445312 167.0625 L 853.957031 187.753906 C 853.28125 189.4375 851.6875 190.523438 849.851562 190.523438 " fill-opacity="1" fill-rule="nonzero"/><path fill="#edf7fb" d="M 520.234375 695.539062 C 521.214844 662.597656 502.6875 598.621094 480.742188 543.566406 C 478.464844 537.816406 473.03125 533.9375 466.855469 533.71875 C 369.230469 530.414062 272.101562 537.109375 154.324219 581.496094 C 147.019531 584.246094 142.839844 591.945312 144.636719 599.550781 C 148.6875 616.742188 157.066406 648.007812 170.113281 676.925781 C 178.285156 695.019531 185.167969 713.652344 190.128906 732.875 C 195.796875 754.828125 205.804688 782.082031 221.496094 788.265625 C 248.707031 798.988281 291.984375 810.105469 371.535156 794.441406 C 451.085938 778.785156 476.28125 765.285156 496.898438 751.582031 C 514.425781 736.886719 519.597656 715.75 520.234375 695.539062 " fill-opacity="1" fill-rule="nonzero"/><path fill="#98d4eb" d="M 176.460938 589.480469 C 279.585938 550.609375 364.632812 544.742188 450.125 547.644531 C 455.53125 547.832031 460.285156 551.238281 462.289062 556.265625 C 486.34375 616.640625 505.71875 689.277344 492.71875 705.414062 C 479.113281 722.320312 401.21875 734.683594 355.871094 740.867188 C 310.53125 747.050781 246.917969 749.105469 213.804688 711.609375 C 188.433594 682.859375 173.539062 628.941406 167.96875 605.3125 C 166.394531 598.648438 170.046875 591.890625 176.460938 589.480469 " fill-opacity="1" fill-rule="nonzero"/><path fill="#ffeede" d="M 829.914062 339.828125 C 589.996094 371.976562 574.285156 368.15625 393.800781 369.90625 C 344.882812 353.835938 337.679688 341.457031 311.058594 328.898438 C 284.441406 316.339844 270.839844 306.757812 211.960938 302.484375 C 193.886719 300.054688 181.636719 294.820312 174.773438 296.402344 C 167.921875 297.992188 140.589844 314.515625 127.144531 318.824219 C 116.808594 327.675781 119.898438 329.324219 125.046875 334.886719 C 130.195312 340.449219 142.746094 343.492188 142.746094 343.492188 C 142.746094 343.492188 126.46875 355.8125 136.164062 368.4375 C 145.863281 381.042969 153.367188 379.828125 153.367188 379.828125 C 153.367188 379.828125 140.496094 395.796875 166.988281 413.984375 C 162.96875 430.710938 162.96875 437.921875 182.34375 443.695312 C 177.195312 457.503906 171.007812 458.945312 201.105469 489.652344 C 208.167969 499.273438 218.128906 505.949219 218.128906 505.949219 L 270.78125 500.167969 C 270.78125 500.167969 306.699219 492.9375 324.039062 488.050781 C 341.371094 483.167969 358.335938 479.570312 388.332031 486.265625 C 418.316406 492.957031 467.394531 499.046875 495.402344 500.367188 C 523.398438 501.683594 579.640625 507.210938 740.023438 506.4375 C 801.011719 503.847656 866.667969 502.972656 866.667969 502.972656 L 913.796875 506.4375 L 876.28125 390.9375 L 829.914062 339.828125 " fill-opacity="1" fill-rule="nonzero"/><path fill="#79a8c6" d="M 1083.792969 181.777344 C 1083.792969 181.777344 1069.785156 163.003906 1059.0625 169.605469 C 1048.347656 176.203125 1053.96875 218.90625 1053.96875 218.90625 C 1053.96875 218.90625 1069.898438 303.378906 1122.53125 351.992188 C 1175.167969 400.597656 1199.75 388.820312 1202 387.03125 C 1204.25 385.242188 1209.371094 374.039062 1207.167969 365.378906 C 1204.976562 356.726562 1083.792969 181.777344 1083.792969 181.777344 " fill-opacity="1" fill-rule="nonzero"/><path fill="#79a8c6" d="M 1197.640625 389.414062 C 1167.882812 404.785156 1009.699219 480.363281 954.429688 504.1875 C 938.179688 511.164062 919.359375 510.355469 904.355469 501.023438 C 859.945312 473.421875 819.785156 394.128906 832.210938 317.800781 C 833.445312 310.210938 837.339844 303.273438 843.121094 298.171875 C 894.109375 253.097656 1037.144531 173.351562 1058.289062 167.476562 C 1051.605469 170.960938 1042.632812 226.878906 1080.121094 292.910156 C 1097.941406 324.285156 1121.96875 353.609375 1151.992188 373.625 C 1166.742188 383.472656 1187.867188 393.09375 1197.640625 389.414062 " fill-opacity="1" fill-rule="nonzero"/><path fill="#ffeede" d="M 1167.789062 107.902344 L 1076.636719 187.292969 C 1076.636719 187.292969 1061.535156 219.882812 1099.871094 282.949219 C 1138.199219 346.011719 1180.675781 373.925781 1194.664062 372.390625 C 1208.664062 370.855469 1213.636719 360.292969 1213.636719 360.292969 L 1250.304688 338.144531 L 1167.789062 107.902344 " fill-opacity="1" fill-rule="nonzero"/><path fill="#4c6489" d="M 1210.746094 59.28125 C 1227.777344 169.1875 1319.558594 313.863281 1319.558594 313.863281 C 1276.75 337.484375 1258.976562 344.714844 1258.976562 344.714844 C 1258.976562 344.714844 1249.082031 341.476562 1229.707031 305.617188 C 1210.332031 269.757812 1171.542969 173.3125 1167.789062 125.226562 C 1164.578125 100.496094 1172.382812 92.203125 1172.382812 92.203125 L 1210.746094 59.28125 " fill-opacity="1" fill-rule="nonzero"/><path fill="#edf7fb" d="M 142.3125 593.914062 C 134.941406 613.230469 134.535156 636.984375 140.101562 664.953125 C 145.664062 692.921875 181.128906 758.546875 205.992188 777.949219 C 197.59375 754.199219 178.632812 698.144531 178.632812 698.144531 C 178.632812 698.144531 158.582031 653.628906 153.082031 628.066406 C 147.585938 602.519531 142.3125 593.914062 142.3125 593.914062 " fill-opacity="1" fill-rule="nonzero"/><path fill="#7986a6" d="M 471.527344 685.277344 C 426.054688 697.65625 378.390625 705.761719 328.738281 709.941406 C 323.710938 710.375 319.132812 706.976562 317.984375 702.0625 C 308.855469 662.898438 298.78125 625.320312 287.664062 589.5 C 285.902344 583.832031 289.289062 577.835938 295.089844 576.554688 C 343.347656 565.871094 391.691406 561.238281 440.128906 563.074219 C 444.148438 563.222656 447.726562 565.765625 449.214844 569.503906 C 463.128906 604.503906 472.898438 639.261719 478.859375 673.792969 C 479.746094 678.914062 476.542969 683.910156 471.527344 685.277344 " fill-opacity="1" fill-rule="nonzero"/><path fill="#edf7fb" d="M 457 669.421875 C 427.324219 677.5 396.238281 682.792969 363.84375 685.511719 C 360.566406 685.792969 357.582031 683.59375 356.828125 680.382812 C 350.871094 654.832031 341.269531 618.503906 334.007812 595.128906 C 332.871094 591.429688 335.074219 587.523438 338.859375 586.683594 C 370.347656 579.71875 401.886719 576.695312 433.480469 577.890625 C 436.109375 577.984375 438.445312 579.640625 439.414062 582.082031 C 448.488281 604.929688 457.894531 639.410156 461.78125 661.929688 C 462.367188 665.28125 460.277344 668.539062 457 669.421875 " fill-opacity="1" fill-rule="nonzero"/><path fill="#f5877a" d="M 287.851562 682.773438 C 293.253906 700.160156 285.523438 717.011719 270.601562 720.402344 C 255.679688 723.789062 239.214844 712.457031 233.820312 695.066406 C 228.425781 677.671875 236.15625 660.820312 251.070312 657.429688 C 265.988281 654.042969 282.457031 665.394531 287.851562 682.773438 " fill-opacity="1" fill-rule="nonzero"/><path fill="#efefef" d="M 239.988281 611.179688 C 243.207031 620.347656 238.539062 629.535156 229.566406 631.664062 C 220.585938 633.808594 210.691406 628.105469 207.480469 618.925781 C 204.25 609.75 208.921875 600.558594 217.902344 598.433594 C 226.875 596.285156 236.769531 602 239.988281 611.179688 " fill-opacity="1" fill-rule="nonzero"/><path fill="#98d4eb" d="M 326.027344 610.558594 C 320.199219 612.140625 314.089844 613.175781 307.714844 613.722656 C 307.066406 613.769531 306.480469 613.335938 306.339844 612.703125 C 305.164062 607.6875 303.269531 600.542969 301.851562 595.945312 C 301.625 595.210938 302.058594 594.449219 302.800781 594.28125 C 308.984375 592.914062 315 591.445312 321.214844 591.683594 C 321.734375 591.703125 322.195312 592.019531 322.382812 592.5 C 324.171875 596.992188 326.203125 604.644531 326.96875 609.078125 C 327.089844 609.730469 326.675781 610.378906 326.027344 610.558594 " fill-opacity="1" fill-rule="nonzero"/><path fill="#98d4eb" d="M 331.597656 630.1875 C 332.117188 630.214844 332.570312 630.535156 332.757812 631.015625 C 334.546875 635.515625 336.578125 643.167969 337.351562 647.59375 C 337.464844 648.25 337.050781 648.890625 336.402344 649.0625 C 330.574219 650.652344 324.464844 651.6875 318.089844 652.234375 C 317.449219 652.28125 316.855469 651.847656 316.707031 651.21875 C 315.546875 646.199219 313.644531 639.042969 312.222656 634.460938 C 312 633.726562 312.441406 632.964844 313.175781 632.792969 C 319.371094 631.429688 325.386719 629.949219 331.597656 630.1875 " fill-opacity="1" fill-rule="nonzero"/><path fill="#98d4eb" d="M 346.785156 687.574219 C 340.949219 689.164062 334.835938 690.199219 328.464844 690.738281 C 327.824219 690.792969 327.242188 690.359375 327.089844 689.730469 C 325.914062 684.710938 324.03125 677.558594 322.597656 672.964844 C 322.375 672.238281 322.816406 671.464844 323.558594 671.304688 C 329.746094 669.941406 335.75 668.464844 341.972656 668.707031 C 342.480469 668.726562 342.945312 669.046875 343.140625 669.527344 C 344.921875 674.019531 346.964844 681.671875 347.726562 686.105469 C 347.839844 686.765625 347.425781 687.40625 346.785156 687.574219 " fill-opacity="1" fill-rule="nonzero"/><path fill="#7986a6" d="M 495.402344 577.636719 C 505.90625 575.386719 506.199219 581.722656 506.199219 581.722656 C 506.199219 581.722656 516.347656 606.714844 515.046875 613.097656 C 513.738281 619.492188 507.449219 621.910156 507.449219 621.910156 L 495.402344 577.636719 " fill-opacity="1" fill-rule="nonzero"/><path fill="#7986a6" d="M 507.449219 584.921875 C 605.25 571.46875 662.0625 589.007812 745.5625 569.316406 C 812.574219 551.683594 878.105469 492.082031 878.105469 492.082031 L 893.695312 505.242188 C 893.695312 505.242188 836.964844 557.460938 784.09375 577.109375 C 731.242188 596.746094 710.632812 597.285156 659.238281 596.992188 C 607.855469 596.691406 558.394531 593.535156 513.597656 603.109375 C 510.578125 593.472656 507.449219 584.921875 507.449219 584.921875 " fill-opacity="1" fill-rule="nonzero"/><path fill="#7986a6" d="M 880.175781 481.613281 C 876.871094 486.425781 872.34375 488.476562 882.230469 497.550781 C 892.125 506.617188 898.855469 507.304688 905.238281 503.738281 C 902.28125 498.378906 880.175781 481.613281 880.175781 481.613281 " fill-opacity="1" fill-rule="nonzero"/><path fill="#f5877a" d="M 967.582031 247.710938 L 893.808594 297.464844 C 891.824219 298.8125 890.550781 300.96875 890.289062 303.347656 C 887.285156 329.21875 902.679688 358.9375 914.859375 374.558594 C 917.296875 377.671875 921.648438 378.511719 925.101562 376.589844 L 1007.320312 330.679688 C 1011.261719 328.476562 1012.621094 323.449219 1010.3125 319.558594 C 997.058594 297.265625 984.574219 274.992188 979.980469 252.878906 C 978.792969 247.214844 972.371094 244.472656 967.582031 247.710938 " fill-opacity="1" fill-rule="nonzero"/><path fill="#edf7fb" d="M 923.125 309.128906 C 920.375 304.015625 918.445312 298.8125 917.855469 295.121094 C 917.710938 294.253906 918.078125 293.398438 918.8125 292.917969 L 940.503906 278.964844 C 941.632812 278.230469 943.140625 278.710938 943.660156 279.953125 C 945.597656 284.660156 947.660156 289.144531 950.042969 292.757812 C 950.691406 293.738281 952.007812 293.953125 952.988281 293.304688 C 956.660156 290.867188 960.746094 288.378906 965.125 285.867188 C 966.273438 285.199219 967.777344 285.734375 968.230469 286.988281 C 970.960938 294.792969 975.609375 304.382812 979.386719 310.109375 C 980.101562 311.191406 979.695312 312.648438 978.519531 313.207031 C 974.433594 315.117188 970.132812 317.328125 966.179688 320.386719 C 965.425781 320.972656 965.152344 322.027344 965.5 322.910156 C 967.382812 327.617188 969.464844 331.460938 971.621094 334.988281 C 972.242188 336.015625 971.921875 337.351562 970.886719 337.964844 L 948.582031 351.34375 C 947.621094 351.917969 946.371094 351.652344 945.730469 350.738281 C 943.507812 347.59375 941.324219 344.921875 938.847656 338.351562 C 938.386719 337.097656 936.871094 336.550781 935.730469 337.257812 C 932.503906 339.28125 929.027344 341.703125 925.480469 344.242188 C 924.878906 344.667969 924.078125 344.816406 923.410156 344.496094 C 918.371094 342.097656 911 327.402344 910.40625 320.886719 C 910.332031 320.097656 910.6875 319.34375 911.339844 318.890625 C 915.292969 316.191406 919.117188 313.636719 922.230469 312.019531 C 923.277344 311.464844 923.679688 310.175781 923.125 309.128906 " fill-opacity="1" fill-rule="nonzero"/><path fill="#424242" d="M 281.683594 397.679688 C 281.488281 397.679688 281.289062 397.660156 281.089844 397.613281 C 257.140625 393.148438 245.117188 372.410156 241.164062 365.59375 L 240.824219 365.011719 C 239.046875 361.960938 236.183594 359.636719 232.765625 358.46875 C 228.117188 356.878906 225.253906 355.371094 222.476562 353.910156 C 220.96875 353.121094 219.453125 352.332031 217.609375 351.5 C 215.980469 350.777344 215.257812 348.875 215.980469 347.238281 C 216.707031 345.609375 218.609375 344.875 220.246094 345.609375 C 222.222656 346.492188 223.859375 347.351562 225.480469 348.207031 C 228.152344 349.609375 230.675781 350.9375 234.855469 352.359375 C 239.742188 354.023438 243.847656 357.367188 246.410156 361.753906 L 246.757812 362.355469 C 250.335938 368.542969 261.234375 387.351562 282.269531 391.265625 C 284.027344 391.597656 285.175781 393.28125 284.855469 395.03125 C 284.566406 396.585938 283.210938 397.679688 281.683594 397.679688 " fill-opacity="1" fill-rule="nonzero"/><path fill="#424242" d="M 197.847656 344.207031 C 197.171875 344.207031 196.492188 344 195.910156 343.554688 C 193.074219 341.417969 190.214844 338.765625 188.519531 337.136719 L 187.210938 337.636719 C 183.125 339.207031 179.59375 340.570312 175.800781 341.832031 C 174.113281 342.390625 172.277344 341.484375 171.714844 339.800781 C 171.148438 338.105469 172.0625 336.269531 173.757812 335.714844 C 177.410156 334.492188 180.875 333.152344 184.886719 331.609375 L 188.152344 330.359375 C 189.347656 329.898438 190.703125 330.199219 191.605469 331.121094 C 191.644531 331.15625 195.851562 335.433594 199.796875 338.398438 C 201.21875 339.480469 201.5 341.503906 200.429688 342.925781 C 199.796875 343.761719 198.828125 344.207031 197.847656 344.207031 " fill-opacity="1" fill-rule="nonzero"/><path fill="#424242" d="M 409.75 373.136719 C 389.703125 373.136719 370.433594 367.515625 353.976562 356.859375 C 332.109375 342.710938 299.027344 325.527344 275.308594 316.019531 C 268.382812 313.242188 261.046875 311.464844 253.515625 310.757812 C 240.722656 309.535156 217.335938 307.097656 204.4375 304.375 C 199.214844 303.265625 194.863281 302.097656 191.371094 301.164062 C 182.464844 298.773438 178.40625 297.683594 173.464844 300.570312 C 164.304688 305.9375 152.566406 312.300781 135.027344 318.75 C 126.496094 321.886719 124.640625 324.765625 124.292969 326.195312 C 123.898438 327.808594 124.832031 329.800781 127.210938 332.457031 C 132.757812 336.382812 138.320312 338.792969 144.195312 339.820312 C 145.957031 340.121094 147.132812 341.796875 146.832031 343.546875 C 146.519531 345.308594 144.875 346.484375 143.09375 346.171875 C 136.128906 344.96875 129.613281 342.136719 123.164062 337.503906 C 122.984375 337.371094 122.824219 337.230469 122.675781 337.070312 C 120.078125 334.226562 116.761719 329.859375 118.015625 324.671875 C 119.191406 319.832031 124.03125 315.917969 132.796875 312.6875 C 149.816406 306.425781 160.839844 300.488281 170.199219 295 C 177.476562 290.742188 183.339844 292.316406 193.039062 294.921875 C 196.644531 295.894531 200.71875 296.984375 205.785156 298.050781 C 218.351562 300.714844 241.464844 303.121094 254.128906 304.328125 C 262.28125 305.101562 270.21875 307.011719 277.710938 310.023438 C 301.765625 319.671875 335.316406 337.089844 357.488281 351.4375 C 372.890625 361.414062 390.957031 366.675781 409.75 366.675781 C 409.871094 366.675781 409.992188 366.675781 410.117188 366.675781 C 465.332031 366.480469 601.933594 365.171875 677.589844 357.226562 C 760.144531 348.566406 822.515625 337.84375 829.359375 336.644531 C 831.148438 336.355469 832.785156 337.523438 833.097656 339.273438 C 833.398438 341.035156 832.21875 342.699219 830.46875 343.011719 C 823.605469 344.207031 761.039062 354.964844 678.265625 363.644531 C 602.320312 371.621094 465.453125 372.9375 410.144531 373.136719 C 410.011719 373.136719 409.878906 373.136719 409.75 373.136719 " fill-opacity="1" fill-rule="nonzero"/><path fill="#424242" d="M 665.492188 511.003906 C 546.980469 511.003906 443.167969 496.460938 441.972656 496.289062 C 412.449219 494.464844 391.558594 490.527344 379.285156 487.554688 C 360.632812 483.027344 341.558594 484.390625 324.144531 491.488281 C 317.027344 494.386719 309.671875 497.382812 300.003906 499.21875 C 283.972656 502.25 276.5625 502.90625 267.1875 503.738281 C 262.574219 504.140625 257.328125 504.613281 250.324219 505.429688 C 243.058594 506.289062 238.332031 507.390625 234.527344 508.273438 C 227.34375 509.960938 223.003906 510.957031 212.335938 507.792969 C 211.800781 507.632812 211.3125 507.34375 210.914062 506.929688 C 209.851562 505.808594 184.601562 479.308594 178.699219 468.773438 C 175.441406 462.945312 174.785156 456.214844 176.902344 450.320312 C 178.679688 445.359375 182.191406 441.558594 186.53125 439.863281 C 194.035156 436.945312 218.398438 429.769531 234.199219 429.335938 C 244.1875 429.082031 249.890625 432.519531 252.914062 435.457031 C 256.21875 438.675781 258.121094 443.023438 258.121094 447.402344 C 258.121094 453.972656 254.863281 461.542969 254.722656 461.863281 C 254.003906 463.5 252.105469 464.253906 250.464844 463.539062 C 248.835938 462.824219 248.09375 460.921875 248.800781 459.285156 C 248.828125 459.226562 251.660156 452.617188 251.660156 447.402344 C 251.660156 446.160156 251.339844 442.941406 248.402344 440.078125 C 245.355469 437.105469 240.476562 435.597656 234.367188 435.796875 C 219.585938 436.191406 195.835938 443.175781 188.875 445.878906 C 186.316406 446.875 184.113281 449.34375 182.984375 452.503906 C 181.496094 456.636719 181.984375 461.421875 184.339844 465.609375 C 189.375 474.601562 211.105469 497.738281 215 501.835938 C 223.398438 504.234375 226.496094 503.519531 233.058594 501.984375 C 237.011719 501.0625 241.9375 499.914062 249.5625 499.019531 C 256.679688 498.183594 261.960938 497.710938 266.621094 497.308594 C 275.820312 496.488281 283.085938 495.847656 298.800781 492.871094 C 307.835938 491.160156 314.890625 488.289062 321.703125 485.511719 C 340.390625 477.894531 360.832031 476.425781 380.808594 481.265625 C 392.832031 484.183594 413.316406 488.042969 442.632812 489.871094 C 444.261719 490.085938 581.898438 509.386719 720.933594 503.40625 C 772.035156 501.214844 816.320312 499.988281 852.535156 499.78125 C 852.546875 499.78125 852.546875 499.78125 852.554688 499.78125 C 854.335938 499.78125 855.773438 501.222656 855.785156 502.992188 C 855.792969 504.773438 854.355469 506.230469 852.566406 506.242188 C 816.433594 506.449219 772.242188 507.664062 721.214844 509.855469 C 702.507812 510.664062 683.820312 511.003906 665.492188 511.003906 " fill-opacity="1" fill-rule="nonzero"/><path fill="#424242" d="M 852.554688 506.230469 C 850.777344 506.230469 849.335938 504.800781 849.328125 503.019531 C 849.316406 501.242188 850.757812 499.792969 852.535156 499.78125 C 857.648438 499.753906 862.347656 499.726562 866.6875 499.753906 C 868.457031 499.753906 869.90625 501.214844 869.898438 502.984375 C 869.898438 504.761719 868.445312 506.210938 866.667969 506.210938 C 862.355469 506.183594 857.667969 506.210938 852.566406 506.230469 L 852.554688 506.230469 " fill-opacity="1" fill-rule="nonzero"/><path fill="#424242" d="M 213.804688 473.394531 C 212.394531 473.394531 211.09375 472.464844 210.699219 471.042969 C 210.21875 469.328125 211.226562 467.539062 212.949219 467.058594 C 224.914062 463.734375 233.726562 452.789062 233.8125 452.683594 C 234.921875 451.289062 236.957031 451.054688 238.347656 452.15625 C 239.742188 453.257812 239.976562 455.292969 238.875 456.683594 C 238.460938 457.203125 228.71875 469.375 214.671875 473.28125 C 214.378906 473.355469 214.089844 473.394531 213.804688 473.394531 " fill-opacity="1" fill-rule="nonzero"/><path fill="#424242" d="M 244.035156 477.96875 C 242.886719 477.96875 241.785156 477.367188 241.191406 476.285156 C 241.15625 476.210938 236.625 468.09375 230.148438 467.230469 C 228.378906 466.992188 227.136719 465.375 227.371094 463.605469 C 227.609375 461.835938 229.253906 460.609375 230.996094 460.828125 C 240.75 462.125 246.625 472.753906 246.871094 473.207031 C 247.726562 474.769531 247.140625 476.738281 245.570312 477.585938 C 245.082031 477.847656 244.554688 477.96875 244.035156 477.96875 " fill-opacity="1" fill-rule="nonzero"/><path fill="#424242" d="M 242.699219 475.898438 C 242.265625 475.898438 241.824219 475.8125 241.390625 475.617188 C 239.761719 474.902344 239.027344 472.988281 239.753906 471.351562 C 245.035156 459.5 259.984375 447.742188 278.746094 440.671875 C 280.414062 440.039062 282.277344 440.886719 282.90625 442.5625 C 283.539062 444.230469 282.691406 446.085938 281.023438 446.714844 C 264.070312 453.109375 250.191406 463.800781 245.65625 473.988281 C 245.117188 475.191406 243.941406 475.898438 242.699219 475.898438 " fill-opacity="1" fill-rule="nonzero"/><path fill="#424242" d="M 181.0625 446.921875 C 180.496094 446.921875 179.914062 446.773438 179.394531 446.460938 L 178.21875 445.738281 C 166.40625 438.5625 161.980469 435.878906 162.214844 423.640625 C 162.421875 412.824219 165.03125 409.757812 170.019531 404.851562 L 170.980469 403.902344 C 176.777344 398.121094 184.5 398.175781 194.28125 398.234375 C 196.390625 398.242188 198.640625 398.253906 201.050781 398.222656 C 204.804688 398.167969 208.582031 398.035156 212.261719 397.914062 C 221.78125 397.59375 230.769531 397.292969 237.40625 398.234375 C 248.28125 399.777344 254.710938 411.769531 258.96875 419.707031 C 264.265625 429.574219 260.886719 434.234375 256.960938 438.148438 C 256.019531 439.089844 255.070312 439.976562 254.195312 440.757812 C 252.867188 441.941406 250.824219 441.8125 249.636719 440.484375 C 248.449219 439.15625 248.574219 437.105469 249.910156 435.925781 C 250.691406 435.222656 251.546875 434.429688 252.394531 433.582031 C 255.117188 430.871094 256.753906 429.234375 253.28125 422.765625 C 248.648438 414.132812 243.546875 405.625 236.503906 404.625 C 230.421875 403.769531 221.703125 404.058594 212.480469 404.371094 C 208.761719 404.492188 204.945312 404.617188 201.152344 404.683594 C 198.695312 404.71875 196.390625 404.699219 194.242188 404.691406 C 185.027344 404.632812 179.433594 404.597656 175.535156 408.476562 L 174.546875 409.453125 C 170.394531 413.539062 168.84375 415.074219 168.671875 423.773438 C 168.511719 432.285156 170.246094 433.339844 181.570312 440.21875 L 182.746094 440.933594 C 184.273438 441.867188 184.753906 443.855469 183.832031 445.378906 C 183.21875 446.367188 182.15625 446.921875 181.0625 446.921875 " fill-opacity="1" fill-rule="nonzero"/><path fill="#424242" d="M 230.5625 435.777344 C 229.066406 435.777344 227.730469 434.742188 227.410156 433.214844 C 227.042969 431.464844 228.164062 429.75 229.90625 429.394531 C 229.886719 429.394531 231.609375 428.839844 233.539062 426.015625 C 234.546875 424.546875 236.550781 424.179688 238.019531 425.175781 C 239.5 426.175781 239.875 428.1875 238.867188 429.648438 C 235.488281 434.609375 231.910156 435.570312 231.230469 435.710938 C 231.007812 435.757812 230.789062 435.777344 230.5625 435.777344 " fill-opacity="1" fill-rule="nonzero"/><path fill="#424242" d="M 165.433594 416.109375 C 164.738281 416.109375 164.050781 415.882812 163.457031 415.433594 C 158.949219 411.949219 154.457031 407.28125 150.484375 401.933594 C 145.003906 394.550781 147.90625 382.945312 151.019531 377.351562 C 155.285156 369.691406 162.78125 367.96875 167.742188 366.828125 C 172.503906 365.71875 181.242188 365.699219 197.246094 366.675781 C 208.410156 367.375 214.324219 368.503906 221.175781 369.804688 C 222.675781 370.09375 224.226562 370.394531 225.902344 370.695312 C 235.5625 372.457031 241.285156 377.410156 243.394531 385.824219 C 245.117188 392.726562 245.136719 401.085938 245.136719 401.433594 C 245.136719 403.214844 243.6875 404.664062 241.90625 404.664062 C 240.128906 404.664062 238.679688 403.214844 238.679688 401.433594 C 238.679688 401.359375 238.652344 393.507812 237.125 387.398438 C 236.070312 383.207031 233.785156 378.699219 224.746094 377.050781 C 223.050781 376.742188 221.480469 376.441406 219.964844 376.148438 C 213.054688 374.828125 207.613281 373.792969 196.851562 373.125 C 187.445312 372.550781 174.386719 371.910156 169.472656 373.050781 C 164.664062 374.160156 159.53125 375.347656 156.660156 380.496094 C 154.628906 384.148438 152.160156 393.347656 155.671875 398.082031 C 159.25 402.894531 163.421875 407.242188 167.402344 410.332031 C 168.824219 411.421875 169.078125 413.445312 167.984375 414.859375 C 167.355469 415.675781 166.394531 416.109375 165.433594 416.109375 " fill-opacity="1" fill-rule="nonzero"/><path fill="#424242" d="M 153.835938 382.152344 C 140.023438 382.152344 133.011719 371.121094 131.230469 365.292969 C 129.980469 359.664062 131.148438 353.628906 134.742188 346.605469 C 138.058594 340.140625 150.8125 336.183594 156.726562 335.882812 C 164.597656 335.488281 173.824219 335.640625 186.65625 336.402344 C 199.882812 337.183594 209.53125 339.886719 221.101562 346.050781 C 228.964844 350.242188 229.820312 356.558594 230.449219 361.171875 C 231.035156 365.460938 229.78125 370.140625 226.921875 374.351562 C 225.914062 375.816406 223.90625 376.203125 222.4375 375.195312 C 220.960938 374.199219 220.574219 372.183594 221.582031 370.714844 C 223.550781 367.824219 224.425781 364.746094 224.050781 362.046875 C 223.398438 357.292969 222.769531 354.261719 218.0625 351.746094 C 209.164062 347 200.363281 343.679688 186.277344 342.851562 C 173.691406 342.105469 164.671875 341.945312 157.054688 342.332031 C 151.53125 342.613281 142.164062 346.304688 140.496094 349.542969 C 137.613281 355.183594 136.625 359.796875 137.472656 363.65625 C 137.492188 363.65625 141.363281 375.695312 153.835938 375.695312 C 155.625 375.695312 157.066406 377.144531 157.066406 378.925781 C 157.066406 380.714844 155.625 382.152344 153.835938 382.152344 " fill-opacity="1" fill-rule="nonzero"/><path fill="#424242" d="M 1051.605469 173.453125 C 1015.492188 189.269531 890.835938 260.316406 845.269531 300.582031 C 840.007812 305.222656 836.503906 311.539062 835.394531 318.335938 C 823.34375 392.21875 862.207031 471.023438 906.058594 498.265625 C 919.878906 506.851562 937.472656 507.953125 953.140625 501.214844 C 1003.722656 479.421875 1137.546875 415.707031 1184.554688 392.394531 C 1172.625 389.648438 1158.644531 381.929688 1150.210938 376.316406 C 1122.355469 357.734375 1097.132812 329.433594 1077.304688 294.492188 C 1046.964844 241.039062 1046.285156 192.554688 1051.605469 173.453125 Z M 932.097656 512.039062 C 921.714844 512.050781 911.507812 509.253906 902.660156 503.753906 C 857.035156 475.410156 816.5625 393.722656 829.011719 317.300781 C 830.355469 309.027344 834.621094 301.371094 840.996094 295.742188 C 892.226562 250.46875 1033.191406 171.890625 1056.894531 164.511719 C 1057.828125 164.050781 1058.710938 163.984375 1059.410156 164.058594 C 1060.972656 164.226562 1062.203125 165.519531 1062.28125 167.089844 C 1062.363281 168.671875 1061.300781 170.082031 1059.746094 170.421875 C 1059.738281 170.421875 1059.738281 170.421875 1059.730469 170.433594 C 1055.425781 175.683594 1046.210938 226.613281 1082.925781 291.300781 C 1102.253906 325.378906 1126.769531 352.914062 1153.796875 370.941406 C 1168.351562 380.65625 1188.121094 389.355469 1196.371094 386.445312 C 1196.953125 386.144531 1197.488281 385.863281 1197.96875 385.609375 C 1205.820312 381.824219 1206.453125 375.882812 1205.867188 372.050781 C 1201.558594 374.238281 1194.28125 376.730469 1187.277344 373.539062 C 1167.121094 365.726562 1144.28125 344.007812 1128.691406 327.183594 C 1092.132812 287.710938 1069.332031 236.601562 1070.601562 196.980469 C 1070.828125 190.164062 1073.925781 183.734375 1079.105469 179.320312 L 1165.699219 105.445312 C 1167.054688 104.289062 1169.085938 104.449219 1170.253906 105.804688 C 1171.402344 107.160156 1171.242188 109.203125 1169.886719 110.359375 L 1083.292969 184.234375 C 1079.488281 187.460938 1077.222656 192.1875 1077.0625 197.1875 C 1075.835938 235.199219 1097.960938 284.511719 1133.425781 322.796875 C 1145.804688 336.167969 1169.59375 359.757812 1189.789062 367.601562 C 1197.066406 370.902344 1205.785156 364.617188 1205.867188 364.550781 C 1206.652344 363.964844 1207.648438 363.769531 1208.597656 364.003906 C 1209.550781 364.25 1210.332031 364.90625 1210.734375 365.792969 C 1213.449219 371.695312 1214.878906 384.640625 1200.871094 391.371094 C 1200.378906 391.644531 1199.835938 391.917969 1199.222656 392.238281 C 1199.175781 392.265625 1199.117188 392.292969 1199.070312 392.320312 C 1169.058594 407.835938 1011.601562 483.054688 955.691406 507.136719 C 948.074219 510.421875 940.035156 512.039062 932.097656 512.039062 " fill-opacity="1" fill-rule="nonzero"/><path fill="#424242" d="M 1083.941406 182.660156 C 1082.824219 182.660156 1081.738281 182.078125 1081.148438 181.03125 C 1077.636719 174.933594 1074.199219 172.191406 1070.113281 169.972656 C 1066 167.710938 1060.785156 170 1060.738281 170.027344 C 1059.109375 170.78125 1057.195312 170.066406 1056.445312 168.445312 C 1055.710938 166.828125 1056.414062 164.914062 1058.023438 164.164062 C 1058.363281 164.011719 1066.195312 160.472656 1073.210938 164.292969 C 1077.578125 166.675781 1082.230469 169.972656 1086.75 177.820312 C 1087.625 179.375 1087.097656 181.34375 1085.554688 182.226562 C 1085.042969 182.519531 1084.488281 182.660156 1083.941406 182.660156 " fill-opacity="1" fill-rule="nonzero"/><path fill="#424242" d="M 1259.523438 347.933594 C 1255.785156 347.933594 1252.347656 346.351562 1250.097656 343.347656 C 1210.785156 290.921875 1155.550781 140.457031 1165.78125 98.058594 C 1166.601562 94.667969 1169.265625 90.289062 1171.976562 87.871094 L 1206.734375 56.871094 C 1208.070312 55.683594 1210.113281 55.796875 1211.300781 57.132812 C 1212.488281 58.460938 1212.375 60.503906 1211.046875 61.691406 L 1176.28125 92.691406 C 1174.574219 94.207031 1172.570312 97.484375 1172.070312 99.574219 C 1162.355469 139.769531 1217.5625 289.191406 1255.265625 339.46875 C 1257.226562 342.085938 1260.660156 341.75 1262.996094 340.65625 C 1283.753906 331.035156 1317.589844 311.277344 1317.929688 311.078125 C 1319.472656 310.175781 1321.449219 310.691406 1322.34375 312.234375 C 1323.246094 313.769531 1322.730469 315.746094 1321.195312 316.652344 C 1320.839844 316.847656 1286.738281 336.757812 1265.714844 346.523438 C 1263.65625 347.472656 1261.535156 347.933594 1259.523438 347.933594 " fill-opacity="1" fill-rule="nonzero"/><path fill="#424242" d="M 1201.886719 373.570312 C 1200.832031 373.570312 1199.816406 373.070312 1199.195312 372.128906 C 1198.195312 370.640625 1198.601562 368.644531 1200.089844 367.648438 L 1247.875 335.902344 C 1249.363281 334.914062 1251.359375 335.308594 1252.347656 336.804688 C 1253.347656 338.285156 1252.941406 340.300781 1251.445312 341.277344 L 1203.667969 373.03125 C 1203.121094 373.398438 1202.5 373.570312 1201.886719 373.570312 " fill-opacity="1" fill-rule="nonzero"/><path fill="#424242" d="M 972.035156 249.558594 C 971.082031 249.558594 970.207031 249.832031 969.386719 250.386719 L 895.617188 300.148438 C 894.441406 300.9375 893.660156 302.238281 893.5 303.714844 C 890.4375 329.980469 907.09375 359.351562 917.410156 372.570312 C 918.304688 373.71875 919.679688 374.386719 921.160156 374.386719 C 921.988281 374.386719 922.804688 374.171875 923.53125 373.765625 L 1005.746094 327.855469 C 1006.886719 327.214844 1007.703125 326.167969 1008.042969 324.898438 C 1008.382812 323.636719 1008.203125 322.328125 1007.535156 321.207031 C 994.042969 298.511719 981.53125 276.253906 976.816406 253.53125 C 976.269531 250.921875 973.992188 249.558594 972.035156 249.558594 Z M 921.160156 380.84375 C 917.675781 380.84375 914.457031 379.28125 912.316406 376.542969 C 901.386719 362.554688 883.792969 331.308594 887.078125 302.972656 C 887.472656 299.621094 889.261719 296.636719 892 294.792969 L 965.773438 245.027344 C 967.648438 243.765625 969.8125 243.097656 972.035156 243.097656 C 977.371094 243.097656 982.03125 246.929688 983.132812 252.210938 C 987.644531 273.957031 999.882812 295.695312 1013.089844 317.902344 C 1014.652344 320.539062 1015.078125 323.617188 1014.285156 326.582031 C 1013.484375 329.539062 1011.574219 331.996094 1008.890625 333.503906 L 926.675781 379.40625 C 924.988281 380.347656 923.089844 380.84375 921.160156 380.84375 " fill-opacity="1" fill-rule="nonzero"/><path fill="#424242" d="M 936.832031 333.972656 C 939.066406 333.972656 941.097656 335.386719 941.878906 337.484375 C 943.921875 342.917969 945.710938 345.429688 947.613281 348.085938 L 947.78125 348.320312 L 968.296875 336.015625 C 965.886719 331.976562 964.089844 328.34375 962.507812 324.371094 C 961.621094 322.128906 962.316406 319.550781 964.199219 318.089844 C 968.117188 315.070312 972.296875 312.855469 976.007812 311.078125 C 972.402344 305.355469 968.296875 296.863281 965.632812 289.566406 C 961.460938 291.976562 957.914062 294.171875 954.769531 296.25 C 952.386719 297.851562 948.910156 297.171875 947.347656 294.808594 C 944.875 291.054688 942.847656 286.628906 941.15625 282.636719 L 921.160156 295.507812 C 921.828125 298.859375 923.625 303.507812 925.960938 307.867188 C 926.648438 309.121094 926.789062 310.578125 926.375 311.953125 C 925.949219 313.335938 925 314.46875 923.71875 315.144531 C 920.867188 316.632812 917.242188 319.03125 913.691406 321.460938 C 914.578125 327.335938 920.640625 338.800781 924.179688 341.457031 C 927.070312 339.40625 930.667969 336.882812 934.019531 334.792969 C 934.867188 334.253906 935.835938 333.972656 936.832031 333.972656 Z M 947.480469 355.136719 C 945.738281 355.136719 944.101562 354.289062 943.085938 352.875 L 942.359375 351.839844 C 940.4375 349.15625 938.460938 346.390625 936.304688 340.988281 C 933.199219 342.980469 929.933594 345.289062 927.363281 347.125 C 925.808594 348.234375 923.699219 348.460938 922.023438 347.679688 C 915.574219 344.601562 907.847656 328.625 907.195312 321.441406 C 907 319.503906 907.902344 317.601562 909.511719 316.492188 C 913.53125 313.734375 916.867188 311.53125 919.753906 309.9375 C 917.167969 304.921875 915.285156 299.742188 914.664062 295.894531 C 914.324219 293.757812 915.253906 291.636719 917.054688 290.46875 L 938.753906 276.507812 C 941.464844 274.769531 945.390625 276 946.632812 278.984375 C 948.066406 282.429688 949.949219 286.742188 952.121094 290.273438 C 955.425781 288.109375 959.171875 285.828125 963.523438 283.324219 C 964.332031 282.855469 965.253906 282.609375 966.207031 282.609375 C 968.476562 282.609375 970.519531 284.039062 971.261719 286.179688 C 973.886719 293.632812 978.425781 303.058594 982.089844 308.59375 C 982.945312 309.890625 983.191406 311.5 982.765625 313 C 982.351562 314.496094 981.296875 315.726562 979.886719 316.386719 C 976.429688 318.007812 972.449219 320.011719 968.796875 322.703125 C 970.292969 326.347656 972.035156 329.738281 974.378906 333.566406 C 975.121094 334.820312 975.355469 336.269531 975 337.683594 C 974.660156 339.074219 973.785156 340.253906 972.550781 340.996094 L 950.25 354.363281 C 949.402344 354.871094 948.449219 355.136719 947.480469 355.136719 " fill-opacity="1" fill-rule="nonzero"/><path fill="#424242" d="M 414.511719 550.234375 C 328.210938 550.234375 255.144531 563.269531 177.589844 592.492188 C 172.703125 594.328125 169.925781 599.523438 171.113281 604.570312 C 176.316406 626.644531 191.125 681.03125 216.226562 709.472656 C 234.789062 730.484375 265.914062 741.148438 308.761719 741.148438 C 323.011719 741.148438 338.273438 740.011719 355.4375 737.667969 C 460.191406 723.386719 484.835938 710.0625 490.203125 703.398438 C 500.589844 690.5 487.292969 627.757812 459.285156 557.460938 C 457.742188 553.601562 454.109375 551.015625 450.015625 550.871094 C 437.4375 550.441406 425.820312 550.234375 414.511719 550.234375 Z M 308.761719 747.609375 C 263.984375 747.609375 231.222656 736.207031 211.386719 713.746094 C 185.316406 684.214844 170.140625 628.59375 164.824219 606.058594 C 162.894531 597.867188 167.402344 589.433594 175.320312 586.449219 C 253.628906 556.945312 327.402344 543.785156 414.511719 543.785156 C 425.894531 543.785156 437.578125 543.992188 450.230469 544.425781 C 456.886719 544.640625 462.796875 548.828125 465.285156 555.070312 C 482.757812 598.941406 511.507812 687.234375 495.230469 707.445312 C 484.480469 720.804688 439.035156 732.789062 356.3125 744.066406 C 338.859375 746.449219 323.304688 747.609375 308.761719 747.609375 " fill-opacity="1" fill-rule="nonzero"/><g clip-path="url(#39129a1da4)"><path fill="#424242" d="M 426.203125 536.222656 C 327.578125 536.222656 244.082031 551.117188 155.464844 584.519531 C 149.675781 586.691406 146.371094 592.839844 147.773438 598.808594 C 151.605469 615.039062 159.972656 646.59375 173.058594 675.589844 C 181.882812 695.144531 188.492188 713.613281 193.253906 732.066406 C 200.957031 761.9375 211.414062 780.820312 222.683594 785.261719 C 237.644531 791.15625 261.847656 798.988281 299.28125 798.988281 L 299.289062 798.988281 C 320.839844 798.988281 344.929688 796.390625 370.914062 791.277344 C 450.003906 775.707031 474.78125 762.398438 494.957031 748.992188 C 509.03125 737.121094 516.246094 719.601562 517.007812 695.445312 C 517.882812 665.96875 502.480469 606.820312 477.75 544.753906 C 475.921875 540.179688 471.609375 537.109375 466.753906 536.949219 C 452.386719 536.46875 439.121094 536.222656 426.203125 536.222656 Z M 299.289062 805.449219 C 299.28125 805.449219 299.28125 805.449219 299.28125 805.449219 C 260.753906 805.449219 235.761719 797.359375 220.3125 791.269531 C 206.679688 785.902344 195.476562 766.519531 187.003906 733.675781 C 182.332031 715.589844 175.847656 697.457031 167.175781 678.246094 C 153.863281 648.769531 145.371094 616.753906 141.492188 600.285156 C 139.339844 591.175781 144.367188 581.796875 153.1875 578.472656 C 242.566406 544.792969 326.769531 529.765625 426.203125 529.765625 C 439.195312 529.765625 452.527344 530.011719 466.96875 530.5 C 474.386719 530.746094 480.976562 535.40625 483.746094 542.371094 C 502.753906 590.074219 524.558594 658.832031 523.464844 695.640625 C 522.636719 721.832031 514.625 740.933594 498.96875 754.066406 C 498.875 754.132812 498.78125 754.207031 498.6875 754.273438 C 477.917969 768.074219 452.613281 781.78125 372.15625 797.625 C 345.769531 802.8125 321.253906 805.449219 299.289062 805.449219 " fill-opacity="1" fill-rule="nonzero"/></g><path fill="#424242" d="M 219.492188 790.5625 C 219.078125 790.5625 218.65625 790.488281 218.25 790.308594 C 187.832031 777.574219 147.351562 699.246094 137.679688 668.199219 C 135.761719 662.042969 134.632812 655.226562 134.207031 647.320312 C 131.195312 590.628906 145.015625 582.910156 147.8125 581.9375 C 149.496094 581.347656 151.339844 582.238281 151.925781 583.925781 C 152.488281 585.554688 151.679688 587.324219 150.097656 587.972656 C 149.570312 588.285156 137.925781 595.578125 140.65625 646.980469 C 141.042969 654.332031 142.085938 660.648438 143.847656 666.28125 C 154.382812 700.085938 194.101562 773.203125 220.746094 784.359375 C 222.390625 785.046875 223.164062 786.9375 222.476562 788.585938 C 221.960938 789.820312 220.753906 790.5625 219.492188 790.5625 " fill-opacity="1" fill-rule="nonzero"/><path fill="#424242" d="M 508.957031 623.898438 C 507.609375 623.898438 506.359375 623.050781 505.90625 621.714844 C 505.324219 620.019531 506.21875 618.191406 507.914062 617.609375 C 508.664062 617.335938 512.515625 615.746094 511.714844 612.0625 C 510.886719 608.242188 509.25 602.78125 507.667969 597.5 C 506.480469 593.546875 505.296875 589.582031 504.371094 586.101562 C 502.5 579.050781 499.015625 578.964844 496.191406 579.679688 C 494.449219 580.121094 492.699219 579.066406 492.265625 577.335938 C 491.832031 575.613281 492.878906 573.851562 494.609375 573.417969 C 498.300781 572.507812 507.234375 571.707031 510.613281 584.433594 C 511.519531 587.859375 512.6875 591.765625 513.851562 595.636719 C 515.546875 601.292969 517.148438 606.632812 518.03125 610.691406 C 519.671875 618.25 513.496094 622.511719 510.003906 623.71875 C 509.652344 623.832031 509.304688 623.898438 508.957031 623.898438 " fill-opacity="1" fill-rule="nonzero"/><path fill="#424242" d="M 897.394531 509.675781 C 894.777344 509.675781 892.160156 508.585938 889.761719 506.429688 C 888.152344 504.980469 886.015625 503.191406 883.859375 501.355469 C 880.542969 498.566406 877.109375 495.679688 875.160156 493.710938 C 871.476562 490.011719 873.089844 484.957031 876.15625 481.820312 C 877.398438 480.53125 879.453125 480.519531 880.722656 481.753906 C 881.996094 482.996094 882.023438 485.03125 880.796875 486.3125 C 880.742188 486.367188 878.980469 488.390625 879.726562 489.152344 C 881.484375 490.925781 884.808594 493.710938 888.019531 496.421875 C 890.242188 498.296875 892.417969 500.132812 894.074219 501.617188 C 896.183594 503.519531 897.886719 503.707031 899.902344 502.269531 L 902.980469 499.253906 C 904.257812 498.003906 906.292969 498.011719 907.546875 499.292969 C 908.796875 500.554688 908.789062 502.605469 907.507812 503.847656 L 904.257812 507.039062 C 904.15625 507.144531 904.050781 507.238281 903.9375 507.324219 C 901.832031 508.894531 899.609375 509.675781 897.394531 509.675781 " fill-opacity="1" fill-rule="nonzero"/><path fill="#424242" d="M 507.449219 588.332031 C 505.945312 588.332031 504.597656 587.277344 504.289062 585.742188 C 503.941406 583.992188 505.070312 582.289062 506.820312 581.9375 C 511.714844 580.949219 538.800781 576.027344 591.625 575.652344 C 602.246094 575.574219 612.949219 575.6875 623.296875 575.78125 C 671.148438 576.253906 716.339844 576.675781 762.0625 560.992188 C 817.269531 542.0625 875.414062 491.640625 875.988281 491.132812 C 877.324219 489.953125 879.378906 490.09375 880.542969 491.449219 C 881.710938 492.789062 881.578125 494.820312 880.242188 496 C 879.648438 496.515625 820.574219 547.746094 764.152344 567.101562 C 717.402344 583.144531 671.65625 582.710938 623.230469 582.238281 C 612.910156 582.136719 602.246094 582.042969 591.664062 582.109375 C 539.441406 582.484375 512.882812 587.304688 508.089844 588.265625 C 507.875 588.3125 507.667969 588.332031 507.449219 588.332031 " fill-opacity="1" fill-rule="nonzero"/><path fill="#424242" d="M 515.058594 606.339844 C 513.589844 606.339844 512.253906 605.324219 511.914062 603.828125 C 511.527344 602.085938 512.621094 600.363281 514.351562 599.96875 C 515.453125 599.722656 541.890625 593.902344 600.109375 593.488281 C 610.71875 593.40625 621.421875 593.507812 631.757812 593.613281 C 679.632812 594.074219 724.828125 594.507812 770.546875 578.832031 C 825.78125 559.871094 883.886719 509.46875 884.46875 508.96875 L 891.578125 502.796875 C 892.925781 501.617188 894.957031 501.769531 896.136719 503.113281 C 897.300781 504.472656 897.152344 506.503906 895.804688 507.671875 L 888.707031 513.835938 C 888.125 514.347656 829.058594 565.578125 772.636719 584.941406 C 725.875 600.984375 680.128906 600.53125 631.703125 600.070312 C 621.382812 599.976562 610.71875 599.871094 600.144531 599.949219 C 542.765625 600.351562 516.039062 606.199219 515.773438 606.265625 C 515.539062 606.3125 515.292969 606.339844 515.058594 606.339844 " fill-opacity="1" fill-rule="nonzero"/><path fill="#424242" d="M 256.453125 660.066406 C 254.871094 660.066406 253.300781 660.234375 251.785156 660.582031 C 246.25 661.84375 241.75 665.226562 238.78125 670.363281 C 234.960938 676.984375 234.273438 685.644531 236.910156 694.105469 C 241.15625 707.824219 253.074219 717.773438 265.21875 717.773438 C 266.808594 717.773438 268.371094 717.605469 269.898438 717.257812 C 275.433594 715.996094 279.933594 712.605469 282.898438 707.464844 C 286.710938 700.847656 287.398438 692.195312 284.773438 683.734375 C 280.515625 670.015625 268.609375 660.066406 256.453125 660.066406 Z M 265.21875 724.242188 C 250.316406 724.242188 235.808594 712.371094 230.742188 696.019531 C 227.578125 685.84375 228.472656 675.316406 233.191406 667.144531 C 237.023438 660.5 243.121094 655.933594 250.351562 654.285156 C 252.339844 653.835938 254.390625 653.609375 256.453125 653.609375 C 271.367188 653.609375 285.863281 665.46875 290.9375 681.820312 C 294.09375 692 293.207031 702.523438 288.492188 710.6875 C 284.660156 717.339844 278.558594 721.90625 271.320312 723.546875 C 269.339844 724.007812 267.28125 724.242188 265.21875 724.242188 " fill-opacity="1" fill-rule="nonzero"/><path fill="#424242" d="M 262.582031 688.09375 C 262.074219 688.09375 261.566406 688.148438 261.066406 688.25 C 259.257812 688.628906 257.753906 689.671875 256.847656 691.207031 C 255.878906 692.816406 255.664062 694.777344 256.246094 696.722656 C 257.441406 700.78125 261.847656 703.53125 265.886719 702.703125 C 267.695312 702.324219 269.191406 701.28125 270.105469 699.753906 C 271.066406 698.144531 271.28125 696.1875 270.707031 694.230469 C 269.660156 690.679688 266.246094 688.09375 262.582031 688.09375 Z M 264.371094 709.320312 C 257.808594 709.320312 251.925781 704.886719 250.050781 698.550781 C 248.960938 694.851562 249.402344 691.066406 251.304688 687.894531 C 253.148438 684.796875 256.144531 682.679688 259.75 681.925781 C 260.679688 681.738281 261.632812 681.632812 262.582031 681.632812 C 269.039062 681.632812 275.066406 686.160156 276.902344 692.402344 C 277.992188 696.101562 277.550781 699.898438 275.648438 703.070312 C 273.804688 706.167969 270.800781 708.277344 267.203125 709.027344 C 266.273438 709.21875 265.320312 709.320312 264.371094 709.320312 " fill-opacity="1" fill-rule="nonzero"/><path fill="#424242" d="M 221.761719 601.210938 C 220.699219 601.210938 219.652344 601.332031 218.65625 601.566406 C 215.367188 602.359375 212.703125 604.34375 211.152344 607.207031 C 209.4375 610.339844 209.210938 614.117188 210.519531 617.855469 C 212.761719 624.246094 219.152344 628.886719 225.695312 628.886719 C 226.761719 628.886719 227.804688 628.765625 228.8125 628.527344 C 232.097656 627.746094 234.753906 625.753906 236.316406 622.898438 C 238.019531 619.753906 238.253906 615.980469 236.9375 612.242188 C 234.695312 605.851562 228.3125 601.210938 221.761719 601.210938 Z M 225.695312 635.34375 C 216.347656 635.34375 207.601562 629.027344 204.429688 619.992188 C 202.527344 614.597656 202.914062 608.796875 205.484375 604.109375 C 207.921875 599.628906 212.074219 596.503906 217.15625 595.296875 C 218.644531 594.929688 220.199219 594.75 221.761719 594.75 C 231.109375 594.75 239.863281 601.066406 243.039062 610.105469 C 244.929688 615.507812 244.542969 621.300781 241.972656 625.996094 C 239.535156 630.46875 235.382812 633.601562 230.308594 634.808594 C 228.8125 635.167969 227.257812 635.34375 225.695312 635.34375 " fill-opacity="1" fill-rule="nonzero"/><path fill="#424242" d="M 216.648438 615.472656 C 215.425781 615.472656 214.257812 614.773438 213.722656 613.609375 C 212.96875 611.988281 213.65625 610.066406 215.273438 609.324219 C 215.472656 609.230469 220.320312 606.980469 228.105469 605.90625 C 229.859375 605.644531 231.503906 606.894531 231.75 608.664062 C 231.996094 610.425781 230.761719 612.0625 228.992188 612.308594 C 222.242188 613.242188 218.042969 615.160156 218.003906 615.171875 C 217.5625 615.378906 217.101562 615.472656 216.648438 615.472656 " fill-opacity="1" fill-rule="nonzero"/><path fill="#424242" d="M 224.605469 623.660156 C 223.183594 623.660156 221.882812 622.71875 221.488281 621.289062 C 221.015625 619.566406 222.035156 617.796875 223.746094 617.328125 C 224.734375 617.042969 225.855469 616.769531 227.082031 616.515625 C 228.832031 616.148438 230.535156 617.261719 230.902344 619.011719 C 231.269531 620.753906 230.160156 622.464844 228.40625 622.832031 C 227.316406 623.058594 226.328125 623.304688 225.460938 623.539062 C 225.167969 623.625 224.886719 623.660156 224.605469 623.660156 " fill-opacity="1" fill-rule="nonzero"/><path fill="#424242" d="M 261.378906 692.75 C 260.058594 692.75 258.824219 691.941406 258.347656 690.632812 L 253.875 678.488281 C 253.253906 676.8125 254.117188 674.949219 255.792969 674.347656 C 257.460938 673.726562 259.316406 674.582031 259.9375 676.25 L 264.410156 688.402344 C 265.019531 690.085938 264.164062 691.933594 262.488281 692.554688 C 262.121094 692.6875 261.746094 692.75 261.378906 692.75 " fill-opacity="1" fill-rule="nonzero"/><path fill="#424242" d="M 419.445312 565.90625 C 378.746094 565.90625 337.144531 570.546875 295.777344 579.699219 C 293.902344 580.121094 292.339844 581.269531 291.371094 582.9375 C 290.390625 584.621094 290.167969 586.664062 290.75 588.539062 C 301.625 623.585938 311.847656 661.535156 321.128906 701.335938 C 321.902344 704.660156 325.039062 707.023438 328.464844 706.730469 C 378.445312 702.523438 426.289062 694.25 470.679688 682.160156 C 474.078125 681.246094 476.269531 677.800781 475.675781 674.335938 C 469.699219 639.730469 459.796875 604.851562 446.210938 570.6875 C 445.195312 568.128906 442.753906 566.40625 440.007812 566.292969 C 433.199219 566.039062 426.28125 565.90625 419.445312 565.90625 Z M 327.890625 713.207031 C 321.640625 713.207031 316.273438 708.933594 314.839844 702.804688 C 305.597656 663.152344 295.410156 625.347656 284.582031 590.457031 C 283.464844 586.863281 283.90625 582.9375 285.789062 579.6875 C 287.644531 576.488281 290.777344 574.191406 294.382812 573.402344 C 343.226562 562.59375 392.304688 558.035156 440.25 559.84375 C 445.5625 560.050781 450.25 563.375 452.207031 568.296875 C 465.960938 602.886719 475.988281 638.199219 482.042969 673.238281 C 483.210938 680.0625 479.058594 686.574219 472.375 688.394531 C 427.609375 700.585938 379.378906 708.914062 329.011719 713.160156 C 328.632812 713.199219 328.265625 713.207031 327.890625 713.207031 " fill-opacity="1" fill-rule="nonzero"/><path fill="#424242" d="M 420 580.867188 C 393.535156 580.867188 366.460938 583.886719 339.554688 589.835938 C 338.640625 590.035156 337.878906 590.601562 337.40625 591.410156 C 336.917969 592.246094 336.804688 593.234375 337.097656 594.175781 C 343.941406 616.242188 353.5625 652.1875 359.972656 679.636719 C 360.332031 681.191406 361.726562 682.3125 363.289062 682.3125 L 363.570312 682.300781 C 396.089844 679.5625 427.242188 674.179688 456.152344 666.308594 C 457.820312 665.855469 458.902344 664.179688 458.601562 662.484375 C 454.53125 638.941406 444.996094 604.890625 436.410156 583.277344 C 435.910156 582.015625 434.714844 581.167969 433.359375 581.121094 C 428.933594 580.949219 424.433594 580.867188 420 580.867188 Z M 363.289062 688.769531 C 358.683594 688.769531 354.738281 685.617188 353.683594 681.117188 C 347.3125 653.785156 337.738281 618.023438 330.929688 596.089844 C 330.113281 593.441406 330.433594 590.5625 331.816406 588.171875 C 333.191406 585.816406 335.496094 584.113281 338.160156 583.53125 C 370.125 576.460938 402.246094 573.476562 433.605469 574.660156 C 437.511719 574.8125 440.964844 577.261719 442.417969 580.894531 C 451.144531 602.855469 460.839844 637.472656 464.964844 661.382812 C 465.820312 666.316406 462.695312 671.230469 457.847656 672.539062 C 428.558594 680.511719 397.019531 685.964844 364.117188 688.730469 C 363.835938 688.761719 363.5625 688.769531 363.289062 688.769531 " fill-opacity="1" fill-rule="nonzero"/><path fill="#424242" d="M 305.53125 596.984375 C 306.679688 600.859375 308.035156 605.972656 309.097656 610.351562 C 314.097656 609.851562 318.917969 609.023438 323.457031 607.894531 C 322.664062 604.089844 321.214844 598.695312 319.832031 594.894531 C 315.132812 594.894531 310.453125 595.890625 305.53125 596.984375 Z M 307.601562 616.949219 C 305.492188 616.949219 303.683594 615.507812 303.195312 613.457031 C 301.953125 608.128906 300.089844 601.171875 298.769531 596.898438 C 298.394531 595.691406 298.535156 594.375 299.175781 593.273438 C 299.808594 592.179688 300.878906 591.398438 302.113281 591.128906 L 303.476562 590.824219 C 309.230469 589.546875 315.199219 588.21875 321.347656 588.453125 C 323.136719 588.519531 324.726562 589.640625 325.386719 591.304688 C 327.289062 596.117188 329.394531 604.089844 330.148438 608.535156 C 330.554688 610.800781 329.113281 613.0625 326.875 613.664062 C 320.96875 615.273438 314.617188 616.375 307.988281 616.929688 C 307.894531 616.941406 307.695312 616.949219 307.601562 616.949219 " fill-opacity="1" fill-rule="nonzero"/><path fill="#424242" d="M 315.90625 635.496094 C 317.054688 639.382812 318.417969 644.496094 319.472656 648.863281 C 324.472656 648.363281 329.292969 647.535156 333.832031 646.398438 C 333.039062 642.601562 331.589844 637.191406 330.207031 633.394531 C 325.507812 633.40625 320.839844 634.402344 315.90625 635.496094 Z M 317.984375 655.460938 C 315.878906 655.460938 314.058594 654.023438 313.570312 651.960938 C 312.335938 646.652344 310.472656 639.703125 309.144531 635.421875 C 308.769531 634.207031 308.921875 632.878906 309.550781 631.785156 C 310.171875 630.703125 311.246094 629.921875 312.46875 629.648438 L 313.84375 629.339844 C 319.605469 628.058594 325.566406 626.730469 331.722656 626.964844 C 333.5 627.03125 335.09375 628.144531 335.761719 629.808594 C 337.71875 634.75 339.761719 642.601562 340.523438 647.039062 C 340.929688 649.363281 339.515625 651.566406 337.246094 652.1875 C 331.34375 653.785156 324.992188 654.886719 318.363281 655.445312 C 318.269531 655.453125 318.070312 655.460938 317.984375 655.460938 " fill-opacity="1" fill-rule="nonzero"/><path fill="#424242" d="M 326.289062 674.007812 C 327.429688 677.886719 328.792969 683 329.847656 687.375 C 334.855469 686.878906 339.667969 686.050781 344.207031 684.910156 C 343.414062 681.117188 341.964844 675.722656 340.589844 671.910156 C 335.882812 671.917969 331.203125 672.917969 326.289062 674.007812 Z M 328.351562 693.976562 C 326.242188 693.976562 324.433594 692.535156 323.945312 690.472656 C 322.703125 685.164062 320.847656 678.199219 319.519531 673.933594 C 319.144531 672.71875 319.285156 671.390625 319.925781 670.300781 C 320.566406 669.207031 321.628906 668.425781 322.863281 668.152344 L 324.226562 667.851562 C 329.980469 666.582031 335.957031 665.253906 342.097656 665.480469 C 343.886719 665.546875 345.476562 666.664062 346.136719 668.332031 C 348.046875 673.140625 350.144531 681.117188 350.910156 685.558594 C 351.304688 687.828125 349.871094 690.085938 347.621094 690.699219 C 341.730469 692.300781 335.363281 693.402344 328.738281 693.957031 C 328.652344 693.964844 328.445312 693.976562 328.351562 693.976562 " fill-opacity="1" fill-rule="nonzero"/><path fill="#424242" d="M 409.457031 662.625 C 408.65625 662.625 407.867188 662.324219 407.253906 661.761719 C 396.144531 651.394531 386.371094 644.261719 374.792969 643.101562 C 373.011719 642.921875 371.722656 641.339844 371.894531 639.570312 C 372.070312 637.792969 373.652344 636.539062 375.433594 636.671875 C 387.039062 637.832031 396.945312 644.222656 405.886719 651.855469 C 404.824219 622.128906 407.421875 601.773438 413.964844 588.199219 C 414.746094 586.589844 416.675781 585.910156 418.277344 586.691406 C 419.886719 587.472656 420.554688 589.40625 419.785156 591.003906 C 413.269531 604.523438 410.953125 626.835938 412.6875 659.21875 C 412.75 660.535156 412.015625 661.769531 410.820312 662.324219 C 410.386719 662.523438 409.917969 662.625 409.457031 662.625 " fill-opacity="1" fill-rule="nonzero"/></svg>