<?xml version="1.0" encoding="utf-8"?>
<!-- Generator: Adobe Illustrator 27.5.0, SVG Export Plug-In . SVG Version: 6.00 Build 0)  -->
<svg version="1.1" id="Ñëîé_1" xmlns="http://www.w3.org/2000/svg" xmlns:xlink="http://www.w3.org/1999/xlink" x="0px" y="0px"
	 viewBox="0 0 2600 2000" style="enable-background:new 0 0 2600 2000;" xml:space="preserve">
<rect id="_x39_" style="fill:#FFFFFF;" width="2600" height="2000"/>
<g>
	<g id="_x38_">
		<path style="fill:#ADC8F7;" d="M353.898,1605.62c0,0-150.712-685.668,43.747-855.046
			c158.154-137.755,328.733,132.526,500.061,12.334c152.531-107.005-7.931-399.957,194.378-447.083
			c226.837-52.839,486.659,526.136,711.116,443.141c272.363-100.709,543.292,103.731,309.159,847.976L353.898,1605.62z"/>
		<path style="fill:#B3D2FF;" d="M306.057,1534.87c-4.726-13.684-9.403-27.864-13.898-42.143l11.081-3.114
			c4.467,14.188,9.112,28.275,13.807,41.867L306.057,1534.87z M2288.302,1517.197l-11.473-1.339
			c1.905-14.567,3.714-29.237,5.377-43.603l11.491,1.188C2292.029,1487.86,2290.213,1502.581,2288.302,1517.197z M279.397,1450.277
			c-4.046-14.113-7.97-28.488-11.663-42.726l11.228-2.6c3.671,14.153,7.572,28.441,11.593,42.469L279.397,1450.277z
			 M2298.43,1429.619l-11.508-1.028c1.462-14.625,2.817-29.337,4.025-43.726l11.523,0.863
			C2301.259,1400.172,2299.899,1414.939,2298.43,1429.619z M257.171,1364.574c-3.339-14.378-6.516-28.916-9.443-43.212l11.35-2.074
			c2.909,14.206,6.066,28.656,9.384,42.944L257.171,1364.574z M2305.789,1341.778l-11.537-0.69
			c0.978-14.615,1.837-29.358,2.55-43.816l11.547,0.509C2307.632,1312.3,2306.771,1327.102,2305.789,1341.778z M239.444,1277.936
			c-2.571-14.554-4.951-29.23-7.073-43.621l11.449-1.508c2.109,14.295,4.473,28.873,7.026,43.331L239.444,1277.936z
			 M2310.114,1253.743l-11.556-0.317c0.451-14.68,0.762-29.438,0.924-43.865l11.56,0.115
			C2310.879,1224.17,2310.567,1238.996,2310.114,1253.743z M226.57,1190.517c-1.723-14.7-3.223-29.485-4.459-43.944l11.522-0.879
			c1.227,14.351,2.715,29.027,4.426,43.62L226.57,1190.517z M2299.53,1165.694c-0.136-14.691-0.432-29.444-0.878-43.851
			l11.556-0.319c0.448,14.481,0.745,29.309,0.883,44.075L2299.53,1165.694z M219.08,1102.514
			c-0.767-14.787-1.275-29.633-1.512-44.126l11.559-0.169c0.234,14.372,0.738,29.095,1.498,43.761L219.08,1102.514z
			 M2296.794,1078.03c-0.793-14.672-1.77-29.393-2.9-43.754l11.527-0.81c1.138,14.445,2.118,29.252,2.917,44.007L2296.794,1078.03z
			 M229.237,1014.441l-11.558-0.224c0.322-14.826,0.943-29.677,1.845-44.137l11.54,0.642
			C230.17,985.045,229.555,999.753,229.237,1014.441z M2289.884,990.609c-1.544-14.669-3.293-29.32-5.197-43.546l11.468-1.37
			c1.917,14.322,3.677,29.071,5.232,43.835L2289.884,990.609z M234.73,927.118l-11.502-1.091c1.57-14.771,3.485-29.533,5.69-43.879
			l11.44,1.57C238.176,897.905,236.283,912.508,234.73,927.118z M2278.215,903.683c-2.405-14.576-5.046-29.098-7.847-43.16
			l11.359-2.021c2.826,14.175,5.487,28.81,7.911,43.499L2278.215,903.683z M911.048,902.141
			c-16.063-2.393-27.682-9.302-43.776-21.233l7.307-8.464c14.099,10.424,24.283,16.678,37.701,18.836L911.048,902.141z
			 M951.154,876.154l-10.295-4.967c5.292-9.791,9.969-23.378,13.905-40.383l11.293,2.332
			C961.853,851.309,956.978,865.38,951.154,876.154z M833.345,849.582c-9.209-9.69-19.05-20.841-30.086-34.093l9.084-6.755
			c10.88,13.063,20.563,24.037,29.603,33.549L833.345,849.582z M248.079,840.624l-11.348-2.081
			c2.995-14.578,6.383-29.115,10.071-43.207l11.222,2.623C254.383,811.872,251.037,826.227,248.079,840.624z M2261.024,817.646
			c-3.423-14.426-7.116-28.728-10.976-42.507l11.176-2.795c3.897,13.913,7.624,28.352,11.078,42.913L2261.024,817.646z
			 M973.835,789.177l-11.465-1.394c1.775-13.038,3.367-27.314,4.864-43.647l11.517,0.943
			C977.239,761.564,975.631,775.988,973.835,789.177z M774.946,780.299c-9.397-11.99-19.143-24.665-27.541-35.603l9.358-6.414
			c8.382,10.917,18.108,23.566,27.474,35.517L774.946,780.299z M1621.274,779.401c-9.002,0-17.836-2.541-26.253-7.553l6.164-9.241
			c12.645,7.542,25.084,7.559,38.516,1.544l4.974,9.859C1636.732,777.587,1628.86,779.401,1621.274,779.401z M270.32,755.867
			l-11.055-3.194c4.593-14.192,9.632-28.306,14.978-41.952l10.841,3.791C279.816,727.962,274.849,741.876,270.32,755.867z
			 M1682.475,745.454l-8.493-7.41c8.765-8.969,18.16-20.033,28.724-33.825l9.365,6.405
			C1701.235,724.77,1691.555,736.164,1682.475,745.454z M1562.152,737.944c-7.481-10.905-14.895-23.747-22.664-39.258l10.448-4.673
			c7.549,15.07,14.717,27.496,21.917,37.99L1562.152,737.944z M2237.277,733.107c-4.656-14.152-9.626-28.083-14.769-41.407
			l10.86-3.743c5.207,13.488,10.236,27.588,14.948,41.908L2237.277,733.107z M720.009,709.086
			c-10.576-13.657-19.39-24.869-27.739-35.285l9.216-6.594c8.387,10.464,17.237,21.722,27.852,35.429L720.009,709.086z
			 M982.229,700.969l-11.536-0.705c0.876-12.797,1.768-27.18,2.725-43.972l11.543,0.588
			C984.002,673.711,983.108,688.132,982.229,700.969z M302.412,674.081l-10.576-4.41c6.346-13.58,13.108-26.915,20.294-39.955
			l10.251,5.049C315.31,647.595,308.657,660.717,302.412,674.081z M1738.554,674.078l-9.659-6.001
			c8.215-11.8,16.7-24.304,25.289-36.934l9.725,5.904C1755.299,649.711,1746.805,662.224,1738.554,674.078z M1520.879,657.925
			c-5.236-12.409-10.647-25.948-16.541-41.391l10.873-3.706c5.852,15.327,11.218,28.755,16.406,41.052L1520.879,657.925z
			 M2205.502,651.112c-6.215-13.679-12.789-26.966-19.54-39.493l10.302-4.956c6.864,12.738,13.547,26.243,19.86,40.14
			L2205.502,651.112z M663.729,639.192c-10.489-12.302-20.253-23.252-29.849-33.474l8.648-7.248
			c9.718,10.353,19.598,21.431,30.203,33.87L663.729,639.192z M987.367,612.819l-11.546-0.55
			c0.779-14.592,1.553-29.192,2.378-44.048l11.544,0.573C988.918,583.642,988.144,598.234,987.367,612.819z M1789.253,600.157
			l-9.644-6.023c9.658-13.808,18.297-25.753,26.41-36.516l9.415,6.336C1807.4,574.613,1798.836,586.455,1789.253,600.157z
			 M345.306,597.074l-9.743-5.878c9.084-13.442,18.45-25.583,27.838-36.084l8.831,7.048
			C363.174,572.292,354.115,584.039,345.306,597.074z M1488.903,574.853c-5.302-14.679-10.503-29.366-14.891-41.797l10.966-3.456
			c4.383,12.414,9.576,27.078,14.866,41.725L1488.903,574.853z M602.096,574.089c-11.815-10.869-23.433-20.471-34.529-28.539
			l7.049-8.656c11.45,8.325,23.409,18.206,35.544,29.369L602.096,574.089z M2163.518,573.622
			c-8.283-12.771-16.968-24.85-25.814-35.901l9.219-6.589c9.072,11.334,17.972,23.71,26.45,36.783L2163.518,573.622z
			 M404.656,532.444l-7.011-8.684c13.805-9.95,28.172-17.126,42.703-21.327l3.383,10.445
			C430.515,516.698,417.368,523.281,404.656,532.444z M1843.316,529.103l-8.98-6.877c10.841-12.639,21.114-23.515,31.405-33.248
			l8.177,7.719C1863.913,506.161,1853.903,516.761,1843.316,529.103z M992.333,524.808l-11.539-0.65
			c1.001-15.876,1.995-30.294,3.038-44.077l11.53,0.779C994.323,494.6,993.332,508.976,992.333,524.808z M529.348,522.522
			c-14.425-6.782-28.613-11.112-42.171-12.867l1.569-10.822c14.806,1.917,30.199,6.597,45.751,13.91L529.348,522.522z
			 M2107.966,504.866c-11.128-10.773-22.652-20.283-34.248-28.264l6.807-8.829c12.118,8.34,24.134,18.253,35.715,29.463
			L2107.966,504.866z M1459.266,491.261c-5.751-16.251-10.49-29.502-14.914-41.701l10.934-3.541
			c4.435,12.226,9.183,25.501,14.943,41.779L1459.266,491.261z M1908.515,468.816l-6.626-8.95
			c14.217-9.398,28.576-16.358,42.681-20.686l3.57,10.388C1935.126,453.563,1921.795,460.039,1908.515,468.816z M2034.648,455.435
			c-14.317-5.706-28.809-9.237-43.074-10.496l1.074-10.875c15.443,1.363,31.085,5.167,46.492,11.308L2034.648,455.435z
			 M999.061,437.009l-11.515-0.966c1.441-15.325,3.008-30.125,4.658-43.99l11.488,1.221
			C1002.052,407.054,1000.493,421.769,999.061,437.009z M1428.972,408.016c-5.586-14.732-10.849-28.198-16.093-41.168l10.799-3.897
			c5.272,13.041,10.563,26.577,16.176,41.381L1428.972,408.016z M1009.577,349.721l-11.441-1.562
			c2.338-15.292,4.908-29.999,7.639-43.711l11.36,2.019C1014.435,320.028,1011.892,334.58,1009.577,349.721z M1395.705,326.066
			c-6.212-14.117-12.472-27.624-18.611-40.146l10.49-4.59c6.202,12.651,12.525,26.292,18.796,40.543L1395.705,326.066z
			 M1026.952,263.725l-11.216-2.647c4.032-15.252,8.477-29.619,13.211-42.701l10.938,3.534
			C1035.257,234.702,1030.905,248.77,1026.952,263.725z M1356.565,246.721c-7.603-13.53-15.37-26.231-23.084-37.751l9.769-5.84
			c7.87,11.753,15.785,24.695,23.526,38.469L1356.565,246.721z M1057.247,181.893l-10.366-4.834
			c7.591-14.532,16.008-27.38,25.019-38.19l9.081,6.759C1072.467,155.841,1064.482,168.042,1057.247,181.893z M1306.986,173.545
			c-10.101-11.964-20.526-22.563-30.987-31.501l7.755-8.101c10.923,9.333,21.78,20.366,32.269,32.791L1306.986,173.545z
			 M1113.231,117.317l-6.232-9.2c13.694-8.281,28.781-13.666,44.844-16.004l1.76,10.795
			C1139.143,105.014,1125.56,109.862,1113.231,117.317z M1239.527,117.311c-13.466-6.859-27.493-11.549-41.692-13.938l2.027-10.754
			c15.411,2.593,30.602,7.666,45.151,15.077L1239.527,117.311z"/>
		<path style="fill:#B8D5FF;" d="M2361.561,1336.41c-95.928-16.049-80.275,128.944-217.014,128.944
			c-125.02,0-165.017-552.16-255.98-394.321c-466.33,809.175-195.541-344.117-566.406-358.772
			c-167.694-6.627-279.438,195.195-320.645,552.529c-59.732,323.043-198.258-246.39-340.817-193.445
			c-90.603,33.649-80.227,394.009-205.247,394.009c-136.739,0-121.086-144.993-217.014-128.944
			c-103.283,17.279-132.353,273.913-132.353,273.913h2387.259C2493.344,1610.323,2464.844,1353.689,2361.561,1336.41z"/>
		<path style="fill:#CAE5FF;" d="M2276.611,1493.359c-88.252-6.853-73.851,55.061-199.648,55.061
			c-115.015,0-111.855-138.757-188.822-168.247c-141.739-54.307-258.592,220.547-313.543,82.603
			c-104.368-366.024-408.765-549.582-549.195,0c-54.952,137.944-183.456-108.196-313.543-82.603
			c-80.074,15.753-73.807,168.247-188.823,168.247c-125.797,0-111.396-61.914-199.648-55.061
			c-95.018,7.379-123.398,116.965-123.398,116.965h2200.018C2400.009,1610.323,2371.628,1500.737,2276.611,1493.359z"/>
		<path style="fill:#ADC8F7;" d="M106.085,1610.323c0,0-16.778,69.05,52.728,86.337c95.071,23.646,653.122,85.774,517.552,132.985
			c-76.529,26.65,39.068,62.839,411.823,76.164c372.755,13.325,1012.374-38.886,797.28-116.14
			c-215.094-77.253,661.258-18.655,607.876-179.346H106.085z"/>
	</g>
	<path id="_x37_" style="fill:#1D3F70;" d="M2089.939,1636.561h-312.416c-60.189,0-116.776-23.439-159.337-65.999
		c-42.56-42.561-65.999-99.146-65.999-159.336v-154.96c0-227.834-185.356-413.19-413.19-413.19H722.594
		c-65.667,0-127.403-25.572-173.837-72.005c-46.434-46.434-72.006-108.17-72.006-173.837V409.884c0-5.523,4.477-10,10-10
		c5.523,0,10,4.477,10,10v187.348c0,124.53,101.313,225.843,225.843,225.843h416.403c58.476,0,115.208,11.455,168.62,34.046
		c51.586,21.819,97.912,53.052,137.691,92.832c39.78,39.78,71.014,86.106,92.833,137.692
		c22.591,53.412,34.046,110.145,34.046,168.62v154.96c0,113.222,92.113,205.335,205.336,205.335h312.416c5.522,0,10,4.478,10,10
		S2095.462,1636.561,2089.939,1636.561z"/>
	<g id="_x36_">
		<path style="fill:#EB5648;" d="M1945.386,836.157c-3.643,107-92.167,197.949-167.651,268.338
			c-128.649,129.435-315.052,316.537-444.048,446.327c-129.485-128.769-317.227-315.458-446.435-443.94
			c-75.868-69.854-164.78-160.766-169.02-267.64c-25.261-178.077,134.869-354.171,312.182-348.044
			c121.263-7.107,222.395,82.308,300.886,169.25c0.319-0.618,74.942-74.959,77.686-78.11
			C1610.345,371.718,1980.645,548.446,1945.386,836.157z"/>
		<path style="fill:#CE3932;" d="M1945.386,836.157c-3.643,107-92.167,197.949-167.651,268.338
			c-128.649,129.435-315.052,316.537-444.048,446.327l-2.386-890.374c0.319-0.618,74.942-74.959,77.686-78.11
			C1610.345,371.718,1980.645,548.446,1945.386,836.157z"/>
		<path style="fill:#FFFFFF;" d="M1365.034,1328.383c-10.634,0-20.12-6.694-23.681-16.72L1151.057,775.81l-129.366,255.879
			c-4.276,8.458-12.951,13.791-22.428,13.791H600.616c-13.878,0-25.132-11.25-25.132-25.13c0-13.88,11.254-25.131,25.132-25.131
			h383.193l148.864-294.45c4.538-8.974,14.009-14.356,24.022-13.742c10.034,0.638,18.724,7.195,22.088,16.671l186.029,523.831
			l147.63-423.596c3.418-9.81,12.518-16.505,22.902-16.847c10.341-0.349,19.903,5.738,23.961,15.301l81.821,192.832h358.258
			c13.879,0,25.132,11.251,25.132,25.131c0,13.88-11.253,25.13-25.132,25.13h-374.896c-10.085,0-19.195-6.029-23.134-15.314
			l-62.884-148.201l-149.707,429.557c-3.51,10.071-12.99,16.829-23.657,16.86
			C1365.083,1328.383,1365.058,1328.383,1365.034,1328.383z"/>
	</g>
	<g id="_x35_">
		
			<ellipse transform="matrix(0.7071 -0.7071 0.7071 0.7071 -132.683 458.5747)" style="fill:#1D3F70;" cx="487.207" cy="389.45" rx="199.48" ry="199.48"/>
		
			<ellipse transform="matrix(0.7071 -0.7071 0.7071 0.7071 -132.683 458.5747)" style="fill:#BEDCED;" cx="487.207" cy="389.45" rx="151.037" ry="151.038"/>
		<path style="fill:#2FAC66;" d="M454.56,389.32l-118.39-0.48c0.22-54.13,28.89-101.49,71.78-127.99L454.56,389.32z"/>
		<path style="fill:#EB5648;" d="M638.24,390.07l-118.39-0.48L567.5,261.5C610.18,288.35,638.46,335.93,638.24,390.07z"/>
		<path style="fill:#103663;" d="M511.92,468.172c-0.057,13.9-11.37,25.122-25.27,25.066c-13.9-0.056-25.122-11.37-25.066-25.27
			c0.056-13.9,11.37-25.122,25.27-25.066C500.754,442.958,511.976,454.272,511.92,468.172z"/>
		<path style="fill:#F9B233;" d="M567.5,261.5l-47.65,128.09l-65.29-0.27l-46.61-128.47c23.21-14.32,50.58-22.55,79.87-22.43
			C517.11,238.54,544.42,246.99,567.5,261.5z"/>
		<path style="fill:#103663;" d="M475.612,458.125l88.298-109.059l-62.374,125.698c-3.804,7.666-13.103,10.797-20.769,6.993
			c-7.666-3.804-10.797-13.103-6.993-20.769C474.278,459.973,474.932,458.975,475.612,458.125z"/>
	</g>
	<g id="_x34_">
		<path style="fill:#1D3F70;" d="M1808.391,1632.23c-5.519,0-9.994-4.471-10-9.99l-0.084-83.772
			c-0.006-5.522,4.467-10.004,9.99-10.01c0.003,0,0.007,0,0.01,0c5.519,0,9.994,4.471,10,9.99l0.084,83.772
			c0.006,5.522-4.467,10.004-9.99,10.01C1808.397,1632.23,1808.394,1632.23,1808.391,1632.23z"/>
		<path style="fill:#1D3F70;" d="M1765.646,1551c-6.898,0-12.493-5.588-12.5-12.487c-0.007-6.903,5.584-12.506,12.487-12.513
			l85.323-0.085c0.005,0,0.009,0,0.013,0c6.898,0,12.493,5.588,12.5,12.487c0.007,6.904-5.584,12.506-12.487,12.513l-85.323,0.085
			C1765.653,1551,1765.649,1551,1765.646,1551z"/>
		<path style="fill:#1D3F70;" d="M1863.81,1661.429l-71.508,0.071c-21.679,0.022-39.271-17.535-39.292-39.214v0
			c-0.022-21.679,17.535-39.271,39.214-39.292l71.508-0.071L1863.81,1661.429z"/>
		<path style="fill:#1D3F70;" d="M2243.725,1661.051l28.151-0.028c21.679-0.022,39.236-17.613,39.214-39.292v0
			c-0.021-21.679-17.613-39.236-39.292-39.214l-28.151,0.028L2243.725,1661.051z"/>
		<path style="fill:#23659B;" d="M2277.39,1621.76c0.06,62.52-99.11,113.3-221.51,113.43c-97.91,0.1-181.02-32.26-210.39-77.21
			c-7.35-11.24-11.33-23.27-11.34-35.77c-0.06-62.52,99.11-113.3,221.51-113.43c74.34-0.07,140.16,18.56,180.39,47.21
			C2262.05,1574.51,2277.37,1597.22,2277.39,1621.76z"/>
		<path style="fill:#3A72AA;" d="M2247.39,1591.76c0.06,62.52-99.11,113.3-221.51,113.43c-74.34,0.07-140.16-18.57-180.39-47.21
			c-7.35-11.24-11.33-23.27-11.34-35.77c-0.06-62.52,99.11-113.3,221.51-113.43c74.34-0.07,140.16,18.56,180.39,47.21
			C2243.4,1567.23,2247.38,1579.26,2247.39,1591.76z"/>
	</g>
	<g id="_x33_">
		<g>
			<polygon style="fill:#FCB4B4;" points="2273.094,1040.262 2233.735,1040.262 2233.735,1205.253 2168.346,1205.253 
				2168.346,1040.262 2128.993,1040.262 2201.038,945.984 			"/>
			<polygon style="fill:#F49F9F;" points="2273.094,1040.262 2233.735,1040.262 2233.735,1205.253 2201.038,1205.253 
				2201.038,945.984 			"/>
		</g>
		<g>
			<polygon style="fill:#FCB4B4;" points="934.141,1507.781 894.781,1507.781 894.781,1672.772 829.393,1672.772 829.393,1507.781 
				790.04,1507.781 862.084,1413.503 			"/>
			<polygon style="fill:#F49F9F;" points="934.141,1507.781 894.781,1507.781 894.781,1672.772 862.084,1672.772 862.084,1413.503 
							"/>
		</g>
		<g>
			<polygon style="fill:#FCB4B4;" points="2045.99,350.127 2006.631,350.127 2006.631,515.118 1941.243,515.118 1941.243,350.127 
				1901.889,350.127 1973.934,255.849 			"/>
			<polygon style="fill:#F49F9F;" points="2045.99,350.127 2006.631,350.127 2006.631,515.118 1973.934,515.118 1973.934,255.849 
							"/>
		</g>
	</g>
	<g id="_x32_">
		<g>
			<path style="fill:#FFFFFF;" d="M1888.983,1403.079c-3.7,23.191-38.279,18.273-35.37-5.027
				C1857.313,1374.862,1891.892,1379.78,1888.983,1403.079z"/>
			<path style="fill:#FFFFFF;" d="M1903.732,1176.527L1903.732,1176.527c9.654,1.398,16.217,10.534,14.458,20.129l-29.992,163.635
				c-1.063,5.798-6.52,9.718-12.354,8.873h0c-5.834-0.844-9.956-6.151-9.33-12.013l17.645-165.422
				C1885.194,1182.029,1894.078,1175.129,1903.732,1176.527z"/>
		</g>
		<g>
			<path style="fill:#EB5648;" d="M1318.637,501.298c-4.128,23.118-38.61,17.563-35.271-5.679
				C1287.494,472.501,1321.976,478.056,1318.637,501.298z"/>
			<path style="fill:#EB5648;" d="M1337.568,275.057L1337.568,275.057c9.627,1.576,16.019,10.832,14.084,20.393l-33.01,163.053
				c-1.17,5.778-6.699,9.596-12.516,8.644h0c-5.817-0.952-9.84-6.334-9.107-12.183l20.698-165.068
				C1318.932,280.216,1327.942,273.481,1337.568,275.057z"/>
		</g>
		<g>
			<path style="fill:#3A72AA;" d="M443.893,894.775c3.866,23.164-30.482,29.497-35.133,6.481
				C404.895,878.093,439.242,871.76,443.893,894.775z"/>
			<path style="fill:#3A72AA;" d="M385.836,675.292L385.836,675.292c9.598-1.745,18.725,4.831,20.109,14.487l23.598,164.678
				c0.836,5.835-3.091,11.287-8.891,12.341h0c-5.8,1.054-11.395-2.666-12.666-8.422l-35.872-162.447
				C370.01,686.404,376.238,677.037,385.836,675.292z"/>
		</g>
		<g>
			<path style="fill:#F49F9F;" d="M1808.968,885.486c-0.339,23.482-35.266,23.569-35.725,0.093
				C1773.582,862.098,1808.509,862.01,1808.968,885.486z"/>
			<path style="fill:#F49F9F;" d="M1791.105,659.158L1791.105,659.158c9.755,0,17.559,8.102,17.193,17.85l-6.238,166.244
				c-0.221,5.891-5.06,10.552-10.955,10.552h0c-5.895,0-10.734-4.661-10.955-10.552l-6.238-166.244
				C1773.547,667.26,1781.35,659.158,1791.105,659.158z"/>
		</g>
	</g>
	<g id="_x31_">
		<path style="fill:#F99370;" d="M367.878,1824.971c9.715-12.824-2.101-71.448-1.689-86.434h44.12
			c0.5,14.942-10.579,73.702-1.317,86.407C411.616,1829.53,365.242,1829.48,367.878,1824.971z"/>
		<path style="fill:#F99370;" d="M583.886,1842.619H506.66c-4.576,0-8.161-3.928-7.743-8.485c0.734-7.984,2.452-18.951,1.901-24.032
			c0.307-4.676-6.428-65.293-6.93-71.565h48.648l-7.85,62.585c-0.926,7.38,3.48,14.412,10.544,16.742
			c9.542,3.147,20.41,4.513,27.589,6.362c6.93,1.75,13.162,4.167,16.275,9.492C591.398,1837.66,588.453,1842.619,583.886,1842.619z"
			/>
		<path style="fill:#395B96;" d="M496.339,1834.473l0.01,0.086c0.563,4.602,4.47,8.061,9.107,8.061h77.807
			c4.463,0,7.727-4.33,6.367-8.58c-4.101-12.812-16.952-20.747-53.388-23.939c-0.002,0.002-13.399,3.989-35.425,0.002
			C500.817,1810.103,494.922,1822.873,496.339,1834.473z"/>
		<path style="fill:#395B96;" d="M371.46,1842.62h33.93c4.753,0,8.632-3.937,8.414-8.684c-1.465-31.941-49.513-32.202-50.76,0.031
			C362.86,1838.703,366.72,1842.62,371.46,1842.62z"/>
		<path style="fill:#E8C0A6;" d="M564.957,1831.595c0.684,0,1.332-0.408,1.605-1.081c3.131-7.723,8.776-10.087,9.015-10.184
			c2.081-0.803,0.793-4.068-1.278-3.217c-0.293,0.115-7.231,2.938-10.946,12.101C562.878,1830.32,563.761,1831.618,564.957,1831.595
			z"/>
		<path style="fill:#E8C0A6;" d="M551.508,1829.972c0.739,0,1.423-0.477,1.652-1.22c2.753-8.892,10.561-13.079,10.639-13.121
			c1.996-1.008,0.376-4.133-1.599-3.07c-0.372,0.194-9.155,4.856-12.346,15.168C549.496,1828.818,550.367,1829.989,551.508,1829.972
			z"/>
		<path style="fill:#E8C0A6;" d="M536.201,1828.091c0.717,0,1.386-0.448,1.635-1.163c3.249-9.338,10.694-14.346,10.769-14.395
			c1.888-1.207-0.052-4.158-1.909-2.887c-0.346,0.229-8.5,5.715-12.129,16.145C534.162,1826.888,535.038,1828.11,536.201,1828.091z"
			/>
		<path style="fill:#E8C0A6;" d="M375.956,1820.454c13.208-7.464,24.953,2.318,26.853-1.017c1.552-3.507-15.747-8.763-27.728-2.208
			C373.56,1818.052,374.258,1820.519,375.956,1820.454z"/>
		<path style="fill:#4867AA;" d="M589.764,1834.473h-93.425l0.01,0.086c0.563,4.602,4.47,8.061,9.107,8.061h78.628
			c4.15,0,7.111-4.094,5.73-8.007C589.798,1834.566,589.781,1834.519,589.764,1834.473z"/>
		<path style="fill:#4867AA;" d="M370.768,1842.62h35.322c4.383,0,7.939-3.628,7.755-8.007c-0.002-0.047-0.004-0.093-0.006-0.14
			h-50.819c-0.003,0.057-0.005,0.113-0.007,0.17C362.85,1839.011,366.397,1842.62,370.768,1842.62z"/>
		<path style="fill:#8C4225;" d="M486.355,1045.174c0,0,4.446-25.065-17.552-33.178l-13.894,10.44L486.355,1045.174z"/>
		<path style="fill:#E9F4FF;" d="M524.422,1232.401c61.749,46.504,158.375,32.582,194.113-35.06l-9.047-18.802
			c-103.597,44.531-144.376-42.717-228.429-47.74l16.931,21.6C497.991,1152.398,522.969,1230.92,524.422,1232.401z"/>
		<path style="fill:#EB5648;" d="M360.858,1798.193c0,0,37.131,9.019,56.26-0.672c9.957-62.438,37.596-236.292,47.223-355.427
			c0.368,6.947,20.593,287.109,24.442,355.427c13.208,4.419,39.763,9.75,54.625-0.954c6.676-71.919,28.112-308.698-4.178-502.081
			c0,0-88.488,9.844-157.591-11.038C362.618,1344.787,357.579,1724.58,360.858,1798.193z"/>
		<path style="fill:#F99370;" d="M471.455,1129.16c0.612-19.074,2.983-56.902-12.496-61.974c-11.117-3.86-24.277,5.61-20.857,18.139
			c1.008-0.634,4.234,35.092,2.008,45.006C410.771,1139.133,499.007,1168.074,471.455,1129.16z"/>
		<path style="fill:#E57D61;" d="M437.802,1083.699c0.077,0.543,0.173,1.094,0.3,1.626c0.727-0.481,2.761,19.229,2.78,33.534
			c13.443,6.113,28.078,3.717,30.821,3.154c0.749-19.746,1.955-49.313-12.746-54.827
			C448.464,1062.699,435.955,1072.262,437.802,1083.699z"/>
		<path style="fill:#F99370;" d="M416.678,1070.524c2.258,14.005,6.985,29.792,18.048,39.057h0.018
			c16.126,12.211,39.749,10.91,56.151-2.552h0.009c12.659-11.827,16.663-27.751,10-40.02c-4.358-7.232-12.385-13.595-14.55-21.836
			C467.571,990.344,408.705,1021.008,416.678,1070.524z"/>
		<path style="fill:#C16256;" d="M470.13,1061.887c1.282-2.434-2.571-4.391-3.78-1.92
			C465.068,1062.401,468.921,1064.358,470.13,1061.887z"/>
		<path style="fill:#C16256;" d="M487.954,1058.891c1.282-2.434-2.571-4.391-3.78-1.92
			C482.892,1059.405,486.745,1061.362,487.954,1058.891z"/>
		<path style="fill:#E57D61;" d="M416.683,1070.526c2.257,14.006,6.985,29.792,18.048,39.057h0.018
			c0.917,0.763,1.546,1.132,2.545,1.776c-8.42-8.356-12.963-25.937-12.963-25.937l1.98-15.178
			c13.588-13.77,7.739-29.256,7.739-29.256c22.726,6.376,30.383-7.648,30.383-7.648c7.185,0.926,14.742-2.698,14.742-2.698
			C452.191,993.801,408.681,1032.943,416.683,1070.526z"/>
		<path style="fill:#8C4225;" d="M423.651,1034.024c9.66,3.819,13.052,26.257-9.776,41.595
			C413.874,1075.62,402.815,1038.655,423.651,1034.024z"/>
		<path style="fill:#D1E0F2;" d="M700.818,1182.095c-3.858,18.994,12.943,23.415,12.943,23.415c3.203-4.811,4.778-8.181,4.774-8.169
			l-9.047-18.802C709.488,1178.539,705.496,1179.882,700.818,1182.095z"/>
		<path style="fill:#C16256;" d="M481.214,1077.33c3.881-0.046,9.917-2.663,5.009-6.112c-4.003-2.168-6.949-10.472-6.978-10.555
			c-0.327-0.981-1.875-0.452-1.515,0.53c0.128,0.365,3.181,8.973,7.728,11.436c3.142,1.925-3.404,3.79-6.108,2.837
			c-0.426-0.136-0.874,0.097-1.01,0.519C478.113,1077.425,480.209,1077.222,481.214,1077.33z"/>
		<path style="fill:#E8C0A6;" d="M372.77,1370.155c4.272,7.548,167.725,21.6,179.333,7.455
			c22.696-56.032-19.187-205.402-71.038-246.805c-0.456-0.127-6.308-1.621-9.596-1.627c0.227,0.917,6.033,25.069-31.362,1.153
			c-0.213,0.253-9.123,0.411-11.496,2.048C431.297,1171.448,355.304,1327.382,372.77,1370.155z"/>
		<path style="fill:#D1E0F2;" d="M526.875,1164.324l23.225,83.146c36.222,19.964,98.13,15.869,126.881-6.594
			c-102.927,39.87-111.325-38.919-148.716-76.552H526.875z"/>
		<path style="fill:#8C4225;" d="M427.187,1011.997l0.228,0.467c7.565-8.974,21.338-13.361,24.492-22.495
			c0,0,4.674,8.75,4.13,18.527c3.664-4.106,7.025-8.602,9.656-13.425c3.713,3.748,5.698,8.042,6.295,12.45
			c11.789-2.568,22.125,2.16,22.125,2.16c-6.058,17.121-20.192,20.891-31.277,20.954c-9.198,8.803-23.888,12.797-38.094,4.078
			l-13.686,17.69C391.611,1018.696,427.187,1011.997,427.187,1011.997z"/>
		<path style="fill:#CE3932;" d="M488.783,1797.521c0.309-6.004-24.442-355.427-24.442-355.427s11.69,6.24,14.469,43.344
			c2.416,32.26,16.834,246.635,20.558,302.064c25.391,5.675,45.192-3.461,45.192-3.461c-0.772,8.12-1.151,12.526-1.151,12.526
			c-12.158,8.756-32.138,6.781-46.238,3.354c-3.423-0.794-6.085-1.641-7.425-2.086
			C489.42,1797.73,489.095,1797.625,488.783,1797.521z"/>
		<path style="fill:#CE3932;" d="M360.858,1798.193c0,0,37.131,9.019,56.26-0.672c0,0,0.79-4.832,2.171-13.479
			c0,0-26.16,7.065-58.887-0.266C360.258,1792.205,360.977,1797.494,360.858,1798.193z"/>
		<path style="fill:#E9F4FF;" d="M337.28,1621.349c35.366,9.991,65.587,9.457,80.802,8.181c6.734-0.56,10.525-1.264,10.525-1.264
			s11.88-245.505,15.488-297.402c5.823-53.538,10.082-177.274-15.488-198.481l-9.462,3.036
			C357.036,1212.496,343.012,1583.599,337.28,1621.349z"/>
		<path style="fill:#E9F4FF;" d="M542.534,1630.22c0,0,3.387,0.508,8.428,0.69c10.017,0.378,26.586-0.586,35.848-9.561
			c1.185-19.813,17.26-464.958-94.427-489.513l-0.013-0.013c-3.634-0.794-7.399-1.146-11.307-1.029
			C553.984,1199.417,549.738,1572.566,542.534,1630.22z"/>
		<path style="fill:#E9F4FF;" d="M435.837,1098.128c0,0.005,38.83,23.155,55.067,8.9c14.326-12.577,16.616-27.725,10-40.02
			c0,0-18.269,6.364-59.551,4.62C441.353,1071.628,444.239,1090.244,435.837,1098.128z"/>
		<path style="fill:#C16256;" d="M441.354,1072.43c0.899,0.026,1.103-1.361,0.209-1.577l-17.092-4.621
			C418.915,1068.016,441.544,1071.93,441.354,1072.43z"/>
		<path style="fill:#C16256;" d="M435.836,1098.93c0.76,0.027,1.11-1.062,0.444-1.471c-0.485,0.15-16.678-12.208-16.797-10.199
			C418.268,1088.497,435.273,1098.48,435.836,1098.93z"/>
		<path style="fill:#F99370;" d="M407.784,1077.601c3.446,15.918,22.881,11.808,19.589-4.141
			C423.928,1057.543,404.492,1061.652,407.784,1077.601z"/>
		<path style="fill:#C16256;" d="M412.836,1080.891c0.528,0.007,0.931-0.531,0.767-1.037c-3.034-8.468,0.72-12.026,6.43-9.675
			c5.617-1.917-14.263-7.096-7.964,10.145C412.174,1080.669,412.492,1080.891,412.836,1080.891z"/>
		<path style="fill:#C16256;" d="M420.326,1079.769c2.432-0.343-2.182-7.795-8.343-8.298c-1.041-0.09-1.145,1.549-0.106,1.601
			C418.078,1073.713,418.857,1079.564,420.326,1079.769z"/>
		<path style="fill:#D1E0F2;" d="M427.054,1179.321c4.011,31.263-25.396,81.69,20.618,95.812l-34.658,8.315l-9.669-37.479
			L427.054,1179.321z"/>
		<path style="fill:#D1E0F2;" d="M542.534,1630.22c0,0,3.387,0.508,8.428,0.69c6.826-64.792,4.911-147.939,3.373-188.815
			c-1.602-42.205-6.734-129.402-20.907-206.231c-14.186-76.829-41.046-104.028-41.046-104.028l-0.013-0.013
			c-3.634-0.794-7.399-1.146-11.307-1.029C553.984,1199.417,549.738,1572.566,542.534,1630.22z"/>
		<path style="fill:#D1E0F2;" d="M366.376,1318.571l-0.599,5.92c27.349,13.506,78.324,6.379,78.324,6.379
			c0.518-7.893,1.026-15.477,1.508-22.762l-72.065-21.154C371.232,1299.592,368.166,1305.46,366.376,1318.571z"/>
		<path style="fill:#D1E0F2;" d="M418.082,1629.529c6.734-0.56,10.525-1.264,10.525-1.264s11.88-245.505,15.488-297.402
			c5.823-53.538,10.082-177.274-15.488-198.481l-9.462,3.036c8.602,5.075,20.586,41.044,20.261,93.136
			c-0.443,69.834-7.542,154.595-11.085,213.539C425.285,1492.637,419.632,1599.973,418.082,1629.529z"/>
		<path style="fill:#F99370;" d="M530.048,1265.266c2.737,3.377-8.624,8.069-10.615,11.587c7.548,1.339,15.541,0.505,15.578,0.542
			c9.109-2.68,18.055-5.848,26.862-9.422c2.794-1.214,4.899,3.079,2.174,4.526c-8.095,4.521-16.415,8.702-24.91,12.444
			c0.019,0.079,0.014,0.059,0.034,0.137c9.396-0.716,18.771-1.921,27.995-3.852c1.143-0.24,2.348-0.112,3.37,0.453
			c8.831,4.887-28.289,10.753-31.374,11.44c0.005,0.04,0.004,0.031,0.008,0.07c8.888,0.815,17.875,0.608,26.738-0.501
			c1.307-0.164,2.655,0.137,3.682,0.963c7.091,5.704-29.85,8.431-33.183,8.053c-0.016,0.034-0.031,0.068-0.046,0.103
			c6.832,1.645,13.859,2.475,20.883,2.933c1.14,0.074,2.245,0.504,3.074,1.29c6.805,6.45-25.228,4.303-28.329,3.722
			c-3.675,0.211-14.893,4.351-31.741-1.521c-5.251-1.826-7.595-26.156-2.273-27.377c3.993-0.916,11.068-4.985,13.303-6.155
			C514.667,1271.986,526.298,1261.548,530.048,1265.266z"/>
		<path style="fill:#E9F4FF;" d="M488.676,1312.286c3.786-1.254,7.636-2.607,11.568-4.051c0.645-3.388,4.613-19.365-2.27-27.376
			c-164.435-7.181-39.109-62.356-78.829-145.439C301.219,1143.194,242.232,1381.453,488.676,1312.286z"/>
		<path style="fill:#D1E0F2;" d="M488.671,1312.286c3.788-1.254,7.639-2.607,11.572-4.051c0.645-3.388,4.614-19.365-2.271-27.376
			c0,0-4.504-0.475-9.301-0.475C488.671,1280.383,496.782,1294.665,488.671,1312.286z"/>
		<path style="fill:#C16256;" d="M460.016,1058.583c0.247,0,0.483-0.141,0.593-0.38c2.823-6.183,9.462-6.033,9.509-6.026
			c0.345-0.006,0.662-0.27,0.674-0.629c0.012-0.36-0.27-0.661-0.628-0.674c-0.08-0.006-7.561-0.174-10.74,6.786
			c-0.149,0.328-0.005,0.714,0.322,0.864C459.833,1058.563,459.925,1058.583,460.016,1058.583z"/>
		<path style="fill:#C16256;" d="M486.722,1051.095c0.197,0,0.393-0.089,0.52-0.259c0.216-0.287,0.16-0.693-0.126-0.91
			c-0.15-0.113-3.744-2.769-9.658-0.678c-0.339,0.121-0.517,0.493-0.397,0.832c0.121,0.339,0.491,0.516,0.832,0.397
			c5.219-1.843,8.309,0.393,8.438,0.488C486.449,1051.053,486.586,1051.095,486.722,1051.095z"/>
		<path style="fill:#D1A68F;" d="M428.63,1132.38c5.943,8.391,56.798,40.057,52.436-1.578c-0.456-0.124-6.309-1.618-9.596-1.624
			c0.227,0.917,4.003,23.513-31.362,1.153C439.957,1130.236,430.944,1130.864,428.63,1132.38z"/>
		<path style="fill:#F99370;" d="M727.6,1147.777c3.999,1.704-3.845,11.167-3.959,15.208c7.297-2.349,13.971-6.826,14.02-6.811
			c6.795-6.631,13.219-13.618,19.33-20.897c1.902-2.38,5.771,0.429,4.039,2.983c-5.038,7.784-10.434,15.372-16.191,22.655
			c0.054,0.061,0.04,0.045,0.094,0.105c7.969-5.029,15.69-10.481,22.938-16.505c0.898-0.746,2.023-1.198,3.19-1.177
			c10.091,0.186-19.969,22.741-22.373,24.793c0.023,0.033,0.017,0.025,0.04,0.058c8.236-3.439,16.081-7.827,23.395-12.955
			c1.078-0.756,2.411-1.121,3.704-0.872c8.936,1.722-22.435,21.42-25.557,22.646c0.002,0.038,0.005,0.075,0.007,0.112
			c6.808-1.744,13.406-4.298,19.828-7.18c1.042-0.468,2.22-0.605,3.32-0.298c9.033,2.516-20.281,15.609-23.293,16.547
			c-3.149,1.906-14.669,9.832-32.304,12.54c-5.495,0.844-13.211-12.618-10.629-19.353c1.466-3.826,6.799-12.393,8.227-14.473
			C717.152,1160.914,722.547,1146.246,727.6,1147.777z"/>
	</g>
</g>
</svg>
