<?xml version="1.0" encoding="utf-8"?>
<!-- Generator: Adobe Illustrator 27.5.0, SVG Export Plug-In . SVG Version: 6.00 Build 0)  -->
<svg version="1.1" xmlns="http://www.w3.org/2000/svg" xmlns:xlink="http://www.w3.org/1999/xlink" x="0px" y="0px"
	 viewBox="0 0 500 500" style="enable-background:new 0 0 500 500;" xml:space="preserve">
<g id="BACKGROUND">
	<linearGradient id="SVGID_1_" gradientUnits="userSpaceOnUse" x1="234.0725" y1="32.6777" x2="267.2156" y2="484.8974">
		<stop  offset="0.0493" style="stop-color:#56D6C6"/>
		<stop  offset="0.3719" style="stop-color:#40C0B0"/>
		<stop  offset="0.7446" style="stop-color:#2DAC9C"/>
		<stop  offset="1" style="stop-color:#26A595"/>
	</linearGradient>
	<rect style="fill:url(#SVGID_1_);" width="500" height="500"/>
</g>
<g id="OBJECTS">
	<g>
		<g style="display:none;">
			
				<text transform="matrix(1 0 0 1 253.0831 51.2108)" style="display:inline;fill:#562A35; font-family:'TrashHand'; font-size:13px;">003</text>
		</g>
	</g>
	<text transform="matrix(1 0 0 1 164.6035 270.587)"><tspan x="0" y="0" style="fill:#FFFFFF; font-family:'Montserrat-Bold'; font-size:30.9267px;">World </tspan><tspan x="0" y="36.938" style="fill:#FFFFFF; font-family:'Montserrat-Bold'; font-size:30.9267px;">Hypertension Day</tspan></text>
	<rect x="164.778" y="330.167" style="fill:none;" width="320.371" height="84.283"/>
	<text transform="matrix(1 0 0 1 164.7773 342.0381)" style="opacity:0.7;"><tspan x="0" y="0" style="fill:#FFFFFF; font-family:'Montserrat-Regular'; font-size:16px;">Lorem ipsum dolor sit amet, consec</tspan><tspan x="295.486" y="0" style="fill:#FFFFFF; font-family:'Montserrat-Regular'; font-size:16px;">-</tspan><tspan x="0" y="19.2" style="fill:#FFFFFF; font-family:'Montserrat-Regular'; font-size:16px;">tetuer adipiscing elit, sed diam </tspan><tspan x="0" y="38.399" style="fill:#FFFFFF; font-family:'Montserrat-Regular'; font-size:16px;">nonummy nibh euismod tincidunt ut </tspan><tspan x="0" y="57.6" style="fill:#FFFFFF; font-family:'Montserrat-Regular'; font-size:16px;">laoreet dolore magna aliquam erat </tspan></text>
	<g>
		<defs>
			<rect id="SVGID_00000147199691217038550370000018185750338468050075_" width="500" height="500"/>
		</defs>
		<clipPath id="SVGID_00000173125398605414580510000014625941174530049961_">
			<use xlink:href="#SVGID_00000147199691217038550370000018185750338468050075_"  style="overflow:visible;"/>
		</clipPath>
		<g style="opacity:0.28;clip-path:url(#SVGID_00000173125398605414580510000014625941174530049961_);">
			<g>
				<g>
					<g>
						<path style="fill:#40ABA1;" d="M136.536,280.383c-1.346-74.022-9.361-115.886-9.592-126.304
							c-0.192-8.66-0.248-17.629,3.207-25.573c5.009-11.517,16.987-19.932,18.489-32.4c0.451-3.747-0.122-7.539-0.819-11.248
							c-1.641-8.73-3.978-17.329-6.982-25.688c-0.843-2.344-1.77-4.725-3.415-6.596c-2.272-2.584-5.617-3.887-8.657-5.499
							c-4.342-2.302-8.263-5.397-11.511-9.085c-2.009-2.281-3.954-4.92-6.863-5.801c-2.909-0.881-7.081,1.506-6.34,4.453
							c-4.107-0.14-6.117,5.175-9.865,6.861c-1.209,0.544-2.555,0.681-3.85,0.967c-6.654,1.468-11.245,8.535-12.144,15.289
							c-9.324,0.974-18.672,6.429-21.922,15.223c-2.183,5.907-2.086,12.376-1.962,18.672c0.178,9.026,0.411,18.314,3.974,26.608
							c4.487,10.443,13.837,18.292,17.889,28.912c4.272,11.197-8.949,91.507-8.552,132.016
							C84.422,280.296,119.736,281.276,136.536,280.383z"/>
					</g>
					<g>
						<g>
							<path style="fill:#40ABA1;" d="M117.124,140.205c2.02-0.043,3.984-0.514,5.819-1.356c1.798-0.824,3.455-2.056,4.377-3.838
								c0.238-0.459-0.272-1.097-0.762-0.762c-1.452,0.994-2.871,2.077-4.457,2.857c-1.546,0.76-3.257,1.18-4.977,1.243
								C115.935,138.393,115.926,140.231,117.124,140.205L117.124,140.205z"/>
						</g>
					</g>
					<g>
						<g>
							<path style="fill:#40ABA1;" d="M82.294,146.147c5.07,0.095,10.52-2.247,13.148-6.741c0.332-0.568-0.454-1.196-0.919-0.709
								c-3.268,3.417-7.398,5.971-12.229,6.194C81.49,144.928,81.482,146.132,82.294,146.147L82.294,146.147z"/>
						</g>
					</g>
					<g>
						<g>
							<path style="fill:#40ABA1;" d="M69.737,73.468c1.125,2.529,2.613,4.879,4.41,6.985c0.888,1.04,1.851,2.017,2.88,2.918
								c1.052,0.921,2.14,1.811,3.404,2.418c0.579,0.279,1.302-0.479,0.738-0.957c-1.016-0.859-2.112-1.612-3.12-2.483
								c-1.011-0.873-1.959-1.818-2.836-2.824c-1.761-2.02-3.209-4.294-4.324-6.729C70.53,72.014,69.393,72.694,69.737,73.468
								L69.737,73.468z"/>
						</g>
					</g>
					<g>
						<g>
							<path style="fill:#40ABA1;" d="M79.725,85.547c2.621,4.087,5.243,8.174,7.864,12.26c0.986,1.537,1.974,3.146,3.376,4.346
								c0.867,0.743,3.288,2.356,4.312,1.054c0.157-0.199,0.185-0.448,0-0.646c-0.463-0.495-1.294-0.478-1.901-0.721
								c-0.754-0.302-1.395-0.83-1.96-1.404c-1.314-1.334-2.272-2.991-3.297-4.545c-2.42-3.669-4.84-7.339-7.26-11.008
								C80.396,84.182,79.265,84.831,79.725,85.547L79.725,85.547z"/>
						</g>
					</g>
					<g>
						<g>
							<path style="fill:#40ABA1;" d="M78.984,61.334c1.77,2.634,4.007,4.874,6.189,7.16c2.326,2.437,4.365,5.059,6.137,7.926
								c1.723,2.789,3.079,5.749,4.431,8.729c0.689,1.518,1.339,3.054,1.97,4.597c0.6,1.469,1.058,3.07,1.81,4.465
								c0.221,0.41,0.829,0.123,0.73-0.308c-0.375-1.635-1.14-3.251-1.726-4.824c-0.548-1.469-1.112-2.933-1.708-4.384
								c-1.23-2.994-2.723-5.909-4.389-8.683c-1.631-2.716-3.56-5.228-5.74-7.525c-2.363-2.49-4.93-4.791-6.914-7.614
								C79.439,60.397,78.653,60.841,78.984,61.334L78.984,61.334z"/>
						</g>
					</g>
					<g>
						<g>
							<path style="fill:#40ABA1;" d="M66.757,79.466c1.198,0.822,2.577,1.305,4.016,1.477c0.702,0.084,1.436,0.102,2.133-0.035
								c0.66-0.13,1.449-0.312,1.924-0.818c0.21-0.224,0.047-0.541-0.236-0.569c-0.609-0.059-1.24,0.148-1.852,0.184
								c-0.64,0.038-1.269,0.082-1.91,0.023c-1.25-0.116-2.452-0.559-3.499-1.247C66.715,78.073,66.157,79.054,66.757,79.466
								L66.757,79.466z"/>
						</g>
					</g>
					<g>
						<g>
							<path style="fill:#40ABA1;" d="M86.865,56.932c0.935-1.985,2.516-3.563,4.462-4.567c0.952-0.491,1.982-0.828,3.039-1.003
								c0.513-0.085,1.036-0.12,1.556-0.117c0.543,0.004,1.132,0.108,1.664-0.022c0.363-0.088,0.394-0.58,0.1-0.765
								c-0.924-0.583-2.444-0.355-3.463-0.197c-1.179,0.182-2.323,0.572-3.384,1.113c-2.121,1.082-3.9,2.848-4.91,5.011
								C85.634,57.013,86.567,57.565,86.865,56.932L86.865,56.932z"/>
						</g>
					</g>
					<g>
						<g>
							<path style="fill:#40ABA1;" d="M94.901,44.677c7.218,2.675,9.565,10.66,10.853,17.482c0.768,4.064,1.392,8.135,2.487,12.13
								c1.041,3.797,1.968,7.546,0.613,11.392c-1.364,3.873-4.529,6.233-8.075,7.934c-0.656,0.315-0.188,1.321,0.484,1.148
								c3.301-0.852,6.136-3.742,7.645-6.703c1.788-3.511,2.034-7.093,1.181-10.913c-0.507-2.27-1.229-4.485-1.675-6.769
								c-0.45-2.303-0.699-4.65-1.049-6.97c-0.629-4.174-1.544-8.319-3.586-12.052c-1.915-3.5-4.757-6.448-8.564-7.817
								C94.497,43.281,94.195,44.416,94.901,44.677L94.901,44.677z"/>
						</g>
					</g>
					<g>
						<g>
							<path style="fill:#40ABA1;" d="M99.417,83.888c0.794,0.237,1.702,0.445,2.534,0.361c0.92-0.092,1.792-0.333,2.635-0.711
								c0.806-0.362,1.527-0.864,2.142-1.499c0.64-0.66,1.035-1.443,1.264-2.331c0.125-0.482-0.496-0.695-0.765-0.323
								c-0.432,0.597-0.98,1.133-1.514,1.637c-0.529,0.5-1.145,0.931-1.79,1.269c-0.636,0.333-1.326,0.556-2.033,0.675
								c-0.753,0.127-1.484,0.23-2.244,0.094C99.11,82.966,98.88,83.728,99.417,83.888L99.417,83.888z"/>
						</g>
					</g>
					<g>
						<g>
							<path style="fill:#40ABA1;" d="M81.007,85.011c1.966-0.217,3.993-1.145,5.058-2.873c0.232-0.376-0.288-0.752-0.598-0.461
								c-0.639,0.6-1.329,1.174-2.09,1.615c-0.768,0.445-1.609,0.73-2.487,0.859C80.407,84.223,80.516,85.066,81.007,85.011
								L81.007,85.011z"/>
						</g>
					</g>
					<g>
						<g>
							<path style="fill:#40ABA1;" d="M111.498,75.711c1.926,0.756,4.217,0.198,5.715-1.188c0.359-0.332,0.782-0.819,0.893-1.31
								c0.063-0.278-0.06-0.642-0.359-0.726c-0.368-0.103-0.63,0.177-0.833,0.434c-0.552,0.697-1.245,1.281-2.074,1.588
								c-0.992,0.367-2.021,0.399-3.017,0.027c-0.308-0.115-0.668,0.128-0.749,0.425C110.978,75.307,111.191,75.591,111.498,75.711
								L111.498,75.711z"/>
						</g>
					</g>
					<g>
						<g>
							<path style="fill:#40ABA1;" d="M103.505,37.1c0.832,7.937,3.575,15.618,8.23,22.126c2.148,3.002,4.665,6.159,8.078,7.772
								c1.662,0.786,3.465,1.148,5.293,1.255c1.934,0.113,4.322,0.161,6.184-0.418c0.596-0.185,0.428-0.961-0.139-1.028
								c-1.83-0.217-3.761,0.183-5.616,0.076c-1.982-0.114-3.947-0.559-5.667-1.58c-3.098-1.838-5.415-5.035-7.367-7.989
								c-4.054-6.134-6.741-13.093-7.742-20.383C104.661,36.226,103.43,36.385,103.505,37.1L103.505,37.1z"/>
						</g>
					</g>
					<g>
						<g>
							<path style="fill:#40ABA1;" d="M117.561,48.52c2.466-0.482,4.483-2.269,5.355-4.607c0.119-0.318-0.132-0.688-0.439-0.773
								c-0.35-0.096-0.656,0.119-0.773,0.439c-0.345,0.943-0.963,1.778-1.732,2.486c-0.746,0.687-1.682,1.194-2.69,1.445
								c-0.274,0.069-0.439,0.376-0.366,0.644C116.997,48.444,117.283,48.574,117.561,48.52L117.561,48.52z"/>
						</g>
					</g>
					<g>
						<g>
							<path style="fill:#40ABA1;" d="M119.222,82.556c0.787,1.445,1.747,2.795,2.848,4.018c0.527,0.585,1.08,1.165,1.703,1.649
								c0.675,0.525,1.367,1.056,2.218,1.234c0.328,0.069,0.668-0.283,0.462-0.601c-0.431-0.667-1.036-1.16-1.604-1.708
								c-0.556-0.536-1.129-1.05-1.656-1.616c-1.05-1.127-1.95-2.374-2.705-3.715C120.025,80.994,118.771,81.728,119.222,82.556
								L119.222,82.556z"/>
						</g>
					</g>
					<g>
						<g>
							<path style="fill:#40ABA1;" d="M108.147,89.085c5.843,1.191,11.145-2.929,12.609-8.48c0.775-2.938,0.717-5.99-0.05-8.921
								c-0.766-2.927-2.162-6.178-4.216-8.437c-0.431-0.474-1.164,0.131-0.867,0.669c1.346,2.437,2.944,4.563,3.838,7.247
								c0.866,2.6,1.202,5.507,0.585,8.202c-1.189,5.193-6.002,9.696-11.595,8.619C107.734,87.846,107.424,88.938,108.147,89.085
								L108.147,89.085z"/>
						</g>
					</g>
					<g>
						<path style="fill:#40ABA1;" d="M95.008,94.394c1.031-0.568,2.205-1.154,3.334-0.82c1.182,0.349,1.849,1.565,2.392,2.671
							c0.429,0.876,0.863,1.764,1.046,2.722c0.183,0.958,0.088,2.01-0.472,2.808c-0.87,1.241-2.587,1.545-4.1,1.445
							c-0.762-0.051-1.554-0.192-2.156-0.66c-0.755-0.587-1.066-1.56-1.477-2.423c-0.562-1.18-1.883-2.091-1.525-3.369
							C92.345,95.719,94.142,94.871,95.008,94.394z"/>
					</g>
					<g>
						<path style="fill:#40ABA1;" d="M107.832,38.425c0.985,2.814,2.742,5.351,5.024,7.256c0.621,0.518,1.331,1.009,2.137,1.047
							c1.031,0.048,1.933-0.645,2.731-1.303c1.012-0.833,2.092-1.778,2.318-3.073c0.028-0.158,0.041-0.322-0.001-0.476
							c-0.072-0.264-0.293-0.455-0.501-0.631c-2.845-2.415-4.876-6.452-7.794-8.541C107.914,29.96,106.882,35.711,107.832,38.425z"
							/>
					</g>
					<g>
						<g>
							<path style="fill:#40ABA1;" d="M108.462,36.184c0.649,1.976,1.76,3.881,3.587,4.968c0.278,0.165,0.676-0.182,0.469-0.469
								c-1.097-1.518-2.277-3.042-2.973-4.798c-0.112-0.282-0.375-0.479-0.691-0.392C108.572,35.571,108.367,35.895,108.462,36.184
								L108.462,36.184z"/>
						</g>
					</g>
					<g>
						<g>
							<path style="fill:#40ABA1;" d="M112.8,42.999c0.229,0.224,0.457,0.448,0.686,0.672c0.084,0.083,0.205,0.134,0.323,0.134
								c0.112,0,0.246-0.05,0.323-0.134c0.08-0.087,0.139-0.201,0.134-0.323c-0.006-0.122-0.047-0.234-0.134-0.323
								c-0.224-0.229-0.448-0.457-0.672-0.686c-0.083-0.085-0.211-0.137-0.33-0.137c-0.114,0-0.251,0.051-0.33,0.137
								c-0.082,0.089-0.142,0.205-0.137,0.33C112.669,42.792,112.71,42.91,112.8,42.999L112.8,42.999z"/>
						</g>
					</g>
					<g>
						<g>
							<path style="fill:#40ABA1;" d="M97.488,95.459c0.304,0.149,0.597,0.32,0.876,0.513c0.068,0.047,0.134,0.096,0.201,0.145
								c0.119,0.088-0.077-0.063,0.04,0.031c0.035,0.028,0.071,0.057,0.106,0.085c0.128,0.106,0.252,0.216,0.372,0.33
								c0.239,0.228,0.482,0.452,0.702,0.698c0.109,0.122,0.212,0.247,0.327,0.363c0.122,0.123,0.232,0.288,0.389,0.365
								c0.154,0.076,0.294-0.02,0.315-0.181c0.023-0.174-0.065-0.36-0.123-0.522c-0.064-0.18-0.149-0.343-0.247-0.507
								c-0.193-0.323-0.409-0.637-0.668-0.911c-0.505-0.533-1.099-0.991-1.741-1.346c-0.248-0.137-0.603-0.069-0.742,0.195
								C97.164,94.961,97.216,95.325,97.488,95.459L97.488,95.459z"/>
						</g>
					</g>
					<g>
						<g>
							<path style="fill:#40ABA1;" d="M100.335,99.135c0.076,0.247,0.151,0.494,0.227,0.74c0.037,0.121,0.07,0.244,0.119,0.361
								c0.051,0.122,0.103,0.244,0.154,0.367c0.037,0.089,0.075,0.16,0.162,0.21c0.076,0.044,0.187,0.063,0.271,0.035
								c0.198-0.064,0.278-0.238,0.246-0.433c-0.02-0.126-0.041-0.251-0.061-0.377c-0.021-0.13-0.058-0.256-0.092-0.383
								c-0.067-0.249-0.133-0.498-0.2-0.748c-0.058-0.216-0.308-0.37-0.527-0.299C100.418,98.678,100.265,98.906,100.335,99.135
								L100.335,99.135z"/>
						</g>
					</g>
					<g>
						<g>
							<path style="fill:#40ABA1;" d="M92.861,95.074c0.572-0.394,1.153-0.774,1.743-1.138c0.294-0.181,0.581-0.357,0.856-0.565
								c0.141-0.107,0.283-0.213,0.426-0.318c0.075-0.055,0.165-0.108,0.231-0.174c0.059-0.059,0.102-0.143,0.148-0.213
								c0.109-0.165-0.035-0.388-0.222-0.387c-0.19,0.001-0.332,0.037-0.508,0.107c-0.16,0.063-0.32,0.127-0.479,0.193
								c-0.337,0.138-0.645,0.307-0.958,0.491c-0.598,0.352-1.186,0.719-1.765,1.101c-0.236,0.155-0.336,0.463-0.188,0.716
								C92.28,95.116,92.627,95.234,92.861,95.074L92.861,95.074z"/>
						</g>
					</g>
					<g>
						<g>
							<path style="fill:#40ABA1;" d="M77.245,83.098c-0.593,1.866-1.676,3.54-3.097,4.883c-0.71,0.672-1.495,1.212-2.326,1.721
								c-0.846,0.519-1.764,0.893-2.636,1.361c-0.308,0.165-0.167,0.664,0.178,0.656c2.145-0.047,4.198-1.39,5.721-2.801
								c1.606-1.488,2.816-3.372,3.5-5.45C78.865,82.618,77.516,82.247,77.245,83.098L77.245,83.098z"/>
						</g>
					</g>
				</g>
				<g>
					<path style="fill:#40ABA1;" d="M67.652,278.039c0,0-0.95,21.966,3.1,66.465c1.838,20.189-14.529,127.784-13.651,168.863
						l101.93-2.549c0,0-21.347-124.891-20.965-170.04c0.382-45.149-0.463-30.102-2.216-80.595L67.652,278.039z"/>
				</g>
				<g>
					<path style="fill:#40ABA1;" d="M154.619,482.375c-6.869,5.524-15.958,7.318-24.709,8.371
						c-24.215,2.914-49.814,1.389-73.529-4.31c-0.608-34.767,3.311-77.128,11.39-108.358c3.525,3.424,5.428,3.765,10.225,4.833
						c21.045,4.684,43.277,3.925,63.954-2.182c4.127,26.674,9.089,69.235,13.216,95.909
						C155.518,478.906,156.408,480.936,154.619,482.375z"/>
				</g>
				<g style="opacity:0.17;">
					<path style="fill:#40ABA1;" d="M142.634,385.235c-0.23-1.543-0.457-3.052-0.682-4.506c-6.255,1.847-38.109,5.503-51.022,7.51
						c-0.024,0.004-0.041,0.01-0.065,0.014c0.209-1.039,0.411-2.092,0.627-3.114c-4.533-0.505-9.041-1.237-13.494-2.228
						c-4.798-1.068-6.7-1.409-10.225-4.833c-8.08,31.23-11.999,73.591-11.391,108.359c8.294,1.993,16.82,3.463,25.435,4.424
						c-0.308-32.018,2.624-69.483,8.566-100.211C118.22,395.581,136.696,388.423,142.634,385.235z"/>
				</g>
				<g>
					<g>
						<path style="fill:#40ABA1;" d="M66.817,380.071c1.978,1.351,4.021,2.636,6.118,3.793c2.232,1.232,4.718,2.135,7.119,2.982
							c4.748,1.673,9.72,2.559,14.716,3.095c10.296,1.106,20.835-0.086,30.893-2.399c2.848-0.655,5.674-1.4,8.474-2.237
							c1.4-0.419,2.794-0.859,4.181-1.32c1.541-0.511,3.264-0.93,4.611-1.847c0.943-0.642,1.595-1.831,1.219-2.995
							c-0.337-1.042-1.375-2.056-2.558-1.947c-0.809,0.074-1.552,0.196-2.319,0.461c-0.634,0.22-1.27,0.435-1.906,0.646
							c-1.199,0.398-2.404,0.782-3.613,1.15c-2.456,0.747-4.932,1.429-7.427,2.033c-2.492,0.603-5.007,1.116-7.535,1.544
							c-0.583,0.099-1.167,0.193-1.751,0.282c-0.312,0.047-0.624,0.094-0.936,0.138c-0.156,0.022-0.312,0.044-0.468,0.066
							c-0.794,0.112,0.636-0.079-0.159,0.021c-1.25,0.156-2.5,0.298-3.755,0.411c-4.896,0.439-9.865,0.403-14.764,0.017
							c-1.167-0.092-2.332-0.21-3.494-0.355c-0.138-0.017-0.298-0.024-0.435-0.056c0.724,0.164,0.355,0.049,0.169,0.022
							c-0.29-0.042-0.579-0.083-0.869-0.126c-0.615-0.093-1.228-0.194-1.84-0.302c-2.338-0.415-4.643-0.975-6.947-1.546
							c-2.54-0.63-5.044-1.408-7.488-2.343c-1.245-0.476-2.513-0.887-3.754-1.376c-0.3-0.118-0.603-0.234-0.898-0.363
							c0.092,0.04,0.381,0.172-0.036-0.027c-0.165-0.079-0.332-0.153-0.497-0.231c-0.629-0.296-1.251-0.603-1.869-0.92
							c-1.005-0.515-2.39-0.295-2.956,0.775C65.463,378.212,65.819,379.389,66.817,380.071L66.817,380.071z"/>
					</g>
				</g>
				<g>
					<g>
						<path style="fill:#40ABA1;" d="M55.024,488.575c1.719,0.814,3.484,1.617,5.287,2.227c1.66,0.562,3.417,0.931,5.129,1.299
							c3.563,0.765,7.174,1.269,10.795,1.668c3.484,0.383,6.979,0.661,10.471,0.948c3.712,0.305,7.421,0.653,11.135,0.94
							c7.484,0.579,15.031,0.974,22.534,0.539c6.373-0.37,12.82-1.13,18.989-2.822c3.31-0.908,6.608-2.089,9.685-3.616
							c1.473-0.731,2.903-1.562,4.297-2.435c1.666-1.044,3.412-2.116,4.777-3.538c0.958-0.997,1.061-2.532,0.216-3.626
							c-0.89-1.152-2.292-1.298-3.563-0.711c-1.456,0.672-2.766,1.608-4.158,2.404c-1.268,0.725-2.562,1.402-3.883,2.026
							c-0.614,0.29-1.23,0.575-1.847,0.859c-0.32,0.147-0.641,0.291-0.963,0.432c-0.075,0.033-0.669,0.274-0.15,0.067
							c0.531-0.212-0.235,0.096-0.328,0.134c-1.29,0.525-2.601,0.999-3.927,1.424c-2.754,0.883-5.573,1.55-8.419,2.059
							c-0.654,0.117-1.311,0.226-1.968,0.328c-0.4,0.062-0.8,0.121-1.201,0.178c-0.057,0.008-0.336,0.015-0.404,0.056
							c0.48-0.064,0.549-0.073,0.208-0.028c-0.136,0.018-0.273,0.036-0.409,0.053c-1.572,0.2-3.149,0.367-4.728,0.505
							c-14.511,1.267-29.157,0.057-43.599-1.491c-0.922-0.099-1.844-0.203-2.765-0.315c-0.537-0.065-1.074-0.134-1.61-0.203
							c-0.131-0.017-0.557-0.064,0.063,0.009c-0.306-0.036-0.611-0.085-0.916-0.129c-1.905-0.274-3.807-0.577-5.697-0.944
							c-1.883-0.366-3.754-0.796-5.602-1.311c-1.847-0.514-3.719-0.907-5.552-1.483c-1.172-0.368-2.445,0.34-2.903,1.425
							C53.577,486.546,53.914,488.05,55.024,488.575L55.024,488.575z"/>
					</g>
				</g>
			</g>
			<g>
				<g>
					<path style="fill:#40ABA1;" d="M112.562,390.478l-0.266-3.24c-3.59-43.788-5.118-82.828,12.645-117.166
						c10.197-19.712,26.068-35.686,41.418-51.134c5.76-5.797,11.716-11.792,17.258-17.874c22.27-24.446,30.5-45.182,32.447-61.153
						c-4.843-0.524-9.69-1.537-14.188-3.653c-7.712-3.627-13.091-10.322-14.038-17.473c-0.576-4.352,0.764-9.081,3.582-12.651
						c2.478-3.138,5.837-5.072,9.458-5.445c5.137-0.529,9.867,1.724,13.678,6.515c3.015,3.79,5.254,9.03,6.144,14.376
						c0.747,4.49,1.006,9.076,0.785,13.74c0.643,0.034,1.284,0.063,1.922,0.088c13.692,0.548,27.758-0.228,41.358-0.979
						c1.903-0.105,3.799-0.21,5.686-0.311l0.266,4.993c-1.883,0.1-3.775,0.204-5.676,0.31c-13.718,0.757-27.902,1.54-41.834,0.983
						c-0.709-0.028-1.422-0.061-2.138-0.1c-2.434,20.465-13.871,42.298-33.756,64.126c-5.615,6.163-11.61,12.197-17.407,18.032
						c-15.083,15.18-30.68,30.878-40.523,49.907c-16.481,31.861-15.72,68.465-12.506,109.433l0.2-0.233
						c1.188,1.018,1.738,2.67,1.434,4.31c-0.305,1.642-1.41,2.987-2.885,3.511L112.562,390.478z M113.951,384.678
						c-0.244,0.087-0.351,0.252-0.358,0.289c-0.007,0.037,0.034,0.23,0.23,0.399l0.263-0.308L113.951,384.678z M202.155,105.623
						c-0.257,0-0.512,0.013-0.764,0.039c-2.266,0.233-4.413,1.501-6.047,3.57c-1.999,2.531-2.952,5.857-2.549,8.896
						c0.725,5.481,5.02,10.694,11.209,13.605c3.861,1.816,8.143,2.714,12.479,3.192c0.214-4.661-0.103-8.848-0.715-12.526
						C213.921,111.296,207.537,105.623,202.155,105.623z"/>
				</g>
				<g>
					<path style="fill:#40ABA1;" d="M296.708,152.337l-20.125-3.37c-5.465-0.915-9.469-5.645-9.469-11.186v-5.083
						c0-5.383,3.784-10.024,9.056-11.109l20.538-4.226V152.337z"/>
				</g>
				<g>
					<path style="fill:#40ABA1;" d="M287.319,125.91c-0.374,2.61-0.755,5.248-1.729,7.698c-0.973,2.45-2.61,4.732-4.942,5.962
						c-2.34,1.234-5.184,1.29-7.721,0.54c-1.764-0.521-3.948-2.546-5.812-2.924v0.595c0,5.541,4.004,10.271,9.469,11.186
						l14.238,2.384C289.893,142.84,288.735,134.354,287.319,125.91z"/>
				</g>
				<g>
					<g>
						<path style="fill:#40ABA1;" d="M380.991,203.121h-49.247c-23.907,0-43.634-18.71-44.898-42.583l-3.428-64.749
							c-1.129-21.329,15.861-39.243,37.22-39.243h70.415c21.123,0,38.025,17.536,37.247,38.645l-2.38,64.625
							C425.031,183.986,405.178,203.121,380.991,203.121z"/>
					</g>
					<g style="opacity:0.2;">
						<path style="fill:#40ABA1;" d="M391.054,56.545h-7.652c10.006,2.416,20.194,6.65,26.826,14.059
							c13.426,15.001,20.796,96.46-16.408,98.551c-37.205,2.09-64.24-3.351-77.199,5.01c-7.445,4.803-9.516,14.191-9.934,21.315
							c7.175,4.825,15.799,7.64,25.057,7.64h49.247c24.187,0,44.04-19.135,44.93-43.306l2.38-64.625
							C429.079,74.081,412.177,56.545,391.054,56.545z"/>
					</g>
					<g>
						<path style="fill:#40ABA1;" d="M390.787,165.969h-69.881c-9.935,0-17.988-8.054-17.988-17.988V89.479
							c0-9.935,8.054-17.988,17.988-17.988h69.881c9.935,0,17.988,8.054,17.988,17.988v58.502
							C408.775,157.916,400.722,165.969,390.787,165.969z"/>
					</g>
					<g>
						<g>
							<defs>
								<path id="SVGID_00000026155897318318363180000000191214227310972058_" d="M386.398,160.035h-61.103
									c-8.687,0-15.729-7.042-15.729-15.729V93.153c0-8.687,7.042-15.729,15.729-15.729h61.103
									c8.687,0,15.729,7.042,15.729,15.729v51.154C402.127,152.993,395.085,160.035,386.398,160.035z"/>
							</defs>
							<use xlink:href="#SVGID_00000026155897318318363180000000191214227310972058_"  style="overflow:visible;fill:#40ABA1;"/>
							<clipPath id="SVGID_00000036945107637715607040000004057027660148932494_">
								<use xlink:href="#SVGID_00000026155897318318363180000000191214227310972058_"  style="overflow:visible;"/>
							</clipPath>
							
								<rect x="309.566" y="157.484" style="clip-path:url(#SVGID_00000036945107637715607040000004057027660148932494_);fill:#40ABA1;" width="92.56" height="2.551"/>
							
								<rect x="309.566" y="156.024" style="clip-path:url(#SVGID_00000036945107637715607040000004057027660148932494_);fill:#40ABA1;" width="92.56" height="1.46"/>
							
								<rect x="309.566" y="154.564" style="clip-path:url(#SVGID_00000036945107637715607040000004057027660148932494_);fill:#40ABA1;" width="92.56" height="1.46"/>
							
								<rect x="309.566" y="153.105" style="clip-path:url(#SVGID_00000036945107637715607040000004057027660148932494_);fill:#40ABA1;" width="92.56" height="1.46"/>
							
								<rect x="309.566" y="151.645" style="clip-path:url(#SVGID_00000036945107637715607040000004057027660148932494_);fill:#40ABA1;" width="92.56" height="1.46"/>
							
								<rect x="309.566" y="150.185" style="clip-path:url(#SVGID_00000036945107637715607040000004057027660148932494_);fill:#40ABA1;" width="92.56" height="1.46"/>
							
								<rect x="309.566" y="148.725" style="clip-path:url(#SVGID_00000036945107637715607040000004057027660148932494_);fill:#40ABA1;" width="92.56" height="1.46"/>
							
								<rect x="309.566" y="147.265" style="clip-path:url(#SVGID_00000036945107637715607040000004057027660148932494_);fill:#40ABA1;" width="92.56" height="1.46"/>
							
								<rect x="309.566" y="145.805" style="clip-path:url(#SVGID_00000036945107637715607040000004057027660148932494_);fill:#40ABA1;" width="92.56" height="1.46"/>
							
								<rect x="309.566" y="144.345" style="clip-path:url(#SVGID_00000036945107637715607040000004057027660148932494_);fill:#40ABA1;" width="92.56" height="1.46"/>
							
								<rect x="309.566" y="142.886" style="clip-path:url(#SVGID_00000036945107637715607040000004057027660148932494_);fill:#40ABA1;" width="92.56" height="1.46"/>
							
								<rect x="309.566" y="141.426" style="clip-path:url(#SVGID_00000036945107637715607040000004057027660148932494_);fill:#40ABA1;" width="92.56" height="1.46"/>
							
								<rect x="309.566" y="139.966" style="clip-path:url(#SVGID_00000036945107637715607040000004057027660148932494_);fill:#40ABA1;" width="92.56" height="1.46"/>
							
								<rect x="309.566" y="138.506" style="clip-path:url(#SVGID_00000036945107637715607040000004057027660148932494_);fill:#40ABA1;" width="92.56" height="1.46"/>
							
								<rect x="309.566" y="137.046" style="clip-path:url(#SVGID_00000036945107637715607040000004057027660148932494_);fill:#40ABA1;" width="92.56" height="1.46"/>
							
								<rect x="309.566" y="135.586" style="clip-path:url(#SVGID_00000036945107637715607040000004057027660148932494_);fill:#40ABA1;" width="92.56" height="1.46"/>
							
								<rect x="309.566" y="134.127" style="clip-path:url(#SVGID_00000036945107637715607040000004057027660148932494_);fill:#40ABA1;" width="92.56" height="1.46"/>
							
								<rect x="309.566" y="132.667" style="clip-path:url(#SVGID_00000036945107637715607040000004057027660148932494_);fill:#40ABA1;" width="92.56" height="1.46"/>
							
								<rect x="309.566" y="131.207" style="clip-path:url(#SVGID_00000036945107637715607040000004057027660148932494_);fill:#40ABA1;" width="92.56" height="1.46"/>
							
								<rect x="309.566" y="129.747" style="clip-path:url(#SVGID_00000036945107637715607040000004057027660148932494_);fill:#40ABA1;" width="92.56" height="1.46"/>
							
								<rect x="309.566" y="128.287" style="clip-path:url(#SVGID_00000036945107637715607040000004057027660148932494_);fill:#40ABA1;" width="92.56" height="1.46"/>
							
								<rect x="309.566" y="126.827" style="clip-path:url(#SVGID_00000036945107637715607040000004057027660148932494_);fill:#40ABA1;" width="92.56" height="1.46"/>
							
								<rect x="309.566" y="125.368" style="clip-path:url(#SVGID_00000036945107637715607040000004057027660148932494_);fill:#40ABA1;" width="92.56" height="1.46"/>
							
								<rect x="309.566" y="123.908" style="clip-path:url(#SVGID_00000036945107637715607040000004057027660148932494_);fill:#40ABA1;" width="92.56" height="1.46"/>
							
								<rect x="309.566" y="122.448" style="clip-path:url(#SVGID_00000036945107637715607040000004057027660148932494_);fill:#40ABA1;" width="92.56" height="1.46"/>
							
								<rect x="309.566" y="120.988" style="clip-path:url(#SVGID_00000036945107637715607040000004057027660148932494_);fill:#40ABA1;" width="92.56" height="1.46"/>
							
								<rect x="309.566" y="119.528" style="clip-path:url(#SVGID_00000036945107637715607040000004057027660148932494_);fill:#40ABA1;" width="92.56" height="1.46"/>
							
								<rect x="309.566" y="118.068" style="clip-path:url(#SVGID_00000036945107637715607040000004057027660148932494_);fill:#40ABA1;" width="92.56" height="1.46"/>
							
								<rect x="309.566" y="116.608" style="clip-path:url(#SVGID_00000036945107637715607040000004057027660148932494_);fill:#40ABA1;" width="92.56" height="1.46"/>
							
								<rect x="309.566" y="115.149" style="clip-path:url(#SVGID_00000036945107637715607040000004057027660148932494_);fill:#40ABA1;" width="92.56" height="1.46"/>
							
								<rect x="309.566" y="113.689" style="clip-path:url(#SVGID_00000036945107637715607040000004057027660148932494_);fill:#40ABA1;" width="92.56" height="1.46"/>
							
								<rect x="309.566" y="112.229" style="clip-path:url(#SVGID_00000036945107637715607040000004057027660148932494_);fill:#40ABA1;" width="92.56" height="1.46"/>
							
								<rect x="309.566" y="110.769" style="clip-path:url(#SVGID_00000036945107637715607040000004057027660148932494_);fill:#40ABA1;" width="92.56" height="1.46"/>
							
								<rect x="309.566" y="109.309" style="clip-path:url(#SVGID_00000036945107637715607040000004057027660148932494_);fill:#40ABA1;" width="92.56" height="1.46"/>
							
								<rect x="309.566" y="107.85" style="clip-path:url(#SVGID_00000036945107637715607040000004057027660148932494_);fill:#40ABA1;" width="92.56" height="1.46"/>
							
								<rect x="309.566" y="106.39" style="clip-path:url(#SVGID_00000036945107637715607040000004057027660148932494_);fill:#40ABA1;" width="92.56" height="1.46"/>
							
								<rect x="309.566" y="104.93" style="clip-path:url(#SVGID_00000036945107637715607040000004057027660148932494_);fill:#40ABA1;" width="92.56" height="1.46"/>
							
								<rect x="309.566" y="103.47" style="clip-path:url(#SVGID_00000036945107637715607040000004057027660148932494_);fill:#40ABA1;" width="92.56" height="1.46"/>
							
								<rect x="309.566" y="102.01" style="clip-path:url(#SVGID_00000036945107637715607040000004057027660148932494_);fill:#40ABA1;" width="92.56" height="1.46"/>
							
								<rect x="309.566" y="100.55" style="clip-path:url(#SVGID_00000036945107637715607040000004057027660148932494_);fill:#40ABA1;" width="92.56" height="1.46"/>
							
								<rect x="309.566" y="99.09" style="clip-path:url(#SVGID_00000036945107637715607040000004057027660148932494_);fill:#40ABA1;" width="92.56" height="1.46"/>
							
								<rect x="309.566" y="97.631" style="clip-path:url(#SVGID_00000036945107637715607040000004057027660148932494_);fill:#40ABA1;" width="92.56" height="1.46"/>
							
								<rect x="309.566" y="96.171" style="clip-path:url(#SVGID_00000036945107637715607040000004057027660148932494_);fill:#40ABA1;" width="92.56" height="1.46"/>
							
								<rect x="309.566" y="94.711" style="clip-path:url(#SVGID_00000036945107637715607040000004057027660148932494_);fill:#40ABA1;" width="92.56" height="1.46"/>
							
								<rect x="309.566" y="93.251" style="clip-path:url(#SVGID_00000036945107637715607040000004057027660148932494_);fill:#40ABA1;" width="92.56" height="1.46"/>
							
								<rect x="309.566" y="91.791" style="clip-path:url(#SVGID_00000036945107637715607040000004057027660148932494_);fill:#40ABA1;" width="92.56" height="1.46"/>
							
								<rect x="309.566" y="90.331" style="clip-path:url(#SVGID_00000036945107637715607040000004057027660148932494_);fill:#40ABA1;" width="92.56" height="1.46"/>
							
								<rect x="309.566" y="88.872" style="clip-path:url(#SVGID_00000036945107637715607040000004057027660148932494_);fill:#40ABA1;" width="92.56" height="1.46"/>
							
								<rect x="309.566" y="87.412" style="clip-path:url(#SVGID_00000036945107637715607040000004057027660148932494_);fill:#40ABA1;" width="92.56" height="1.46"/>
							
								<rect x="309.566" y="85.952" style="clip-path:url(#SVGID_00000036945107637715607040000004057027660148932494_);fill:#40ABA1;" width="92.56" height="1.46"/>
							
								<rect x="309.566" y="84.492" style="clip-path:url(#SVGID_00000036945107637715607040000004057027660148932494_);fill:#40ABA1;" width="92.56" height="1.46"/>
							
								<rect x="309.566" y="83.032" style="clip-path:url(#SVGID_00000036945107637715607040000004057027660148932494_);fill:#40ABA1;" width="92.56" height="1.46"/>
							
								<rect x="309.566" y="81.572" style="clip-path:url(#SVGID_00000036945107637715607040000004057027660148932494_);fill:#40ABA1;" width="92.56" height="1.46"/>
							
								<rect x="309.566" y="80.113" style="clip-path:url(#SVGID_00000036945107637715607040000004057027660148932494_);fill:#40ABA1;" width="92.56" height="1.46"/>
							
								<rect x="309.566" y="78.653" style="clip-path:url(#SVGID_00000036945107637715607040000004057027660148932494_);fill:#40ABA1;" width="92.56" height="1.46"/>
							
								<rect x="309.566" y="77.424" style="clip-path:url(#SVGID_00000036945107637715607040000004057027660148932494_);fill:#40ABA1;" width="92.56" height="1.228"/>
						</g>
					</g>
					<g>
						<path style="fill:#40ABA1;" d="M304.642,149.706V91.203c0-9.935,8.054-17.988,17.988-17.988h69.881
							c4.528,0,8.654,1.686,11.816,4.448c-3.297-3.776-8.134-6.173-13.541-6.173h-69.881c-9.935,0-17.988,8.054-17.988,17.988
							v58.502c0,5.407,2.397,10.244,6.173,13.541C306.328,158.36,304.642,154.234,304.642,149.706z"/>
					</g>
					<g style="opacity:0.32;">
						<g>
							<path style="fill:#40ABA1;" d="M355.264,191.653h-24.35c-4.824,0-8.734-3.91-8.734-8.734l0,0c0-4.824,3.91-8.734,8.734-8.734
								h24.35c4.824,0,8.734,3.91,8.734,8.734l0,0C363.998,187.742,360.087,191.653,355.264,191.653z"/>
						</g>
						<g>
							
								<ellipse transform="matrix(0.1559 -0.9878 0.9878 0.1559 138.8275 528.2975)" style="fill:#40ABA1;" cx="378.529" cy="182.919" rx="9.169" ry="9.169"/>
						</g>
					</g>
					<g>
						<g>
							<path style="fill:#40ABA1;" d="M323.314,60.545c-10.276-0.373-20.278,3.747-26.833,11.823
								c-5.987,7.377-10.21,19.323-8.004,28.803c0.497,2.137,3.565,1.96,4.153,0c2.482-8.267,2.233-16.735,7.488-24.098
								c5.361-7.511,14.329-10.874,23.196-11.973C326.151,64.749,326.326,60.654,323.314,60.545L323.314,60.545z"/>
						</g>
					</g>
					<g>
						<g>
							<path style="fill:#40ABA1;" d="M289.313,108.475c0.063,2.458-0.197,5.209,0.639,7.557c0.76,2.136,3.498,1.61,3.772-0.51
								c-0.47,0.617-0.94,1.234-1.41,1.852c0.9-0.128,1.311-1.083,1.41-1.852c0.316-2.452-0.541-5.108-0.994-7.509
								C292.363,106.075,289.263,106.536,289.313,108.475L289.313,108.475z"/>
						</g>
					</g>
					<g>
						<g>
							<path style="fill:#40ABA1;" d="M356.171,192.379h-24.35c-4.824,0-8.734-3.91-8.734-8.734l0,0c0-4.824,3.91-8.734,8.734-8.734
								h24.35c4.824,0,8.734,3.91,8.734,8.734l0,0C364.905,188.468,360.995,192.379,356.171,192.379z"/>
						</g>
						<g>
							
								<ellipse transform="matrix(0.2289 -0.9735 0.9735 0.2289 113.83 510.9829)" style="fill:#40ABA1;" cx="379.436" cy="183.645" rx="9.169" ry="9.169"/>
						</g>
					</g>
					<g>
						<g>
							<g>
								<g>
									<path style="fill:#40ABA1;" d="M342.909,94.937c0,0.923-0.802,1.671-1.729,1.671c-0.927,0-1.729-0.748-1.729-1.671v-7.454
										c0-0.923,0.802-1.671,1.729-1.671c0.927,0,1.729,0.748,1.729,1.671V94.937z"/>
								</g>
								<g>
									<path style="fill:#40ABA1;" d="M342.909,109.588c0,0.923-0.802,1.671-1.729,1.671c-0.927,0-1.729-0.748-1.729-1.671v-7.454
										c0-0.923,0.802-1.671,1.729-1.671c0.927,0,1.729,0.748,1.729,1.671V109.588z"/>
								</g>
							</g>
							<g>
								<g>
									<path style="fill:#40ABA1;" d="M331.727,94.937c0,0.923-0.744,1.671-1.671,1.671s-1.672-0.748-1.672-1.671v-7.454
										c0-0.923,0.745-1.671,1.672-1.671s1.671,0.748,1.671,1.671V94.937z"/>
								</g>
								<g>
									<path style="fill:#40ABA1;" d="M331.727,109.588c0,0.923-0.744,1.671-1.671,1.671s-1.672-0.748-1.672-1.671v-7.454
										c0-0.923,0.745-1.671,1.672-1.671s1.671,0.748,1.671,1.671V109.588z"/>
								</g>
							</g>
							<g>
								<path style="fill:#40ABA1;" d="M339.735,98.489c0,0.923-0.751,1.729-1.678,1.729h-4.906c-0.927,0-1.678-0.806-1.678-1.729
									s0.751-1.729,1.678-1.729h4.906C338.983,96.759,339.735,97.566,339.735,98.489z"/>
							</g>
							<g>
								<path style="fill:#40ABA1;" d="M339.735,83.906c0,0.923-0.751,1.672-1.678,1.672h-4.906c-0.927,0-1.678-0.749-1.678-1.672
									c0-0.923,0.751-1.671,1.678-1.671h4.906C338.983,82.235,339.735,82.983,339.735,83.906z"/>
							</g>
							<g>
								<path style="fill:#40ABA1;" d="M339.735,112.956c0,0.923-0.751,1.672-1.678,1.672h-4.906c-0.927,0-1.678-0.749-1.678-1.672
									c0-0.923,0.751-1.672,1.678-1.672h4.906C338.983,111.284,339.735,112.033,339.735,112.956z"/>
							</g>
						</g>
						<g>
							<g>
								<g>
									<path style="fill:#40ABA1;" d="M360.661,94.937c0,0.923-0.744,1.671-1.671,1.671s-1.672-0.748-1.672-1.671v-7.454
										c0-0.923,0.745-1.671,1.672-1.671s1.671,0.748,1.671,1.671V94.937z"/>
								</g>
								<g>
									<path style="fill:#40ABA1;" d="M360.661,109.588c0,0.923-0.744,1.671-1.671,1.671s-1.672-0.748-1.672-1.671v-7.454
										c0-0.923,0.745-1.671,1.672-1.671s1.671,0.748,1.671,1.671V109.588z"/>
								</g>
							</g>
							<g>
								<g>
									<path style="fill:#40ABA1;" d="M350.056,94.937c0,0.923-0.745,1.671-1.672,1.671s-1.671-0.748-1.671-1.671v-7.454
										c0-0.923,0.744-1.671,1.671-1.671s1.672,0.748,1.672,1.671V94.937z"/>
								</g>
								<g>
									<path style="fill:#40ABA1;" d="M350.056,109.588c0,0.923-0.745,1.671-1.672,1.671s-1.671-0.748-1.671-1.671v-7.454
										c0-0.923,0.744-1.671,1.671-1.671s1.672,0.748,1.672,1.671V109.588z"/>
								</g>
							</g>
							<g>
								<path style="fill:#40ABA1;" d="M357.811,98.489c0,0.923-0.751,1.729-1.678,1.729h-4.906c-0.927,0-1.679-0.806-1.679-1.729
									s0.752-1.729,1.679-1.729h4.906C357.059,96.759,357.811,97.566,357.811,98.489z"/>
							</g>
							<g>
								<path style="fill:#40ABA1;" d="M357.811,83.906c0,0.923-0.751,1.672-1.678,1.672h-4.906c-0.927,0-1.679-0.749-1.679-1.672
									c0-0.923,0.752-1.671,1.679-1.671h4.906C357.059,82.235,357.811,82.983,357.811,83.906z"/>
							</g>
							<g>
								<path style="fill:#40ABA1;" d="M357.811,112.956c0,0.923-0.751,1.672-1.678,1.672h-4.906c-0.927,0-1.679-0.749-1.679-1.672
									c0-0.923,0.752-1.672,1.679-1.672h4.906C357.059,111.284,357.811,112.033,357.811,112.956z"/>
							</g>
						</g>
						<g>
							<g>
								<g>
									<path style="fill:#40ABA1;" d="M378.99,94.937c0,0.923-0.745,1.671-1.672,1.671c-0.927,0-1.672-0.748-1.672-1.671v-7.454
										c0-0.923,0.745-1.671,1.672-1.671c0.927,0,1.672,0.748,1.672,1.671V94.937z"/>
								</g>
								<g>
									<path style="fill:#40ABA1;" d="M378.99,109.588c0,0.923-0.745,1.671-1.672,1.671c-0.927,0-1.672-0.748-1.672-1.671v-7.454
										c0-0.923,0.745-1.671,1.672-1.671c0.927,0,1.672,0.748,1.672,1.671V109.588z"/>
								</g>
							</g>
							<g>
								<g>
									<path style="fill:#40ABA1;" d="M368.154,94.937c0,0.923-0.745,1.671-1.672,1.671s-1.671-0.748-1.671-1.671v-7.454
										c0-0.923,0.744-1.671,1.671-1.671s1.672,0.748,1.672,1.671V94.937z"/>
								</g>
								<g>
									<path style="fill:#40ABA1;" d="M368.154,109.588c0,0.923-0.745,1.671-1.672,1.671s-1.671-0.748-1.671-1.671v-7.454
										c0-0.923,0.744-1.671,1.671-1.671s1.672,0.748,1.672,1.671V109.588z"/>
								</g>
							</g>
							<g>
								<path style="fill:#40ABA1;" d="M376.145,98.489c0,0.923-0.752,1.729-1.678,1.729h-4.906c-0.927,0-1.678-0.806-1.678-1.729
									s0.751-1.729,1.678-1.729h4.906C375.394,96.759,376.145,97.566,376.145,98.489z"/>
							</g>
							<g>
								<path style="fill:#40ABA1;" d="M376.145,83.906c0,0.923-0.752,1.672-1.678,1.672h-4.906c-0.927,0-1.678-0.749-1.678-1.672
									c0-0.923,0.751-1.671,1.678-1.671h4.906C375.394,82.235,376.145,82.983,376.145,83.906z"/>
							</g>
							<g>
								<path style="fill:#40ABA1;" d="M376.145,112.956c0,0.923-0.752,1.672-1.678,1.672h-4.906c-0.927,0-1.678-0.749-1.678-1.672
									c0-0.923,0.751-1.672,1.678-1.672h4.906C375.394,111.284,376.145,112.033,376.145,112.956z"/>
							</g>
						</g>
					</g>
					<g>
						<g>
							<g>
								<g>
									<path style="fill:#40ABA1;" d="M367.073,124.614c0,0.5-0.403,0.905-0.905,0.905c-0.502,0-0.905-0.405-0.905-0.905v-4.035
										c0-0.499,0.403-0.904,0.905-0.904c0.502,0,0.905,0.405,0.905,0.904V124.614z"/>
								</g>
								<g>
									<path style="fill:#40ABA1;" d="M367.073,132.546c0,0.5-0.403,0.904-0.905,0.904c-0.502,0-0.905-0.405-0.905-0.904v-4.035
										c0-0.499,0.403-0.904,0.905-0.904c0.502,0,0.905,0.405,0.905,0.904V132.546z"/>
								</g>
							</g>
							<g>
								<g>
									<path style="fill:#40ABA1;" d="M361.331,124.614c0,0.5-0.403,0.905-0.905,0.905c-0.502,0-0.905-0.405-0.905-0.905v-4.035
										c0-0.499,0.403-0.904,0.905-0.904c0.502,0,0.905,0.405,0.905,0.904V124.614z"/>
								</g>
								<g>
									<path style="fill:#40ABA1;" d="M361.331,132.546c0,0.5-0.403,0.904-0.905,0.904c-0.502,0-0.905-0.405-0.905-0.904v-4.035
										c0-0.499,0.403-0.904,0.905-0.904c0.502,0,0.905,0.405,0.905,0.904V132.546z"/>
								</g>
							</g>
							<g>
								<path style="fill:#40ABA1;" d="M365.529,126.537c0,0.5-0.407,0.936-0.909,0.936h-2.656c-0.502,0-0.909-0.437-0.909-0.936
									c0-0.5,0.407-0.936,0.909-0.936h2.656C365.123,125.601,365.529,126.037,365.529,126.537z"/>
							</g>
							<g>
								<path style="fill:#40ABA1;" d="M365.529,118.642c0,0.5-0.407,0.905-0.909,0.905h-2.656c-0.502,0-0.909-0.405-0.909-0.905
									c0-0.499,0.407-0.905,0.909-0.905h2.656C365.123,117.737,365.529,118.143,365.529,118.642z"/>
							</g>
							<g>
								<path style="fill:#40ABA1;" d="M365.529,134.369c0,0.499-0.407,0.905-0.909,0.905h-2.656c-0.502,0-0.909-0.405-0.909-0.905
									s0.407-0.905,0.909-0.905h2.656C365.123,133.464,365.529,133.869,365.529,134.369z"/>
							</g>
						</g>
						<g>
							<g>
								<g>
									<path style="fill:#40ABA1;" d="M376.995,124.614c0,0.5-0.403,0.905-0.905,0.905c-0.502,0-0.905-0.405-0.905-0.905v-4.035
										c0-0.499,0.403-0.904,0.905-0.904c0.502,0,0.905,0.405,0.905,0.904V124.614z"/>
								</g>
								<g>
									<path style="fill:#40ABA1;" d="M376.995,132.546c0,0.5-0.403,0.904-0.905,0.904c-0.502,0-0.905-0.405-0.905-0.904v-4.035
										c0-0.499,0.403-0.904,0.905-0.904c0.502,0,0.905,0.405,0.905,0.904V132.546z"/>
								</g>
							</g>
							<g>
								<g>
									<path style="fill:#40ABA1;" d="M371.129,124.614c0,0.5-0.403,0.905-0.905,0.905c-0.502,0-0.905-0.405-0.905-0.905v-4.035
										c0-0.499,0.403-0.904,0.905-0.904c0.502,0,0.905,0.405,0.905,0.904V124.614z"/>
								</g>
								<g>
									<path style="fill:#40ABA1;" d="M371.129,132.546c0,0.5-0.403,0.904-0.905,0.904c-0.502,0-0.905-0.405-0.905-0.904v-4.035
										c0-0.499,0.403-0.904,0.905-0.904c0.502,0,0.905,0.405,0.905,0.904V132.546z"/>
								</g>
							</g>
							<g>
								<path style="fill:#40ABA1;" d="M375.455,126.537c0,0.5-0.407,0.936-0.909,0.936h-2.656c-0.502,0-0.909-0.437-0.909-0.936
									c0-0.5,0.407-0.936,0.909-0.936h2.656C375.048,125.601,375.455,126.037,375.455,126.537z"/>
							</g>
							<g>
								<path style="fill:#40ABA1;" d="M375.455,118.642c0,0.5-0.407,0.905-0.909,0.905h-2.656c-0.502,0-0.909-0.405-0.909-0.905
									c0-0.499,0.407-0.905,0.909-0.905h2.656C375.048,117.737,375.455,118.143,375.455,118.642z"/>
							</g>
							<g>
								<path style="fill:#40ABA1;" d="M375.455,134.369c0,0.499-0.407,0.905-0.909,0.905h-2.656c-0.502,0-0.909-0.405-0.909-0.905
									s0.407-0.905,0.909-0.905h2.656C375.048,133.464,375.455,133.869,375.455,134.369z"/>
							</g>
						</g>
					</g>
					<g>
						<g>
							<g>
								<g>
									<path style="fill:#40ABA1;" d="M367.073,144.111c0,0.5-0.403,0.904-0.905,0.904c-0.502,0-0.905-0.405-0.905-0.904v-4.035
										c0-0.5,0.403-0.905,0.905-0.905c0.502,0,0.905,0.405,0.905,0.905V144.111z"/>
								</g>
								<g>
									<path style="fill:#40ABA1;" d="M367.073,152.043c0,0.5-0.403,0.904-0.905,0.904c-0.502,0-0.905-0.405-0.905-0.904v-4.035
										c0-0.499,0.403-0.904,0.905-0.904c0.502,0,0.905,0.405,0.905,0.904V152.043z"/>
								</g>
							</g>
							<g>
								<g>
									<path style="fill:#40ABA1;" d="M361.331,144.111c0,0.5-0.403,0.904-0.905,0.904c-0.502,0-0.905-0.405-0.905-0.904v-4.035
										c0-0.5,0.403-0.905,0.905-0.905c0.502,0,0.905,0.405,0.905,0.905V144.111z"/>
								</g>
								<g>
									<path style="fill:#40ABA1;" d="M361.331,152.043c0,0.5-0.403,0.904-0.905,0.904c-0.502,0-0.905-0.405-0.905-0.904v-4.035
										c0-0.499,0.403-0.904,0.905-0.904c0.502,0,0.905,0.405,0.905,0.904V152.043z"/>
								</g>
							</g>
							<g>
								<path style="fill:#40ABA1;" d="M365.529,146.034c0,0.499-0.407,0.936-0.909,0.936h-2.656c-0.502,0-0.909-0.437-0.909-0.936
									c0-0.5,0.407-0.936,0.909-0.936h2.656C365.123,145.098,365.529,145.534,365.529,146.034z"/>
							</g>
							<g>
								<path style="fill:#40ABA1;" d="M365.529,138.139c0,0.5-0.407,0.905-0.909,0.905h-2.656c-0.502,0-0.909-0.405-0.909-0.905
									c0-0.499,0.407-0.905,0.909-0.905h2.656C365.123,137.234,365.529,137.64,365.529,138.139z"/>
							</g>
							<g>
								<path style="fill:#40ABA1;" d="M365.529,153.866c0,0.499-0.407,0.905-0.909,0.905h-2.656c-0.502,0-0.909-0.405-0.909-0.905
									s0.407-0.905,0.909-0.905h2.656C365.123,152.961,365.529,153.366,365.529,153.866z"/>
							</g>
						</g>
						<g>
							<g>
								<g>
									<path style="fill:#40ABA1;" d="M376.995,144.111c0,0.5-0.403,0.904-0.905,0.904c-0.502,0-0.905-0.405-0.905-0.904v-4.035
										c0-0.5,0.403-0.905,0.905-0.905c0.502,0,0.905,0.405,0.905,0.905V144.111z"/>
								</g>
								<g>
									<path style="fill:#40ABA1;" d="M376.995,152.043c0,0.5-0.403,0.904-0.905,0.904c-0.502,0-0.905-0.405-0.905-0.904v-4.035
										c0-0.499,0.403-0.904,0.905-0.904c0.502,0,0.905,0.405,0.905,0.904V152.043z"/>
								</g>
							</g>
							<g>
								<g>
									<path style="fill:#40ABA1;" d="M371.129,144.111c0,0.5-0.403,0.904-0.905,0.904c-0.502,0-0.905-0.405-0.905-0.904v-4.035
										c0-0.5,0.403-0.905,0.905-0.905c0.502,0,0.905,0.405,0.905,0.905V144.111z"/>
								</g>
								<g>
									<path style="fill:#40ABA1;" d="M371.129,152.043c0,0.5-0.403,0.904-0.905,0.904c-0.502,0-0.905-0.405-0.905-0.904v-4.035
										c0-0.499,0.403-0.904,0.905-0.904c0.502,0,0.905,0.405,0.905,0.904V152.043z"/>
								</g>
							</g>
							<g>
								<path style="fill:#40ABA1;" d="M375.455,146.034c0,0.499-0.407,0.936-0.909,0.936h-2.656c-0.502,0-0.909-0.437-0.909-0.936
									c0-0.5,0.407-0.936,0.909-0.936h2.656C375.048,145.098,375.455,145.534,375.455,146.034z"/>
							</g>
							<g>
								<path style="fill:#40ABA1;" d="M375.455,138.139c0,0.5-0.407,0.905-0.909,0.905h-2.656c-0.502,0-0.909-0.405-0.909-0.905
									c0-0.499,0.407-0.905,0.909-0.905h2.656C375.048,137.234,375.455,137.64,375.455,138.139z"/>
							</g>
							<g>
								<path style="fill:#40ABA1;" d="M375.455,153.866c0,0.499-0.407,0.905-0.909,0.905h-2.656c-0.502,0-0.909-0.405-0.909-0.905
									s0.407-0.905,0.909-0.905h2.656C375.048,152.961,375.455,153.366,375.455,153.866z"/>
							</g>
						</g>
					</g>
					<g>
						<path style="fill:#40ABA1;" d="M345.584,134.433h-0.001c-0.335-0.001-0.626-0.23-0.705-0.556l-2.606-10.799l-1.974,6.249
							c-0.088,0.28-0.336,0.479-0.628,0.504c-0.285,0.025-0.572-0.126-0.708-0.386l-1.835-3.506l-1.457,3.237
							c-0.165,0.366-0.595,0.528-0.96,0.364c-0.366-0.165-0.529-0.594-0.364-0.96l2.069-4.599c0.114-0.253,0.362-0.42,0.641-0.428
							c0.267-0.002,0.536,0.143,0.665,0.389l1.718,3.282l2.234-7.072c0.099-0.31,0.366-0.524,0.718-0.507
							c0.325,0.011,0.603,0.238,0.681,0.555l2.517,10.426l1.59-6.519c0.078-0.323,0.366-0.551,0.698-0.554c0.003,0,0.005,0,0.007,0
							c0.33,0,0.618,0.222,0.702,0.542l1.007,3.827h3.579c0.401,0,0.727,0.325,0.727,0.726c0,0.401-0.325,0.726-0.727,0.726h-4.139
							c-0.33,0-0.618-0.222-0.702-0.542l-0.421-1.598l-1.62,6.643C346.21,134.204,345.919,134.433,345.584,134.433z"/>
					</g>
					<g>
						<path style="fill:#40ABA1;" d="M343.09,151.977c-0.028,0-0.056-0.001-0.084-0.005c-4.897-0.569-8.232-6.53-8.288-10.223
							c-0.033-2.23,1.049-3.724,2.895-3.996c1.814-0.269,3.288,0.051,4.374,0.946c0.435,0.359,0.759,0.774,1,1.188
							c0.252-0.417,0.589-0.835,1.037-1.196c1.107-0.89,2.59-1.207,4.399-0.939c1.868,0.274,2.963,1.796,2.929,4.07
							c-0.058,3.757-3.271,9.578-8.177,10.148C343.145,151.975,343.118,151.977,343.09,151.977z M338.798,139.114
							c-0.307,0-0.631,0.025-0.975,0.076c-1.12,0.165-1.676,1.019-1.653,2.537c0.049,3.2,2.97,8.266,6.92,8.792
							c3.886-0.519,6.76-5.542,6.809-8.717c0.016-1.076-0.264-2.402-1.688-2.611c-1.39-0.204-2.489,0.007-3.267,0.626
							c-1.126,0.898-1.258,2.404-1.259,2.419c-0.03,0.378-0.347,0.67-0.725,0.67c-0.004,0-0.008,0-0.013-0.001
							c-0.383-0.006-0.695-0.309-0.713-0.692c-0.001-0.011-0.094-1.51-1.184-2.401C340.483,139.348,339.728,139.114,338.798,139.114
							z"/>
					</g>
				</g>
			</g>
		</g>
		<g style="clip-path:url(#SVGID_00000173125398605414580510000014625941174530049961_);">
			<g>
				<path style="fill:#FFB998;" d="M129.379,274.419c-1.346-74.022-9.361-115.886-9.592-126.304
					c-0.192-8.66-0.248-17.629,3.207-25.573c5.009-11.517,16.987-19.932,18.488-32.4c0.451-3.748-0.122-7.539-0.819-11.248
					c-1.64-8.73-3.978-17.328-6.982-25.687c-0.843-2.344-1.77-4.725-3.415-6.596c-2.272-2.584-5.617-3.887-8.656-5.499
					c-4.342-2.303-8.263-5.397-11.511-9.085c-2.009-2.281-3.954-4.92-6.863-5.801c-2.909-0.881-7.081,1.506-6.34,4.453
					c-4.107-0.14-6.117,5.175-9.865,6.861c-1.209,0.544-2.555,0.681-3.85,0.967c-6.654,1.468-11.245,8.535-12.144,15.289
					c-9.324,0.974-18.672,6.43-21.922,15.223c-2.183,5.907-2.086,12.376-1.962,18.672c0.178,9.026,0.411,18.314,3.974,26.608
					c4.487,10.443,13.837,18.293,17.889,28.912c4.272,11.197-8.949,91.507-8.552,132.016
					C77.265,274.332,112.579,275.312,129.379,274.419z"/>
				<g>
					<g>
						<path style="fill:#CE643A;" d="M109.968,134.241c2.02-0.043,3.984-0.514,5.819-1.355c1.798-0.824,3.454-2.056,4.377-3.838
							c0.237-0.459-0.272-1.097-0.762-0.762c-1.452,0.994-2.871,2.077-4.457,2.857c-1.546,0.76-3.257,1.179-4.977,1.243
							C108.779,132.429,108.769,134.267,109.968,134.241L109.968,134.241z"/>
					</g>
				</g>
				<g>
					<g>
						<path style="fill:#CE643A;" d="M75.138,140.183c5.07,0.095,10.52-2.247,13.148-6.741c0.332-0.568-0.454-1.196-0.919-0.709
							c-3.268,3.417-7.398,5.971-12.229,6.194C74.333,138.964,74.325,140.168,75.138,140.183L75.138,140.183z"/>
					</g>
				</g>
				<g>
					<g>
						<path style="fill:#CE643A;" d="M62.581,67.505c1.125,2.529,2.613,4.879,4.41,6.985c0.888,1.041,1.851,2.017,2.88,2.918
							c1.052,0.921,2.14,1.811,3.404,2.418c0.579,0.279,1.302-0.479,0.738-0.957c-1.016-0.86-2.112-1.612-3.12-2.483
							c-1.011-0.873-1.959-1.818-2.836-2.824c-1.761-2.02-3.209-4.294-4.325-6.729C63.373,66.05,62.236,66.73,62.581,67.505
							L62.581,67.505z"/>
					</g>
				</g>
				<g>
					<g>
						<path style="fill:#CE643A;" d="M72.568,79.583c2.621,4.087,5.243,8.174,7.864,12.26c0.986,1.537,1.974,3.146,3.376,4.346
							c0.867,0.743,3.288,2.356,4.312,1.054c0.157-0.199,0.185-0.448,0-0.646c-0.463-0.495-1.294-0.478-1.901-0.721
							c-0.754-0.302-1.395-0.83-1.96-1.404c-1.314-1.334-2.272-2.991-3.297-4.545c-2.42-3.669-4.84-7.339-7.26-11.008
							C73.239,78.219,72.109,78.867,72.568,79.583L72.568,79.583z"/>
					</g>
				</g>
				<g>
					<g>
						<path style="fill:#CE643A;" d="M71.827,55.37c1.77,2.634,4.007,4.874,6.189,7.16c2.326,2.437,4.365,5.059,6.137,7.926
							c1.723,2.789,3.079,5.749,4.431,8.729c0.689,1.518,1.339,3.054,1.97,4.597c0.6,1.468,1.059,3.07,1.81,4.465
							c0.221,0.41,0.829,0.123,0.731-0.308c-0.375-1.635-1.14-3.251-1.726-4.824c-0.548-1.47-1.112-2.933-1.708-4.384
							c-1.23-2.994-2.722-5.909-4.389-8.683c-1.631-2.716-3.56-5.228-5.741-7.526c-2.363-2.49-4.93-4.791-6.914-7.614
							C72.282,54.433,71.496,54.878,71.827,55.37L71.827,55.37z"/>
					</g>
				</g>
				<g>
					<g>
						<path style="fill:#CE643A;" d="M59.601,73.503c1.198,0.822,2.577,1.305,4.016,1.477c0.702,0.084,1.437,0.102,2.132-0.035
							c0.66-0.13,1.449-0.312,1.924-0.818c0.21-0.224,0.047-0.541-0.236-0.569c-0.609-0.059-1.24,0.148-1.852,0.184
							c-0.64,0.038-1.269,0.082-1.91,0.023c-1.25-0.116-2.453-0.559-3.499-1.247C59.559,72.109,59,73.09,59.601,73.503
							L59.601,73.503z"/>
					</g>
				</g>
				<g>
					<g>
						<path style="fill:#CE643A;" d="M79.708,50.969c0.935-1.985,2.516-3.563,4.462-4.567c0.952-0.491,1.982-0.828,3.039-1.003
							c0.513-0.085,1.036-0.121,1.556-0.117c0.543,0.004,1.132,0.108,1.664-0.022c0.363-0.088,0.394-0.58,0.1-0.765
							c-0.924-0.583-2.444-0.355-3.463-0.197c-1.179,0.182-2.323,0.572-3.384,1.113c-2.121,1.082-3.9,2.848-4.91,5.011
							C78.478,51.049,79.41,51.601,79.708,50.969L79.708,50.969z"/>
					</g>
				</g>
				<g>
					<g>
						<path style="fill:#CE643A;" d="M87.744,38.714c7.218,2.675,9.565,10.66,10.853,17.482c0.768,4.064,1.392,8.135,2.487,12.13
							c1.041,3.798,1.968,7.546,0.613,11.392c-1.364,3.873-4.529,6.233-8.075,7.934c-0.656,0.315-0.188,1.321,0.484,1.148
							c3.301-0.852,6.136-3.742,7.644-6.703c1.788-3.511,2.034-7.093,1.181-10.913c-0.507-2.27-1.229-4.485-1.675-6.769
							c-0.45-2.303-0.699-4.65-1.049-6.97c-0.629-4.174-1.544-8.318-3.586-12.052c-1.915-3.5-4.757-6.448-8.564-7.817
							C87.34,37.318,87.039,38.452,87.744,38.714L87.744,38.714z"/>
					</g>
				</g>
				<g>
					<g>
						<path style="fill:#CE643A;" d="M92.26,77.924c0.794,0.237,1.702,0.444,2.534,0.361c0.92-0.092,1.792-0.333,2.635-0.711
							c0.806-0.362,1.527-0.864,2.142-1.499c0.64-0.66,1.035-1.443,1.264-2.331c0.124-0.482-0.496-0.695-0.765-0.323
							c-0.432,0.597-0.98,1.133-1.514,1.637c-0.529,0.5-1.146,0.931-1.79,1.269c-0.635,0.333-1.326,0.556-2.033,0.675
							c-0.753,0.127-1.484,0.23-2.244,0.094C91.953,77.002,91.724,77.764,92.26,77.924L92.26,77.924z"/>
					</g>
				</g>
				<g>
					<g>
						<path style="fill:#CE643A;" d="M73.85,79.048c1.966-0.217,3.993-1.145,5.058-2.873c0.232-0.376-0.288-0.752-0.598-0.461
							c-0.639,0.6-1.329,1.174-2.09,1.615c-0.768,0.445-1.609,0.73-2.487,0.859C73.251,78.259,73.359,79.102,73.85,79.048
							L73.85,79.048z"/>
					</g>
				</g>
				<g>
					<g>
						<path style="fill:#CE643A;" d="M104.342,69.747c1.926,0.756,4.217,0.198,5.714-1.188c0.359-0.332,0.782-0.819,0.893-1.31
							c0.063-0.278-0.06-0.642-0.359-0.726c-0.368-0.103-0.63,0.177-0.833,0.434c-0.552,0.697-1.245,1.281-2.074,1.588
							c-0.992,0.367-2.021,0.399-3.017,0.027c-0.308-0.115-0.668,0.128-0.749,0.425C103.821,69.344,104.034,69.627,104.342,69.747
							L104.342,69.747z"/>
					</g>
				</g>
				<g>
					<g>
						<path style="fill:#CE643A;" d="M96.349,31.136c0.832,7.937,3.575,15.618,8.23,22.126c2.147,3.002,4.665,6.159,8.078,7.772
							c1.662,0.786,3.465,1.148,5.293,1.255c1.934,0.113,4.322,0.16,6.184-0.418c0.596-0.185,0.428-0.961-0.139-1.028
							c-1.83-0.217-3.761,0.183-5.616,0.076c-1.982-0.114-3.947-0.559-5.667-1.58c-3.098-1.838-5.415-5.035-7.367-7.989
							c-4.054-6.134-6.741-13.093-7.742-20.383C97.505,30.262,96.274,30.421,96.349,31.136L96.349,31.136z"/>
					</g>
				</g>
				<g>
					<g>
						<path style="fill:#CE643A;" d="M110.405,42.556c2.466-0.482,4.483-2.268,5.355-4.607c0.118-0.318-0.132-0.688-0.439-0.773
							c-0.35-0.096-0.656,0.119-0.773,0.439c-0.345,0.943-0.963,1.778-1.732,2.486c-0.746,0.687-1.682,1.194-2.69,1.446
							c-0.274,0.069-0.439,0.376-0.366,0.644C109.841,42.48,110.126,42.61,110.405,42.556L110.405,42.556z"/>
					</g>
				</g>
				<g>
					<g>
						<path style="fill:#CE643A;" d="M112.066,76.593c0.787,1.445,1.748,2.795,2.848,4.018c0.527,0.585,1.08,1.165,1.703,1.649
							c0.675,0.525,1.367,1.056,2.218,1.234c0.328,0.069,0.668-0.283,0.462-0.601c-0.431-0.667-1.036-1.16-1.604-1.708
							c-0.556-0.536-1.129-1.05-1.656-1.616c-1.05-1.127-1.95-2.374-2.705-3.715C112.868,75.03,111.615,75.764,112.066,76.593
							L112.066,76.593z"/>
					</g>
				</g>
				<g>
					<g>
						<path style="fill:#CE643A;" d="M100.99,83.121c5.843,1.191,11.145-2.929,12.609-8.48c0.775-2.938,0.717-5.99-0.05-8.921
							c-0.766-2.927-2.162-6.178-4.216-8.437c-0.431-0.474-1.164,0.131-0.867,0.669c1.346,2.437,2.944,4.564,3.838,7.247
							c0.866,2.6,1.202,5.507,0.585,8.202c-1.189,5.193-6.002,9.696-11.595,8.619C100.577,81.882,100.267,82.974,100.99,83.121
							L100.99,83.121z"/>
					</g>
				</g>
				<path style="fill:#FFE2D9;" d="M87.851,88.431c1.031-0.568,2.205-1.154,3.334-0.82c1.182,0.349,1.849,1.565,2.392,2.671
					c0.429,0.876,0.863,1.764,1.046,2.722c0.183,0.958,0.089,2.01-0.471,2.808c-0.87,1.241-2.587,1.545-4.1,1.445
					c-0.761-0.051-1.554-0.192-2.156-0.66c-0.755-0.587-1.066-1.56-1.477-2.423c-0.562-1.18-1.883-2.091-1.525-3.369
					C85.188,89.755,86.986,88.907,87.851,88.431z"/>
				<path style="fill:#FFE2D9;" d="M100.676,32.461c0.985,2.815,2.742,5.351,5.024,7.256c0.621,0.518,1.331,1.01,2.137,1.047
					c1.031,0.048,1.933-0.645,2.731-1.303c1.012-0.833,2.092-1.778,2.318-3.073c0.027-0.158,0.041-0.322-0.001-0.476
					c-0.072-0.264-0.293-0.455-0.501-0.631c-2.845-2.415-4.876-6.452-7.794-8.541C100.758,23.996,99.726,29.747,100.676,32.461z"/>
				<g>
					<g>
						<path style="fill:#FFFFFF;" d="M101.306,30.221c0.649,1.976,1.76,3.881,3.587,4.968c0.278,0.166,0.676-0.182,0.469-0.469
							c-1.097-1.518-2.277-3.042-2.973-4.798c-0.112-0.282-0.375-0.479-0.691-0.392C101.416,29.607,101.211,29.931,101.306,30.221
							L101.306,30.221z"/>
					</g>
				</g>
				<g>
					<g>
						<path style="fill:#FFFFFF;" d="M105.644,37.035c0.229,0.224,0.457,0.448,0.686,0.672c0.084,0.083,0.205,0.134,0.323,0.134
							c0.112,0,0.246-0.05,0.323-0.134c0.08-0.087,0.139-0.201,0.134-0.323c-0.006-0.122-0.047-0.234-0.134-0.323
							c-0.224-0.229-0.448-0.457-0.672-0.686c-0.083-0.085-0.211-0.137-0.33-0.137c-0.114,0-0.251,0.051-0.33,0.137
							c-0.082,0.089-0.142,0.206-0.137,0.33C105.513,36.828,105.554,36.947,105.644,37.035L105.644,37.035z"/>
					</g>
				</g>
				<g>
					<g>
						<path style="fill:#FFFFFF;" d="M90.332,89.495c0.304,0.149,0.597,0.32,0.876,0.513c0.068,0.047,0.135,0.096,0.201,0.145
							c0.119,0.088-0.077-0.063,0.04,0.031c0.035,0.028,0.071,0.057,0.106,0.085c0.128,0.106,0.252,0.216,0.372,0.33
							c0.239,0.228,0.482,0.452,0.702,0.698c0.109,0.122,0.212,0.247,0.327,0.363c0.122,0.123,0.232,0.288,0.389,0.365
							c0.154,0.076,0.294-0.02,0.315-0.181c0.023-0.174-0.065-0.36-0.123-0.522c-0.064-0.18-0.149-0.343-0.247-0.507
							c-0.193-0.323-0.409-0.637-0.668-0.911c-0.505-0.533-1.099-0.991-1.741-1.347c-0.248-0.137-0.603-0.068-0.742,0.195
							C90.008,88.997,90.06,89.362,90.332,89.495L90.332,89.495z"/>
					</g>
				</g>
				<g>
					<g>
						<path style="fill:#FFFFFF;" d="M93.178,93.171c0.076,0.247,0.151,0.494,0.227,0.74c0.037,0.121,0.07,0.244,0.119,0.361
							c0.051,0.122,0.103,0.244,0.154,0.367c0.037,0.089,0.075,0.16,0.162,0.21c0.076,0.044,0.187,0.063,0.271,0.035
							c0.198-0.064,0.278-0.238,0.246-0.433c-0.02-0.126-0.041-0.251-0.061-0.377c-0.021-0.13-0.058-0.256-0.092-0.383
							c-0.067-0.249-0.133-0.498-0.2-0.748c-0.058-0.216-0.308-0.37-0.527-0.299C93.262,92.714,93.108,92.942,93.178,93.171
							L93.178,93.171z"/>
					</g>
				</g>
				<g>
					<g>
						<path style="fill:#CE643A;" d="M85.704,89.11c0.572-0.394,1.153-0.774,1.743-1.138c0.294-0.181,0.581-0.357,0.856-0.565
							c0.141-0.107,0.283-0.213,0.426-0.319c0.075-0.055,0.165-0.108,0.231-0.174c0.059-0.059,0.102-0.143,0.148-0.213
							c0.109-0.165-0.035-0.387-0.222-0.387c-0.19,0.001-0.332,0.037-0.508,0.107c-0.16,0.063-0.32,0.127-0.479,0.193
							c-0.337,0.138-0.645,0.307-0.958,0.491c-0.598,0.352-1.186,0.72-1.765,1.101c-0.236,0.155-0.336,0.463-0.188,0.716
							C85.123,89.152,85.47,89.271,85.704,89.11L85.704,89.11z"/>
					</g>
				</g>
				<g>
					<g>
						<path style="fill:#CE643A;" d="M70.089,77.134c-0.593,1.866-1.676,3.54-3.097,4.883c-0.711,0.672-1.495,1.211-2.326,1.721
							c-0.846,0.519-1.764,0.893-2.636,1.36c-0.308,0.165-0.167,0.664,0.178,0.656c2.145-0.047,4.198-1.39,5.721-2.801
							c1.606-1.488,2.816-3.372,3.5-5.451C71.709,76.654,70.359,76.283,70.089,77.134L70.089,77.134z"/>
					</g>
				</g>
			</g>
			<path style="fill:#FFB998;" d="M60.496,272.075c0,0-0.95,21.966,3.1,66.465c1.838,20.189-14.529,127.784-13.651,168.863
				l101.93-2.549c0,0-21.347-124.891-20.965-170.04c0.382-45.149-0.463-30.102-2.216-80.595L60.496,272.075z"/>
			<path style="fill:#888888;" d="M147.463,476.411c-6.869,5.524-15.958,7.318-24.709,8.371c-24.215,2.914-49.814,1.389-73.529-4.31
				c-0.608-34.767,3.31-77.128,11.39-108.359c3.525,3.424,5.428,3.765,10.225,4.833c21.045,4.684,43.277,3.925,63.954-2.182
				c4.127,26.674,9.089,69.235,13.216,95.909C148.361,472.943,149.252,474.973,147.463,476.411z"/>
			<path style="opacity:0.17;fill:#A39B9D;" d="M135.477,379.271c-0.23-1.543-0.457-3.052-0.682-4.506
				c-6.255,1.847-38.109,5.503-51.022,7.51c-0.024,0.004-0.041,0.01-0.065,0.014c0.209-1.039,0.411-2.092,0.627-3.114
				c-4.533-0.505-9.041-1.237-13.494-2.228c-4.798-1.068-6.7-1.409-10.225-4.833c-8.08,31.23-11.999,73.591-11.391,108.359
				c8.294,1.993,16.82,3.463,25.435,4.424c-0.308-32.018,2.624-69.483,8.566-100.211
				C111.064,389.618,129.539,382.459,135.477,379.271z"/>
			<g>
				<g>
					<path style="fill:#EAE5E8;" d="M59.661,374.107c1.978,1.351,4.021,2.636,6.118,3.793c2.232,1.232,4.718,2.135,7.119,2.982
						c4.748,1.673,9.72,2.559,14.716,3.095c10.296,1.106,20.835-0.086,30.893-2.399c2.848-0.655,5.674-1.4,8.474-2.237
						c1.4-0.419,2.794-0.859,4.181-1.32c1.541-0.511,3.264-0.93,4.611-1.847c0.943-0.642,1.596-1.831,1.219-2.995
						c-0.337-1.042-1.375-2.056-2.558-1.947c-0.809,0.074-1.552,0.196-2.318,0.461c-0.634,0.22-1.27,0.435-1.906,0.646
						c-1.199,0.398-2.404,0.782-3.613,1.15c-2.456,0.747-4.932,1.429-7.427,2.033c-2.492,0.603-5.007,1.116-7.535,1.544
						c-0.583,0.099-1.167,0.193-1.751,0.282c-0.312,0.047-0.624,0.094-0.936,0.138c-0.156,0.022-0.312,0.044-0.468,0.066
						c-0.794,0.112,0.636-0.079-0.159,0.021c-1.25,0.156-2.5,0.298-3.755,0.411c-4.896,0.439-9.865,0.403-14.764,0.017
						c-1.167-0.092-2.332-0.21-3.494-0.355c-0.138-0.017-0.298-0.024-0.436-0.056c0.724,0.164,0.355,0.049,0.169,0.022
						c-0.29-0.042-0.579-0.083-0.869-0.126c-0.615-0.093-1.228-0.194-1.84-0.302c-2.338-0.415-4.643-0.975-6.947-1.546
						c-2.54-0.63-5.044-1.408-7.488-2.343c-1.245-0.476-2.513-0.887-3.754-1.376c-0.3-0.118-0.603-0.234-0.898-0.363
						c0.092,0.04,0.381,0.172-0.036-0.027c-0.165-0.079-0.332-0.154-0.497-0.231c-0.629-0.296-1.251-0.603-1.869-0.92
						c-1.005-0.515-2.39-0.295-2.956,0.775C58.307,372.248,58.662,373.425,59.661,374.107L59.661,374.107z"/>
				</g>
			</g>
			<g>
				<g>
					<path style="fill:#EAE5E8;" d="M47.868,482.612c1.718,0.814,3.484,1.617,5.287,2.227c1.66,0.562,3.417,0.931,5.129,1.299
						c3.563,0.765,7.174,1.269,10.795,1.668c3.484,0.383,6.979,0.661,10.471,0.948c3.712,0.305,7.421,0.653,11.135,0.94
						c7.484,0.579,15.031,0.974,22.534,0.539c6.373-0.37,12.82-1.13,18.989-2.822c3.31-0.908,6.608-2.089,9.685-3.616
						c1.473-0.731,2.903-1.562,4.297-2.435c1.666-1.044,3.412-2.116,4.777-3.538c0.958-0.997,1.061-2.532,0.216-3.626
						c-0.89-1.152-2.292-1.298-3.563-0.711c-1.456,0.672-2.766,1.608-4.159,2.404c-1.268,0.725-2.562,1.402-3.883,2.026
						c-0.614,0.29-1.23,0.575-1.847,0.859c-0.32,0.147-0.641,0.291-0.963,0.432c-0.075,0.033-0.669,0.274-0.15,0.067
						c0.531-0.212-0.235,0.096-0.328,0.134c-1.29,0.525-2.601,0.999-3.927,1.424c-2.754,0.883-5.573,1.55-8.419,2.059
						c-0.655,0.117-1.311,0.226-1.968,0.328c-0.4,0.062-0.8,0.121-1.201,0.178c-0.057,0.008-0.336,0.015-0.404,0.056
						c0.48-0.064,0.549-0.073,0.208-0.028c-0.136,0.018-0.273,0.035-0.409,0.053c-1.572,0.2-3.149,0.367-4.728,0.505
						c-14.511,1.267-29.157,0.057-43.599-1.491c-0.922-0.099-1.844-0.203-2.765-0.315c-0.537-0.065-1.074-0.134-1.61-0.203
						c-0.131-0.017-0.557-0.064,0.063,0.008c-0.306-0.036-0.611-0.085-0.916-0.129c-1.905-0.274-3.807-0.577-5.697-0.944
						c-1.883-0.366-3.754-0.796-5.602-1.311c-1.847-0.514-3.719-0.907-5.552-1.483c-1.172-0.368-2.445,0.34-2.903,1.425
						C46.421,480.582,46.758,482.086,47.868,482.612L47.868,482.612z"/>
				</g>
			</g>
		</g>
	</g>
	<g>
		<path style="fill:none;stroke:#EAE5E8;stroke-width:5;stroke-miterlimit:10;" d="M263.427,130.65
			c-15.455,0.824-31.546,1.92-47.277,1.291c-6.956-0.278-14.069-0.947-20.368-3.91c-6.299-2.963-11.71-8.638-12.623-15.539
			c-0.913-6.901,3.894-14.568,10.818-15.281c9.312-0.959,15.564,9.579,17.1,18.814c4.938,29.683-12.504,58.513-32.77,80.757
			c-20.265,22.244-44.477,41.746-58.302,68.474c-18.087,34.966-15.591,76.578-12.374,115.814c1.377-0.49,1.772-2.616,0.662-3.567"/>
		<path style="fill:#EAEAEA;" d="M289.552,146.373l-20.125-3.37c-5.465-0.915-9.469-5.645-9.469-11.186v-5.083
			c0-5.383,3.784-10.024,9.056-11.109l20.538-4.226V146.373z"/>
		<path style="fill:#DBDBDB;" d="M280.162,119.946c-0.374,2.61-0.755,5.248-1.729,7.698c-0.973,2.45-2.61,4.732-4.942,5.962
			c-2.34,1.234-5.184,1.29-7.721,0.54c-1.764-0.521-3.948-2.546-5.812-2.924v0.595c0,5.541,4.004,10.271,9.469,11.186l14.238,2.384
			C282.736,136.876,281.578,128.39,280.162,119.946z"/>
		<g>
			<path style="fill:#FFFFFF;" d="M373.835,197.157h-49.246c-23.907,0-43.634-18.71-44.898-42.583l-3.428-64.749
				c-1.129-21.33,15.861-39.243,37.221-39.243h70.415c21.123,0,38.025,17.536,37.247,38.645l-2.38,64.625
				C417.874,178.022,398.022,197.157,373.835,197.157z"/>
			<path style="opacity:0.2;fill:#C3C7C5;" d="M383.898,50.581h-7.652c10.005,2.416,20.194,6.65,26.826,14.059
				c13.426,15.001,20.796,96.461-16.409,98.551c-37.205,2.09-64.24-3.351-77.199,5.01c-7.445,4.803-9.516,14.191-9.934,21.315
				c7.175,4.825,15.799,7.64,25.057,7.64h49.247c24.187,0,44.04-19.135,44.93-43.306l2.38-64.625
				C421.923,68.117,405.021,50.581,383.898,50.581z"/>
			<path style="fill:#C6C6C6;" d="M383.63,160.005h-69.881c-9.935,0-17.988-8.054-17.988-17.988V83.515
				c0-9.935,8.054-17.988,17.988-17.988h69.881c9.935,0,17.988,8.054,17.988,17.988v58.502
				C401.619,151.952,393.565,160.005,383.63,160.005z"/>
			
				<linearGradient id="SVGID_00000026861537842114926400000013256467324570339502_" gradientUnits="userSpaceOnUse" x1="348.6898" y1="151.5202" x2="348.6898" y2="55.1705">
				<stop  offset="0" style="stop-color:#A4E0F7"/>
				<stop  offset="1" style="stop-color:#21ABD6"/>
			</linearGradient>
			<path style="fill:url(#SVGID_00000026861537842114926400000013256467324570339502_);" d="M379.241,154.071h-61.103
				c-8.687,0-15.729-7.042-15.729-15.729V87.189c0-8.687,7.042-15.729,15.729-15.729h61.103c8.687,0,15.729,7.042,15.729,15.729
				v51.153C394.97,147.029,387.928,154.071,379.241,154.071z"/>
			<path style="fill:#8D8D8D;" d="M297.486,143.742V85.24c0-9.935,8.054-17.988,17.988-17.988h69.881
				c4.528,0,8.654,1.686,11.816,4.448c-3.297-3.776-8.134-6.173-13.541-6.173h-69.881c-9.935,0-17.988,8.054-17.988,17.988v58.502
				c0,5.407,2.397,10.244,6.173,13.541C299.172,152.396,297.486,148.27,297.486,143.742z"/>
			<g style="opacity:0.32;">
				<path style="fill:#565656;" d="M348.107,185.689h-24.35c-4.824,0-8.734-3.91-8.734-8.734l0,0c0-4.824,3.91-8.734,8.734-8.734
					h24.35c4.824,0,8.734,3.91,8.734,8.734l0,0C356.841,181.779,352.931,185.689,348.107,185.689z"/>
				<circle style="fill:#565656;" cx="371.372" cy="176.955" r="9.169"/>
			</g>
			<g>
				<g>
					<path style="fill:#EAEAEA;" d="M316.157,54.581c-10.275-0.373-20.278,3.747-26.833,11.823
						c-5.987,7.377-10.21,19.323-8.005,28.803c0.497,2.137,3.565,1.96,4.153,0c2.482-8.267,2.233-16.735,7.488-24.098
						c5.361-7.511,14.329-10.874,23.196-11.973C318.994,58.785,319.17,54.69,316.157,54.581L316.157,54.581z"/>
				</g>
			</g>
			<g>
				<g>
					<path style="fill:#EAEAEA;" d="M282.156,102.512c0.063,2.458-0.197,5.209,0.639,7.557c0.76,2.136,3.498,1.61,3.772-0.511
						c-0.47,0.617-0.94,1.234-1.41,1.852c0.9-0.129,1.311-1.083,1.41-1.852c0.316-2.452-0.541-5.108-0.994-7.509
						C285.207,100.111,282.106,100.572,282.156,102.512L282.156,102.512z"/>
				</g>
			</g>
			<g>
				<path style="fill:#3675AD;" d="M349.015,186.415h-24.349c-4.824,0-8.734-3.91-8.734-8.734v0c0-4.824,3.91-8.734,8.734-8.734
					h24.349c4.824,0,8.734,3.91,8.734,8.734v0C357.749,182.504,353.838,186.415,349.015,186.415z"/>
				
					<ellipse transform="matrix(0.6027 -0.798 0.798 0.6027 6.1322 367.6772)" style="fill:#8D8D8D;" cx="372.279" cy="177.681" rx="9.169" ry="9.169"/>
			</g>
			<g>
				<g>
					<g>
						<path style="fill:#2D2D2D;" d="M335.752,88.974c0,0.923-0.802,1.671-1.729,1.671s-1.729-0.748-1.729-1.671V81.52
							c0-0.923,0.802-1.671,1.729-1.671s1.729,0.748,1.729,1.671V88.974z"/>
						<path style="fill:#2D2D2D;" d="M335.752,103.624c0,0.923-0.802,1.671-1.729,1.671s-1.729-0.748-1.729-1.671V96.17
							c0-0.923,0.802-1.671,1.729-1.671s1.729,0.748,1.729,1.671V103.624z"/>
					</g>
					<g style="opacity:0.43;">
						<path style="fill:#225F8C;" d="M324.571,88.974c0,0.923-0.745,1.671-1.672,1.671c-0.927,0-1.671-0.748-1.671-1.671V81.52
							c0-0.923,0.744-1.671,1.671-1.671c0.927,0,1.672,0.748,1.672,1.671V88.974z"/>
						<path style="fill:#225F8C;" d="M324.571,103.624c0,0.923-0.745,1.671-1.672,1.671c-0.927,0-1.671-0.748-1.671-1.671V96.17
							c0-0.923,0.744-1.671,1.671-1.671c0.927,0,1.672,0.748,1.672,1.671V103.624z"/>
					</g>
					<path style="opacity:0.43;fill:#225F8C;" d="M332.578,92.525c0,0.923-0.751,1.729-1.678,1.729h-4.906
						c-0.927,0-1.678-0.806-1.678-1.729s0.751-1.729,1.678-1.729h4.906C331.827,90.796,332.578,91.602,332.578,92.525z"/>
					<path style="opacity:0.43;fill:#225F8C;" d="M332.578,77.942c0,0.923-0.751,1.672-1.678,1.672h-4.906
						c-0.927,0-1.678-0.749-1.678-1.672c0-0.923,0.751-1.671,1.678-1.671h4.906C331.827,76.271,332.578,77.02,332.578,77.942z"/>
					<path style="opacity:0.43;fill:#225F8C;" d="M332.578,106.992c0,0.923-0.751,1.671-1.678,1.671h-4.906
						c-0.927,0-1.678-0.749-1.678-1.671c0-0.923,0.751-1.672,1.678-1.672h4.906C331.827,105.321,332.578,106.069,332.578,106.992z"
						/>
				</g>
				<g>
					<g>
						<path style="fill:#2D2D2D;" d="M353.505,88.974c0,0.923-0.745,1.671-1.671,1.671c-0.927,0-1.672-0.748-1.672-1.671V81.52
							c0-0.923,0.745-1.671,1.672-1.671c0.927,0,1.671,0.748,1.671,1.671V88.974z"/>
						<path style="opacity:0.43;fill:#225F8C;" d="M353.505,103.624c0,0.923-0.745,1.671-1.671,1.671
							c-0.927,0-1.672-0.748-1.672-1.671V96.17c0-0.923,0.745-1.671,1.672-1.671c0.927,0,1.671,0.748,1.671,1.671V103.624z"/>
					</g>
					<g>
						<path style="opacity:0.43;fill:#225F8C;" d="M342.9,88.974c0,0.923-0.745,1.671-1.672,1.671s-1.672-0.748-1.672-1.671V81.52
							c0-0.923,0.745-1.671,1.672-1.671s1.672,0.748,1.672,1.671V88.974z"/>
						<path style="fill:#2D2D2D;" d="M342.9,103.624c0,0.923-0.745,1.671-1.672,1.671s-1.672-0.748-1.672-1.671V96.17
							c0-0.923,0.745-1.671,1.672-1.671s1.672,0.748,1.672,1.671V103.624z"/>
					</g>
					<path style="fill:#2D2D2D;" d="M350.654,92.525c0,0.923-0.751,1.729-1.678,1.729h-4.906c-0.927,0-1.678-0.806-1.678-1.729
						s0.751-1.729,1.678-1.729h4.906C349.903,90.796,350.654,91.602,350.654,92.525z"/>
					<path style="fill:#2D2D2D;" d="M350.654,77.942c0,0.923-0.751,1.672-1.678,1.672h-4.906c-0.927,0-1.678-0.749-1.678-1.672
						c0-0.923,0.751-1.671,1.678-1.671h4.906C349.903,76.271,350.654,77.02,350.654,77.942z"/>
					<path style="fill:#2D2D2D;" d="M350.654,106.992c0,0.923-0.751,1.671-1.678,1.671h-4.906c-0.927,0-1.678-0.749-1.678-1.671
						c0-0.923,0.751-1.672,1.678-1.672h4.906C349.903,105.321,350.654,106.069,350.654,106.992z"/>
				</g>
				<g>
					<g>
						<path style="fill:#2D2D2D;" d="M371.834,88.974c0,0.923-0.745,1.671-1.672,1.671s-1.672-0.748-1.672-1.671V81.52
							c0-0.923,0.745-1.671,1.672-1.671s1.672,0.748,1.672,1.671V88.974z"/>
						<path style="fill:#2D2D2D;" d="M371.834,103.624c0,0.923-0.745,1.671-1.672,1.671s-1.672-0.748-1.672-1.671V96.17
							c0-0.923,0.745-1.671,1.672-1.671s1.672,0.748,1.672,1.671V103.624z"/>
					</g>
					<g>
						<path style="fill:#2D2D2D;" d="M360.998,88.974c0,0.923-0.745,1.671-1.672,1.671c-0.927,0-1.672-0.748-1.672-1.671V81.52
							c0-0.923,0.745-1.671,1.672-1.671c0.927,0,1.672,0.748,1.672,1.671V88.974z"/>
						<path style="fill:#2D2D2D;" d="M360.998,103.624c0,0.923-0.745,1.671-1.672,1.671c-0.927,0-1.672-0.748-1.672-1.671V96.17
							c0-0.923,0.745-1.671,1.672-1.671c0.927,0,1.672,0.748,1.672,1.671V103.624z"/>
					</g>
					<path style="opacity:0.43;fill:#225F8C;" d="M368.989,92.525c0,0.923-0.751,1.729-1.678,1.729h-4.906
						c-0.927,0-1.678-0.806-1.678-1.729s0.751-1.729,1.678-1.729h4.906C368.237,90.796,368.989,91.602,368.989,92.525z"/>
					<path style="fill:#2D2D2D;" d="M368.989,77.942c0,0.923-0.751,1.672-1.678,1.672h-4.906c-0.927,0-1.678-0.749-1.678-1.672
						c0-0.923,0.751-1.671,1.678-1.671h4.906C368.237,76.271,368.989,77.02,368.989,77.942z"/>
					<path style="fill:#2D2D2D;" d="M368.989,106.992c0,0.923-0.751,1.671-1.678,1.671h-4.906c-0.927,0-1.678-0.749-1.678-1.671
						c0-0.923,0.751-1.672,1.678-1.672h4.906C368.237,105.321,368.989,106.069,368.989,106.992z"/>
				</g>
			</g>
			<g>
				<g>
					<g>
						<path style="fill:#2D2D2D;" d="M359.916,118.65c0,0.5-0.403,0.904-0.905,0.904c-0.502,0-0.905-0.405-0.905-0.904v-4.035
							c0-0.499,0.403-0.904,0.905-0.904c0.502,0,0.905,0.405,0.905,0.904V118.65z"/>
						<path style="fill:#2D2D2D;" d="M359.916,126.582c0,0.5-0.403,0.904-0.905,0.904c-0.502,0-0.905-0.405-0.905-0.904v-4.035
							c0-0.5,0.403-0.904,0.905-0.904c0.502,0,0.905,0.405,0.905,0.904V126.582z"/>
					</g>
					<g>
						<path style="fill:#2D2D2D;" d="M354.175,118.65c0,0.5-0.403,0.904-0.905,0.904c-0.502,0-0.905-0.405-0.905-0.904v-4.035
							c0-0.499,0.403-0.904,0.905-0.904c0.502,0,0.905,0.405,0.905,0.904V118.65z"/>
						<path style="fill:#2D2D2D;" d="M354.175,126.582c0,0.5-0.403,0.904-0.905,0.904c-0.502,0-0.905-0.405-0.905-0.904v-4.035
							c0-0.5,0.403-0.904,0.905-0.904c0.502,0,0.905,0.405,0.905,0.904V126.582z"/>
					</g>
					<path style="fill:#2D2D2D;" d="M358.373,120.573c0,0.5-0.407,0.936-0.909,0.936h-2.656c-0.502,0-0.909-0.437-0.909-0.936
						c0-0.499,0.407-0.936,0.909-0.936h2.656C357.966,119.637,358.373,120.073,358.373,120.573z"/>
					<path style="fill:#2D2D2D;" d="M358.373,112.678c0,0.5-0.407,0.905-0.909,0.905h-2.656c-0.502,0-0.909-0.405-0.909-0.905
						c0-0.5,0.407-0.905,0.909-0.905h2.656C357.966,111.774,358.373,112.179,358.373,112.678z"/>
					<path style="fill:#2D2D2D;" d="M358.373,128.405c0,0.5-0.407,0.905-0.909,0.905h-2.656c-0.502,0-0.909-0.405-0.909-0.905
						c0-0.5,0.407-0.905,0.909-0.905h2.656C357.966,127.5,358.373,127.905,358.373,128.405z"/>
				</g>
				<g>
					<g>
						<path style="fill:#2D2D2D;" d="M369.839,118.65c0,0.5-0.403,0.904-0.905,0.904c-0.502,0-0.905-0.405-0.905-0.904v-4.035
							c0-0.499,0.403-0.904,0.905-0.904c0.502,0,0.905,0.405,0.905,0.904V118.65z"/>
						<path style="fill:#2D2D2D;" d="M369.839,126.582c0,0.5-0.403,0.904-0.905,0.904c-0.502,0-0.905-0.405-0.905-0.904v-4.035
							c0-0.5,0.403-0.904,0.905-0.904c0.502,0,0.905,0.405,0.905,0.904V126.582z"/>
					</g>
					<g>
						<path style="fill:#2D2D2D;" d="M363.973,118.65c0,0.5-0.403,0.904-0.905,0.904c-0.502,0-0.905-0.405-0.905-0.904v-4.035
							c0-0.499,0.403-0.904,0.905-0.904c0.502,0,0.905,0.405,0.905,0.904V118.65z"/>
						<path style="fill:#2D2D2D;" d="M363.973,126.582c0,0.5-0.403,0.904-0.905,0.904c-0.502,0-0.905-0.405-0.905-0.904v-4.035
							c0-0.5,0.403-0.904,0.905-0.904c0.502,0,0.905,0.405,0.905,0.904V126.582z"/>
					</g>
					<path style="opacity:0.43;fill:#225F8C;" d="M368.298,120.573c0,0.5-0.407,0.936-0.909,0.936h-2.656
						c-0.502,0-0.909-0.437-0.909-0.936c0-0.499,0.407-0.936,0.909-0.936h2.656C367.892,119.637,368.298,120.073,368.298,120.573z"
						/>
					<path style="fill:#2D2D2D;" d="M368.298,112.678c0,0.5-0.407,0.905-0.909,0.905h-2.656c-0.502,0-0.909-0.405-0.909-0.905
						c0-0.5,0.407-0.905,0.909-0.905h2.656C367.892,111.774,368.298,112.179,368.298,112.678z"/>
					<path style="fill:#2D2D2D;" d="M368.298,128.405c0,0.5-0.407,0.905-0.909,0.905h-2.656c-0.502,0-0.909-0.405-0.909-0.905
						c0-0.5,0.407-0.905,0.909-0.905h2.656C367.892,127.5,368.298,127.905,368.298,128.405z"/>
				</g>
			</g>
			<g>
				<g>
					<g>
						<path style="fill:#2D2D2D;" d="M359.916,138.147c0,0.499-0.403,0.904-0.905,0.904c-0.502,0-0.905-0.405-0.905-0.904v-4.035
							c0-0.499,0.403-0.904,0.905-0.904c0.502,0,0.905,0.405,0.905,0.904V138.147z"/>
						<path style="fill:#2D2D2D;" d="M359.916,146.079c0,0.5-0.403,0.905-0.905,0.905c-0.502,0-0.905-0.405-0.905-0.905v-4.035
							c0-0.499,0.403-0.904,0.905-0.904c0.502,0,0.905,0.405,0.905,0.904V146.079z"/>
					</g>
					<g>
						<path style="opacity:0.43;fill:#225F8C;" d="M354.175,138.147c0,0.499-0.403,0.904-0.905,0.904
							c-0.502,0-0.905-0.405-0.905-0.904v-4.035c0-0.499,0.403-0.904,0.905-0.904c0.502,0,0.905,0.405,0.905,0.904V138.147z"/>
						<path style="opacity:0.43;fill:#225F8C;" d="M354.175,146.079c0,0.5-0.403,0.905-0.905,0.905
							c-0.502,0-0.905-0.405-0.905-0.905v-4.035c0-0.499,0.403-0.904,0.905-0.904c0.502,0,0.905,0.405,0.905,0.904V146.079z"/>
					</g>
					<path style="opacity:0.43;fill:#225F8C;" d="M358.373,140.07c0,0.499-0.407,0.936-0.909,0.936h-2.656
						c-0.502,0-0.909-0.437-0.909-0.936c0-0.5,0.407-0.936,0.909-0.936h2.656C357.966,139.134,358.373,139.57,358.373,140.07z"/>
					<path style="fill:#2D2D2D;" d="M358.373,132.176c0,0.499-0.407,0.905-0.909,0.905h-2.656c-0.502,0-0.909-0.405-0.909-0.905
						c0-0.5,0.407-0.905,0.909-0.905h2.656C357.966,131.271,358.373,131.676,358.373,132.176z"/>
					<path style="opacity:0.43;fill:#225F8C;" d="M358.373,147.902c0,0.5-0.407,0.905-0.909,0.905h-2.656
						c-0.502,0-0.909-0.405-0.909-0.905c0-0.499,0.407-0.905,0.909-0.905h2.656C357.966,146.997,358.373,147.402,358.373,147.902z"
						/>
				</g>
				<g>
					<g>
						<path style="fill:#2D2D2D;" d="M369.839,138.147c0,0.499-0.403,0.904-0.905,0.904c-0.502,0-0.905-0.405-0.905-0.904v-4.035
							c0-0.499,0.403-0.904,0.905-0.904c0.502,0,0.905,0.405,0.905,0.904V138.147z"/>
						<path style="fill:#2D2D2D;" d="M369.839,146.079c0,0.5-0.403,0.905-0.905,0.905c-0.502,0-0.905-0.405-0.905-0.905v-4.035
							c0-0.499,0.403-0.904,0.905-0.904c0.502,0,0.905,0.405,0.905,0.904V146.079z"/>
					</g>
					<g>
						<path style="fill:#2D2D2D;" d="M363.973,138.147c0,0.499-0.403,0.904-0.905,0.904c-0.502,0-0.905-0.405-0.905-0.904v-4.035
							c0-0.499,0.403-0.904,0.905-0.904c0.502,0,0.905,0.405,0.905,0.904V138.147z"/>
						<path style="fill:#2D2D2D;" d="M363.973,146.079c0,0.5-0.403,0.905-0.905,0.905c-0.502,0-0.905-0.405-0.905-0.905v-4.035
							c0-0.499,0.403-0.904,0.905-0.904c0.502,0,0.905,0.405,0.905,0.904V146.079z"/>
					</g>
					<path style="opacity:0.43;fill:#225F8C;" d="M368.298,140.07c0,0.499-0.407,0.936-0.909,0.936h-2.656
						c-0.502,0-0.909-0.437-0.909-0.936c0-0.5,0.407-0.936,0.909-0.936h2.656C367.892,139.134,368.298,139.57,368.298,140.07z"/>
					<path style="fill:#2D2D2D;" d="M368.298,132.176c0,0.499-0.407,0.905-0.909,0.905h-2.656c-0.502,0-0.909-0.405-0.909-0.905
						c0-0.5,0.407-0.905,0.909-0.905h2.656C367.892,131.271,368.298,131.676,368.298,132.176z"/>
					<path style="fill:#2D2D2D;" d="M368.298,147.902c0,0.5-0.407,0.905-0.909,0.905h-2.656c-0.502,0-0.909-0.405-0.909-0.905
						c0-0.499,0.407-0.905,0.909-0.905h2.656C367.892,146.997,368.298,147.402,368.298,147.902z"/>
				</g>
			</g>
			
				<polyline style="fill:none;stroke:#2D2D2D;stroke-width:1.4523;stroke-linecap:round;stroke-linejoin:round;stroke-miterlimit:10;" points="
				327.851,122.915 329.92,118.317 332.449,123.145 335.208,114.408 338.427,127.743 340.727,118.317 341.876,122.685 
				346.015,122.685 			"/>
			
				<path style="fill:none;stroke:#2D2D2D;stroke-width:1.4523;stroke-linecap:round;stroke-linejoin:round;stroke-miterlimit:10;" d="
				M335.933,145.287c-6.379-0.742-10.416-12.037-5.372-12.779c5.044-0.742,5.243,3.709,5.243,3.709l0,0c0,0,0.312-4.451,5.356-3.709
				C346.204,133.249,342.312,144.545,335.933,145.287L335.933,145.287z"/>
		</g>
	</g>
</g>
</svg>
